<?xml version="1.0" standalone="no"?>
<!DOCTYPE svg PUBLIC "-//W3C//DTD SVG 20010904//EN"
 "http://www.w3.org/TR/2001/REC-SVG-20010904/DTD/svg10.dtd">
<svg version="1.0" xmlns="http://www.w3.org/2000/svg"
 width="850.000000pt" height="650.000000pt" viewBox="0 0 850.000000 650.000000"
 preserveAspectRatio="xMidYMid meet">
<metadata>
Created by potrace 1.15, written by Peter Selinger 2001-2017
</metadata>
<g transform="translate(0.000000,650.000000) scale(0.100000,-0.100000)"
fill="#000000" stroke="none">
<path d="M5715 5895 c-315 -49 -577 -239 -626 -453 -5 -22 1 -83 17 -175 13
-78 24 -158 25 -177 1 -32 2 -33 9 -10 l8 25 2 -25 c1 -18 5 -11 14 23 7 27
18 53 25 60 16 16 14 32 -3 18 -8 -7 -18 -26 -21 -42 -4 -16 -11 -27 -16 -23
-15 9 -10 29 11 54 18 21 19 25 5 32 -24 14 -18 31 23 70 65 63 95 73 207 73
115 -1 145 -12 235 -89 30 -26 60 -46 67 -46 7 0 13 -4 13 -10 0 -5 7 -10 15
-10 8 0 40 -33 72 -72 31 -40 63 -79 70 -86 7 -7 13 -22 13 -32 0 -10 4 -22
10 -25 5 -3 9 -30 7 -60 -2 -47 -16 -58 -17 -12 0 10 -4 15 -10 12 -5 -3 -10
-1 -10 4 0 6 5 11 10 11 17 0 11 36 -11 64 -11 14 -25 23 -30 20 -6 -3 -39 22
-74 55 -42 41 -88 73 -132 93 -37 17 -79 39 -92 49 -13 11 -34 19 -46 19 -26
0 -52 25 -36 34 23 15 -3 34 -54 41 -46 5 -63 2 -113 -20 -53 -24 -98 -65 -71
-65 5 0 7 -5 3 -12 -5 -8 -2 -9 9 -5 21 8 21 4 3 -31 -7 -15 -16 -54 -19 -87
-4 -34 -13 -77 -22 -98 -42 -102 -40 -474 4 -616 10 -33 16 -63 12 -66 -11 -6
-1 -65 11 -65 5 0 7 10 4 23 -4 14 -1 11 9 -8 8 -16 14 -47 15 -68 0 -26 4
-37 13 -34 17 5 10 75 -14 146 -36 104 -50 185 -56 331 -6 155 5 251 46 399
11 41 18 78 15 83 -12 20 28 83 67 108 l40 25 -33 9 c-33 8 -33 8 -8 18 34 13
57 5 119 -42 30 -22 60 -40 67 -40 14 0 124 -107 117 -114 -2 -2 9 -7 26 -11
17 -4 29 -10 26 -15 -6 -10 23 -22 35 -15 5 3 11 1 15 -5 3 -5 17 -10 30 -10
31 0 85 -64 77 -92 -3 -13 2 -26 15 -37 23 -18 39 -86 23 -96 -5 -3 -10 -11
-10 -16 0 -6 5 -7 10 -4 18 11 10 -3 -21 -36 -33 -35 -63 -88 -55 -96 2 -3 12
9 20 25 9 17 22 34 28 38 10 6 10 5 1 -7 -20 -25 -34 -69 -21 -66 7 1 12 -3
13 -10 0 -6 4 -15 9 -20 5 -4 6 -3 3 3 -4 6 7 23 23 38 17 14 30 32 30 39 0 8
-4 7 -10 -3 -5 -8 -15 -15 -22 -15 -7 -1 -12 -7 -10 -14 1 -7 -2 -10 -8 -6
-12 7 10 54 34 74 9 8 16 20 16 28 0 8 9 26 20 40 11 14 20 21 20 15 0 -9 6
-9 24 0 21 9 23 13 11 24 -7 8 -18 14 -24 14 -19 0 -22 44 -7 92 11 37 11 49
2 58 -7 5 -15 8 -18 5 -2 -3 -10 11 -16 31 -9 30 -8 33 4 23 11 -9 14 -9 14 0
0 7 5 9 13 5 7 -4 9 -3 4 2 -5 5 -13 10 -18 10 -5 1 -11 3 -14 4 -3 1 -9 3
-15 4 -5 0 -16 10 -25 21 -9 11 -14 14 -10 8 15 -30 -5 -9 -40 41 -20 29 -48
58 -61 65 -13 6 -24 15 -24 20 0 4 -12 11 -27 15 -16 3 -50 26 -76 51 -27 25
-53 45 -59 45 -5 0 -21 9 -35 19 -13 11 -31 17 -39 14 -9 -3 -14 2 -15 13 0
18 -1 17 -9 -1 -5 -11 -9 -15 -9 -8 -1 7 -10 10 -23 8 -14 -3 -29 3 -42 17
-14 15 -21 18 -24 9 -3 -8 2 -18 9 -23 12 -8 11 -9 -1 -5 -68 20 -67 20 -45 4
l20 -16 -20 1 c-35 1 -119 -33 -149 -60 -16 -15 -26 -21 -22 -14 4 7 1 12 -9
12 -9 0 -14 -4 -10 -9 3 -5 1 -12 -5 -16 -5 -3 -10 -2 -10 4 0 5 -3 17 -7 27
-5 13 -3 16 8 12 10 -4 15 1 16 14 1 10 -5 22 -13 25 -26 10 -15 52 23 87 32
31 33 34 12 29 -13 -3 -30 -13 -36 -21 -7 -9 -13 -11 -13 -6 0 6 3 14 8 18 4
4 7 13 7 19 0 7 6 12 13 12 7 0 17 6 22 14 7 12 11 13 24 1 9 -7 20 -10 24 -6
4 4 -1 12 -11 17 -9 6 -15 14 -12 19 3 4 -5 6 -17 2 -23 -5 -23 -5 -4 16 11
12 21 20 24 17 3 -3 11 0 19 7 10 8 17 8 25 0 7 -7 20 -12 29 -12 10 0 21 -4
24 -10 4 -6 -1 -7 -12 -3 -15 5 -16 3 -6 -7 10 -11 17 -9 37 12 l24 26 -27 7
c-24 7 -25 8 -6 15 11 5 16 9 11 9 -5 1 -2 8 5 17 12 14 9 16 -21 13 -19 -2
-41 -7 -47 -12 -21 -16 -15 1 9 23 16 15 24 17 30 8 6 -10 8 -9 8 3 0 9 7 22
16 30 13 10 17 10 26 -2 8 -11 9 -11 4 3 -3 11 4 24 22 36 50 35 55 36 37 9
-19 -30 -29 -87 -14 -87 6 0 7 5 4 10 -3 6 -2 10 3 10 5 0 14 11 20 25 15 32
15 38 2 30 -16 -10 -11 1 7 16 11 10 14 10 9 2 -4 -7 -2 -13 3 -13 6 0 11 7
11 15 0 31 47 17 69 -20 11 -19 26 -35 33 -35 9 0 9 3 -2 10 -14 9 -7 15 14
11 5 -1 15 7 22 18 8 10 22 18 31 17 10 -2 12 -1 6 1 -7 3 -13 9 -13 14 0 6 6
7 13 3 9 -6 9 -4 0 6 -10 11 -9 18 9 37 12 13 17 23 11 23 -6 0 -16 -7 -23
-15 -14 -17 -30 -20 -30 -5 0 12 27 26 70 34 31 6 32 5 16 -7 -13 -9 -17 -21
-14 -35 3 -12 1 -23 -6 -26 -6 -3 -4 -5 4 -4 26 4 60 -21 53 -38 -5 -15 -7
-15 -15 0 -5 9 -14 14 -20 10 -6 -4 -5 -10 3 -15 10 -6 11 -9 2 -9 -7 0 -13
-4 -13 -10 0 -15 61 0 95 24 23 15 27 16 16 3 -12 -15 -11 -17 8 -17 14 0 20
4 15 11 -4 7 -1 10 7 7 8 -3 13 -10 12 -16 -1 -5 7 -8 18 -5 15 4 17 8 8 14
-7 4 -14 15 -15 23 -1 9 1 14 6 11 4 -3 10 2 13 9 4 11 -2 14 -26 14 -18 -1
-35 -5 -38 -10 -3 -5 -20 2 -36 16 -19 16 -37 24 -47 20 -9 -3 -16 -1 -16 5 0
6 7 11 16 11 8 0 13 4 10 9 -12 18 53 -5 69 -25 6 -7 26 -14 45 -16 27 -2 35
-7 34 -21 -1 -10 3 -16 10 -14 6 3 9 11 7 18 -2 8 -3 23 -3 34 1 10 -4 25 -10
32 -12 15 -13 14 25 19 24 2 27 1 17 -11 -7 -8 -16 -12 -21 -9 -5 3 -6 -2 -3
-11 5 -13 11 -12 39 9 28 21 34 23 39 10 3 -8 2 -12 -3 -9 -10 6 -26 -33 -17
-42 3 -3 16 5 30 18 22 21 23 24 8 36 -10 7 -12 13 -6 13 5 0 20 -9 32 -20 19
-18 20 -24 11 -43 -15 -29 -24 -37 -16 -14 8 21 -9 23 -17 1 -4 -10 -13 -13
-26 -9 -25 8 -84 -40 -87 -70 -1 -18 0 -18 10 -4 7 9 22 14 36 12 27 -4 54 14
47 32 -6 17 26 15 47 -3 15 -14 17 -13 17 1 0 12 8 15 30 12 21 -2 30 1 30 11
0 8 4 14 8 14 14 0 7 -41 -9 -51 -17 -11 -6 -13 64 -9 50 2 61 -6 26 -18 -20
-8 -20 -9 -3 -23 14 -11 16 -11 10 0 -6 9 -5 12 5 9 8 -3 13 -12 11 -22 -2 -9
2 -16 8 -16 6 0 8 5 5 10 -3 6 -1 10 5 10 6 0 8 -14 4 -40 l-7 -40 39 -1 c32
0 35 -2 19 -10 -14 -6 -8 -7 20 -2 22 3 50 6 62 6 12 -1 24 6 27 14 4 9 0 14
-12 12 -33 -3 -52 1 -52 12 0 5 4 8 9 4 5 -3 17 5 26 17 14 20 18 21 28 8 12
-16 57 -15 57 0 0 5 -7 7 -16 3 -10 -4 -22 1 -30 12 -12 16 -17 16 -46 5 -18
-8 -44 -22 -57 -32 l-24 -18 24 0 c19 0 21 -2 9 -10 -25 -16 -47 -11 -53 11
-4 16 3 24 36 40 23 11 34 17 24 14 -10 -3 -36 -2 -58 1 -41 7 -51 26 -23 42
11 6 -2 9 -42 11 -33 1 -61 7 -66 14 -11 19 16 39 59 43 37 3 37 2 16 -13 -13
-8 -23 -19 -23 -24 0 -13 23 -6 37 11 20 26 115 7 98 -20 -2 -3 6 -7 18 -7 12
-1 25 3 28 9 6 9 14 9 31 1 l23 -11 -28 -11 c-16 -6 -38 -11 -50 -12 -14 -1
-10 -4 13 -9 21 -5 36 -5 38 1 2 5 13 9 24 9 14 0 18 -5 14 -15 -3 -8 -1 -15
4 -15 5 0 16 -8 26 -17 17 -17 17 -16 10 10 -7 30 4 36 24 12 7 -9 34 -25 59
-37 56 -25 101 -56 101 -69 0 -5 -10 -14 -22 -20 -21 -8 -20 -9 5 -4 21 4 27
3 21 -6 -5 -9 -2 -10 10 -6 10 4 15 3 11 -3 -3 -6 4 -10 15 -10 16 0 20 -5 16
-15 -3 -10 3 -17 20 -21 14 -4 30 -17 34 -30 5 -13 16 -24 24 -24 7 0 19 -7
26 -15 10 -13 9 -15 -11 -15 -19 0 -21 -2 -9 -10 8 -5 23 -7 33 -4 16 5 22 -6
18 -30 -1 -5 8 -19 19 -31 21 -22 21 -24 3 -34 -14 -8 -15 -10 -3 -11 9 0 21
5 27 11 8 8 13 8 17 0 4 -6 2 -11 -5 -11 -6 0 -2 -8 9 -17 11 -10 24 -33 27
-52 7 -31 5 -33 -14 -28 -11 3 -21 1 -21 -4 0 -5 11 -9 24 -9 17 0 28 -10 44
-42 12 -24 24 -55 27 -70 3 -15 12 -33 20 -42 8 -8 15 -20 15 -27 0 -6 11 -22
25 -35 14 -13 25 -34 25 -49 0 -15 4 -24 10 -20 6 4 10 -6 10 -22 0 -16 5 -34
10 -39 6 -6 12 -35 15 -65 3 -30 8 -70 11 -89 3 -19 6 -107 8 -195 3 -150 27
-348 47 -387 5 -9 10 -50 11 -92 2 -57 -2 -79 -14 -93 -14 -15 -16 -44 -13
-198 1 -99 6 -234 10 -300 6 -100 3 -141 -15 -245 -11 -69 -29 -141 -39 -160
-10 -19 -21 -48 -25 -65 -10 -41 -51 -136 -136 -320 -29 -60 -61 -132 -73
-160 -41 -98 -87 -175 -227 -380 -19 -27 -74 -89 -123 -136 -70 -67 -108 -96
-185 -135 -53 -27 -146 -80 -207 -118 -60 -38 -157 -91 -215 -118 -58 -27
-150 -71 -205 -98 -125 -61 -213 -100 -225 -100 -5 0 -24 -9 -43 -20 -19 -11
-64 -31 -100 -43 -72 -25 -143 -86 -179 -153 -10 -19 -28 -44 -39 -55 -17 -17
-20 -30 -16 -59 4 -34 2 -39 -19 -44 -15 -4 -36 -25 -52 -51 -15 -25 -32 -45
-38 -45 -6 0 -22 34 -35 75 -13 41 -27 75 -31 75 -17 0 -6 -54 21 -108 16 -31
33 -79 36 -107 l7 -50 -28 37 c-28 39 -38 45 -49 28 -10 -16 18 -71 32 -65 18
6 16 2 -8 -26 -11 -13 -19 -33 -16 -45 2 -13 -3 -26 -15 -33 -10 -6 -18 -21
-18 -32 0 -17 -4 -20 -22 -14 -69 20 -96 27 -128 32 -19 3 -40 10 -47 15 -33
27 -90 28 -193 4 -21 -5 -90 17 -90 28 0 2 16 0 35 -4 49 -11 61 6 45 65 -7
25 -16 48 -21 50 -4 3 -10 23 -14 45 -6 34 -25 67 -25 43 0 -11 -21 -13 -149
-13 -98 1 -105 2 -123 25 -26 34 -57 50 -70 37 -7 -7 -20 -4 -40 11 -27 20
-39 21 -148 19 -65 -2 -134 -7 -152 -13 -50 -14 -63 -12 -48 6 14 17 0 21 -17
4 -6 -6 -16 -8 -22 -5 -18 11 -13 26 9 26 25 0 70 21 70 32 0 5 -60 8 -132 8
-266 -1 -435 5 -449 17 -20 17 -125 8 -157 -13 -19 -12 -49 -18 -102 -19 -49
-1 -86 -7 -107 -18 -18 -9 -49 -17 -70 -17 -36 1 -37 2 -19 15 11 8 15 15 9
15 -7 0 -15 -5 -18 -10 -8 -13 -85 -2 -105 15 -17 15 -123 13 -210 -5 -30 -6
-67 -8 -82 -5 -15 4 -68 -6 -130 -24 -144 -41 -157 -43 -286 -46 -99 -2 -117
-4 -129 -21 -13 -17 -28 -18 -231 -16 -119 1 -251 6 -292 12 -73 9 -266 19
-420 21 l-75 1 50 13 c46 11 100 33 213 87 31 14 47 17 54 10 8 -8 40 4 107
38 54 26 140 64 191 84 105 39 368 160 384 176 21 21 -17 9 -142 -46 -157 -69
-160 -70 -147 -57 6 5 60 31 120 58 61 26 146 65 190 85 44 20 91 40 105 44
l25 7 -25 -21 -25 -21 30 13 c37 15 54 28 35 28 -9 0 -8 5 6 15 10 8 15 15 10
15 -9 0 -238 -89 -411 -160 -457 -187 -653 -263 -745 -287 -30 -7 -82 -23
-115 -33 -45 -15 -87 -20 -170 -20 l-110 0 60 26 c33 14 89 36 125 50 36 13
72 28 81 33 13 8 15 5 11 -15 -5 -30 15 -39 54 -23 16 6 58 15 93 19 44 6 92
23 155 54 84 41 245 106 341 136 52 16 128 50 123 55 -6 6 -156 -39 -277 -84
-62 -23 -115 -40 -117 -38 -2 2 47 23 109 46 128 48 161 66 107 57 -56 -9 -13
10 60 28 91 21 341 108 370 129 14 9 31 17 40 17 17 1 71 29 55 30 -5 0 -27
-6 -50 -14 -22 -8 -80 -26 -130 -41 -49 -14 -99 -30 -110 -35 -20 -9 -241 -77
-280 -87 -36 -8 5 15 65 37 104 38 248 114 259 137 9 20 204 133 231 133 6 0
24 8 38 18 54 37 105 66 99 55 -4 -6 -1 -13 5 -16 14 -4 122 63 114 71 -3 2
-15 -3 -28 -12 -12 -9 -29 -16 -38 -16 -20 1 20 23 90 51 88 35 144 62 155 75
16 20 144 86 154 80 13 -9 63 12 56 23 -3 5 0 13 6 17 8 4 9 3 5 -4 -5 -9 9
-10 52 -6 39 4 62 3 66 -5 5 -7 -1 -11 -13 -11 -12 0 -21 -4 -21 -8 0 -4 -19
-9 -42 -11 -23 -1 -72 -14 -108 -30 -95 -39 -227 -147 -206 -168 2 -2 16 7 32
20 16 13 72 49 124 80 71 41 103 55 125 52 17 -1 41 3 55 10 14 7 42 21 62 31
20 10 36 22 35 28 -1 5 9 13 23 17 l25 9 -27 -4 c-36 -4 -59 10 -38 24 13 8
12 10 -5 11 -11 1 -26 2 -33 2 -10 -1 -9 4 3 17 33 36 16 53 -90 88 -55 18
-109 41 -120 51 -11 10 -35 26 -52 35 -47 23 -41 34 20 39 41 3 36 4 -20 4
-66 0 -78 3 -130 35 -63 39 -83 65 -38 48 33 -13 48 -13 40 0 -3 6 -15 10 -26
10 -30 0 -24 41 12 78 19 19 26 32 17 32 -37 0 -94 -72 -82 -104 7 -19 1 -19
-46 -1 -28 10 -32 14 -17 20 9 4 17 17 17 30 0 13 7 25 15 29 8 3 14 11 13 17
-3 13 51 37 147 64 33 10 77 25 97 35 31 15 44 16 73 7 29 -9 39 -8 51 5 13
13 23 14 51 6 39 -10 73 5 93 43 11 19 13 19 29 5 28 -26 68 -20 85 12 19 37
142 144 163 141 43 -4 47 1 24 25 -19 20 -21 27 -10 43 14 23 99 83 117 83 7
0 26 12 43 27 97 87 252 184 398 250 51 24 99 48 107 53 7 6 50 24 95 40 67
24 92 39 138 84 31 30 70 66 86 80 17 13 26 28 22 32 -4 5 -11 4 -15 -1 -10
-14 -42 -18 -42 -6 0 11 53 51 67 51 4 0 31 16 60 35 79 53 177 103 275 141
92 36 130 42 58 9 -22 -10 -46 -25 -52 -33 -7 -8 -45 -29 -85 -48 -70 -31
-109 -61 -338 -255 -117 -100 -161 -144 -192 -191 -37 -55 -19 -60 25 -8 50
60 83 92 181 175 46 39 122 103 170 143 47 39 115 86 151 104 36 17 79 41 95
53 17 13 53 34 81 48 28 14 58 37 67 50 15 23 93 66 152 84 17 5 29 15 27 21
-1 7 2 12 7 12 5 0 17 8 27 18 39 39 227 142 260 142 7 0 14 3 16 8 2 4 32 21
67 37 36 17 89 44 118 62 29 17 53 27 53 22 0 -5 -11 -32 -25 -61 -30 -62 -32
-77 -7 -54 11 9 25 35 33 59 18 56 40 92 71 117 25 19 27 19 31 3 2 -10 4 8 4
40 0 31 -1 57 -3 57 -2 0 -11 -17 -19 -38 -9 -20 -25 -44 -38 -51 -82 -52
-220 -127 -327 -177 -69 -32 -168 -85 -220 -118 -190 -118 -246 -148 -310
-168 -125 -39 -423 -192 -487 -251 -13 -11 -23 -30 -23 -41 0 -39 -70 -112
-135 -141 -242 -108 -382 -181 -500 -261 -65 -43 -136 -90 -159 -104 -85 -51
-132 -90 -166 -136 -19 -26 -61 -75 -93 -108 -32 -34 -62 -68 -67 -76 -8 -12
-14 -12 -45 -1 -35 12 -38 12 -67 -16 -31 -29 -27 -28 -185 -32 -17 0 -55 -11
-85 -24 -29 -13 -75 -29 -103 -36 -57 -14 -210 -92 -256 -130 -42 -36 -32 -57
34 -65 71 -10 111 -29 265 -130 90 -58 157 -94 210 -112 77 -26 107 -43 87
-50 -5 -2 -75 -41 -155 -86 -183 -102 -229 -125 -297 -149 -82 -28 -483 -246
-553 -300 -49 -39 -157 -95 -222 -118 -30 -10 -63 -24 -74 -30 -24 -13 -515
-204 -569 -221 -22 -7 -76 -32 -121 -55 -45 -24 -113 -53 -153 -65 -53 -17
-71 -26 -71 -40 0 -20 17 -24 200 -40 69 -6 166 -16 215 -22 50 -6 209 -14
355 -19 146 -5 319 -13 385 -18 66 -5 176 -10 244 -10 110 -1 122 1 106 13
-18 13 -18 14 7 9 21 -4 26 -1 25 14 -2 16 10 19 128 24 97 5 150 13 210 32
45 14 119 28 170 31 50 4 126 10 170 15 47 4 88 4 98 -1 29 -15 125 -38 158
-38 16 0 48 9 72 20 30 14 50 18 71 12 32 -9 108 7 165 34 29 14 40 14 75 4
23 -7 100 -16 171 -20 72 -5 148 -12 170 -17 22 -4 69 -8 105 -7 59 0 66 -2
89 -28 22 -27 28 -29 72 -23 27 4 102 8 166 10 101 2 123 0 149 -16 17 -10 39
-16 52 -13 15 5 29 -2 49 -24 26 -28 34 -31 103 -33 41 -2 78 -8 82 -14 5 -7
13 -7 26 1 24 15 93 29 72 15 -10 -7 -11 -11 -2 -11 6 0 12 -9 12 -20 0 -11 9
-34 20 -52 11 -18 20 -36 20 -40 0 -15 -42 -8 -67 11 -26 21 -53 18 -53 -5 0
-8 16 -32 36 -53 34 -39 35 -40 14 -51 -17 -9 -30 -7 -66 11 -25 11 -47 19
-50 17 -2 -3 14 -13 36 -23 22 -10 40 -19 40 -20 0 -1 -11 -22 -24 -46 -28
-52 -41 -105 -27 -113 5 -4 13 -1 17 5 5 8 3 9 -6 4 -10 -6 -12 -4 -7 9 4 10
7 20 7 22 0 3 5 2 11 -2 12 -7 129 36 129 48 0 5 6 8 14 8 7 0 21 20 30 44 14
37 20 43 41 38 14 -2 36 3 51 13 25 16 25 16 15 -3 -8 -16 -6 -21 17 -33 37
-20 73 -62 61 -74 -15 -15 -10 -35 10 -35 12 0 20 -9 23 -25 3 -13 2 -23 -1
-21 -56 31 -82 38 -98 25 -9 -8 -32 -14 -52 -14 -29 0 -36 -4 -36 -20 0 -22
-5 -21 185 -54 137 -25 281 -37 261 -23 -11 8 -10 12 7 21 15 8 22 8 25 -2 4
-9 6 -9 6 0 1 17 -19 27 -31 15 -7 -7 -18 -8 -27 -3 -9 5 -37 6 -63 2 -41 -7
-46 -6 -43 11 2 10 -1 18 -6 18 -6 0 -8 3 -6 7 3 5 -1 22 -9 38 -8 17 -12 22
-9 13 2 -10 0 -18 -5 -18 -6 0 -10 7 -10 16 0 8 -4 12 -10 9 -5 -3 -10 -2 -10
3 0 6 14 15 31 21 40 14 52 14 44 1 -4 -6 -11 -8 -16 -5 -5 4 -9 -1 -9 -9 0
-21 27 -20 39 1 5 10 13 14 17 10 5 -5 2 -12 -5 -16 -10 -6 -12 -19 -7 -45 7
-34 25 -51 27 -23 0 6 4 3 9 -8 8 -19 9 -19 9 2 1 12 -6 23 -16 26 -16 4 -16
5 1 6 12 1 16 6 12 16 -3 9 0 15 8 15 9 0 12 -7 10 -18 -3 -9 -1 -28 5 -42 8
-22 10 -23 11 -5 2 17 3 16 10 -5 7 -22 8 -20 9 15 1 23 -2 45 -6 51 -5 5 -1
1 9 -8 18 -20 43 -24 53 -8 3 6 -3 10 -14 10 -12 0 -21 5 -21 10 0 18 39 10
50 -10 9 -16 8 -20 -5 -20 -20 0 -19 -36 1 -44 9 -4 23 -1 30 5 7 6 19 7 25 3
9 -5 10 -2 6 9 -7 18 12 19 26 2 4 -6 11 -4 17 5 5 8 10 11 10 6 0 -4 11 -1
26 8 20 14 31 15 58 6 31 -10 36 -18 37 -62 0 -10 8 -18 17 -18 9 0 24 -5 32
-10 11 -7 5 -8 -19 -3 -25 4 -32 3 -27 -5 4 -7 2 -12 -4 -12 -16 0 -40 26 -40
44 0 8 -4 18 -10 21 -5 3 -10 -3 -10 -15 0 -19 -1 -20 -16 -6 -21 21 -30 20
-13 -1 13 -15 11 -16 -18 -10 -20 4 -33 2 -33 -4 0 -6 -7 -6 -20 1 -11 6 -18
15 -15 21 4 5 1 9 -4 9 -14 0 -14 -17 -1 -25 6 -4 8 -15 5 -25 -7 -22 -1 -23
240 -40 88 -6 186 -13 218 -17 47 -5 57 -3 57 10 0 8 -6 18 -12 21 -7 3 -1 3
14 0 20 -5 30 -2 34 10 9 24 -4 32 -26 18 -25 -16 -37 -15 -37 1 0 19 61 21
77 2 7 -8 17 -12 23 -8 6 3 7 1 3 -5 -4 -7 -2 -12 3 -12 14 0 14 16 1 41 -6
10 -8 19 -6 19 3 0 12 -13 21 -29 8 -16 25 -32 37 -34 21 -4 -51 -11 -79 -8
-7 1 -9 -7 -6 -19 3 -11 10 -20 17 -20 6 0 70 -7 141 -15 72 -8 141 -14 155
-14 l25 1 -27 10 c-16 5 -28 13 -28 18 0 5 -3 17 -7 27 -6 17 -6 17 13 -1 18
-19 19 -19 23 -1 2 12 5 14 10 6 4 -6 20 -14 34 -17 21 -3 27 0 28 13 0 10 5
5 9 -11 7 -23 5 -32 -8 -43 -15 -12 -12 -13 25 -11 23 1 45 -1 49 -5 15 -14
111 -8 125 9 10 12 28 15 93 11 45 -2 95 -7 111 -11 24 -5 26 -5 9 3 -38 17
-35 29 10 35 24 4 52 13 62 21 17 12 18 15 3 32 -21 23 -30 81 -14 87 7 2 12
-7 12 -24 0 -42 28 -80 59 -80 41 0 160 -67 186 -106 13 -19 29 -34 36 -34 36
0 -13 131 -70 187 -44 43 -137 93 -174 93 -11 0 -25 5 -31 11 -6 6 -29 10 -51
7 -30 -2 -38 0 -34 10 4 11 -9 12 -69 5 -79 -8 -120 -9 -214 -3 -33 2 -110 1
-171 -3 -112 -6 -112 -6 -225 33 -63 22 -124 40 -136 40 -12 0 -25 5 -28 10
-21 34 -158 64 -350 77 -179 11 -94 15 175 7 432 -12 384 -14 388 23 4 37 -23
57 -62 47 -29 -7 -57 -34 -35 -34 8 0 9 -3 3 -9 -16 -15 -76 0 -81 20 -3 10
-9 16 -14 13 -5 -3 -6 -10 -3 -16 5 -8 -16 -9 -72 -3 -43 4 -158 7 -254 6
-143 -1 -184 2 -223 16 -52 19 -60 29 -72 80 -15 70 110 182 171 154 14 -6 54
-11 89 -11 50 0 65 -3 65 -15 0 -8 17 -19 43 -26 23 -7 47 -16 54 -21 7 -6 15
-3 21 8 10 17 14 17 86 0 42 -10 74 -21 72 -25 -2 -3 12 -7 32 -7 21 -1 53 -9
72 -17 l35 -15 -51 -1 c-28 -1 -73 6 -100 14 -27 8 -59 15 -71 15 -12 0 -28 7
-37 15 -18 19 -36 19 -36 1 0 -8 -3 -16 -7 -19 -5 -2 -2 -2 6 0 8 2 17 0 20
-6 3 -5 53 -18 111 -29 96 -19 110 -19 160 -6 62 16 100 18 100 5 0 -13 -27
-21 -71 -21 -22 0 -50 -5 -62 -12 -30 -15 -69 -19 -60 -5 4 7 0 8 -11 4 -10
-4 -25 -3 -34 2 -26 13 -112 -10 -112 -30 0 -15 6 -16 42 -7 30 6 62 5 105 -3
51 -10 67 -10 87 1 15 7 38 10 55 7 47 -10 87 2 100 29 6 15 7 24 1 24 -6 0
-10 7 -10 15 0 11 13 16 53 17 143 5 141 6 183 -35 24 -24 31 -35 17 -28 -51
25 -96 -1 -86 -52 6 -30 17 -33 75 -15 34 10 42 9 66 -9 31 -23 52 -20 52 7 0
23 57 44 106 38 25 -3 34 0 34 10 0 11 -14 13 -65 10 -72 -4 -83 7 -44 48 17
18 28 21 60 17 35 -5 39 -3 49 22 8 21 8 30 -1 36 -8 4 -4 9 11 14 14 4 36 0
61 -11 45 -22 48 -29 17 -39 -20 -6 -21 -8 -5 -12 15 -4 16 -7 5 -20 -11 -14
-9 -15 18 -9 31 7 76 -7 147 -45 22 -12 37 -16 37 -9 0 6 5 8 10 5 24 -15 6
15 -33 57 -28 28 -62 52 -93 62 -27 10 -64 24 -82 32 -68 29 -226 14 -370 -37
-45 -16 -72 -18 -200 -12 -148 6 -238 24 -517 102 -38 11 -101 25 -140 31 -99
17 -115 21 -115 31 0 4 14 28 30 52 17 25 30 48 30 51 0 10 99 106 110 106 18
0 293 123 496 221 78 38 146 69 151 69 5 0 59 30 119 67 152 92 217 130 302
174 40 21 93 57 118 81 148 140 168 166 283 349 53 85 141 249 141 263 0 3 24
56 54 118 63 133 136 303 136 318 0 6 9 32 21 57 30 65 59 243 60 365 0 57 -2
200 -5 317 -4 160 -2 219 7 230 15 18 15 198 -1 226 -19 37 -35 187 -37 355
-3 201 -12 314 -25 318 -6 2 -8 8 -4 13 5 9 -10 68 -27 101 -5 10 -9 24 -9 31
0 7 -11 24 -25 37 -14 13 -25 32 -25 42 0 10 -6 18 -14 18 -8 0 -20 17 -26 38
-7 20 -30 83 -52 139 -35 88 -53 117 -133 215 -51 62 -115 132 -142 154 -66
56 -188 135 -243 157 -119 48 -185 68 -237 72 -30 3 -61 9 -67 13 -6 5 -40 19
-75 31 -75 25 -214 27 -346 6z m125 -49 c-14 -14 -24 0 -16 21 6 15 8 15 16 3
6 -9 5 -19 0 -24z m-33 -8 c-3 -8 -6 -5 -6 6 -1 11 2 17 5 13 3 -3 4 -12 1
-19z m260 6 c-3 -3 -12 -4 -19 -1 -8 3 -5 6 6 6 11 1 17 -2 13 -5z m53 1 c0
-2 -10 -9 -22 -15 -22 -11 -22 -10 -4 4 21 17 26 19 26 11z m-397 -29 c20 0
22 -9 4 -24 -10 -9 -19 -7 -35 4 -26 18 -30 39 -4 29 9 -5 25 -8 35 -9z m-219
-8 c-5 -8 -2 -9 11 -5 9 4 24 2 32 -5 11 -9 16 -9 23 2 4 7 15 10 25 6 14 -5
15 -9 5 -21 -6 -7 -18 -11 -26 -8 -8 3 -17 -5 -24 -21 -12 -32 -17 -33 -16 -4
1 13 -5 23 -12 23 -15 0 -33 26 -26 37 3 4 7 8 10 8 3 0 2 -5 -2 -12z m310
-23 c3 -8 1 -15 -4 -15 -6 0 -10 7 -10 15 0 8 2 15 4 15 2 0 6 -7 10 -15z
m-67 -10 c0 -8 -4 -12 -9 -9 -5 3 -6 10 -3 15 9 13 12 11 12 -6z m199 -2 c-2
-11 -12 -18 -26 -19 l-24 -1 23 18 c28 23 30 23 27 2z m-672 -151 c2 -4 -5 -9
-17 -9 -17 -2 -19 0 -7 7 18 12 18 12 24 2z m36 -32 c0 -5 -4 -10 -9 -10 -6 0
-13 5 -16 10 -3 6 1 10 9 10 9 0 16 -4 16 -10z m282 -434 c10 -7 15 -15 12
-18 -2 -3 6 -5 20 -5 14 0 42 -14 63 -30 21 -17 47 -35 58 -41 l20 -11 -20 -1
c-24 0 -47 14 -45 26 1 5 -4 10 -11 13 -7 2 -9 -1 -5 -8 4 -6 5 -11 2 -11 -13
0 -100 61 -113 80 -16 23 -7 26 19 6z m253 -176 c3 -5 1 -10 -4 -10 -6 0 -11
5 -11 10 0 6 2 10 4 10 3 0 8 -4 11 -10z m65 -164 c0 -2 -8 -10 -17 -17 -16
-13 -17 -12 -4 4 13 16 21 21 21 13z m-58 -88 c-7 -7 -12 -8 -12 -2 0 14 12
26 19 19 2 -3 -1 -11 -7 -17z m-3853 -2283 c-19 -32 -59 -49 -59 -25 0 7 67
60 77 60 1 0 -7 -16 -18 -35z m-89 -35 c0 -5 -8 -10 -17 -10 -15 0 -16 2 -3
10 19 12 20 12 20 0z m470 -420 c-8 -5 -19 -10 -25 -10 -5 0 -3 5 5 10 8 5 20
10 25 10 6 0 3 -5 -5 -10z m-1250 -690 c-8 -5 -19 -10 -25 -10 -5 0 -3 5 5 10
8 5 20 10 25 10 6 0 3 -5 -5 -10z m285 -29 c-6 -5 -37 -18 -70 -30 -42 -15
-54 -17 -41 -6 11 8 27 15 35 15 9 1 27 7 41 15 28 16 49 20 35 6z m-458 -37
c-3 -3 -12 -4 -19 -1 -8 3 -5 6 6 6 11 1 17 -2 13 -5z m43 -19 c-14 -8 -29
-14 -35 -14 -5 0 1 6 15 14 14 8 30 14 35 14 6 0 -1 -6 -15 -14z m260 -10
c-33 -19 -49 -19 -24 0 10 8 26 14 34 14 9 0 4 -6 -10 -14z m-348 -27 c-24
-11 -60 -22 -80 -24 -36 -5 -36 -4 8 11 25 8 56 19 70 24 45 16 46 10 2 -11z
m298 7 c0 -4 -117 -75 -124 -75 -1 0 -3 7 -3 15 0 8 4 12 8 9 4 -2 9 -1 11 3
3 8 87 51 101 52 4 1 7 -1 7 -4z m-430 -39 c0 -2 -20 -11 -45 -19 -52 -18 -60
-14 -12 7 32 14 57 20 57 12z m218 -41 c-10 -10 -224 -81 -300 -99 -16 -4 -28
-2 -28 3 0 6 17 13 38 16 53 8 126 29 207 59 68 25 94 31 83 21z m-635 -82
c-7 -2 -19 -2 -25 0 -7 3 -2 5 12 5 14 0 19 -2 13 -5z m5977 -72 c0 -5 8 -12
18 -14 10 -3 5 -5 -12 -6 -16 0 -38 -9 -49 -18 -15 -13 -21 -15 -24 -5 -3 6
-9 12 -15 12 -7 0 -6 -5 1 -14 10 -12 8 -18 -12 -30 -18 -12 -23 -24 -22 -50
1 -43 -12 -37 -21 10 -3 19 -17 43 -31 54 l-25 20 27 10 c33 13 45 13 45 0 0
-5 5 -10 11 -10 5 0 8 4 5 8 -8 13 45 37 92 41 6 0 12 -3 12 -8z m-1381 -91
c11 -24 11 -24 -3 -6 -9 11 -16 24 -16 30 0 12 5 7 19 -24z m1231 -43 c-11 -9
-80 -17 -80 -9 0 4 19 9 42 11 23 1 40 0 38 -2z m-1154 -28 c16 -17 16 -22 4
-29 -11 -7 -8 -10 13 -10 16 0 26 4 23 9 -4 5 3 7 15 4 16 -4 17 -8 7 -14 -9
-6 -7 -9 10 -9 34 0 26 -13 -23 -36 -34 -16 -47 -18 -59 -9 -9 7 -13 15 -9 18
3 4 2 7 -3 7 -5 0 -14 -10 -19 -22 -6 -14 -20 -24 -35 -25 -17 -1 -19 0 -6 4
15 4 16 7 5 14 -11 7 -11 9 3 9 9 0 19 4 22 9 8 13 -4 42 -15 35 -5 -3 -9 7
-9 21 0 19 4 24 13 18 16 -10 57 -11 57 -1 0 4 -9 8 -20 8 -11 0 -20 5 -20 10
0 17 26 11 46 -11z m774 -29 c0 -5 -10 -10 -22 -10 -19 0 -20 2 -8 10 19 13
30 13 30 0z m-1302 -72 c-2 -6 -10 -14 -16 -16 -7 -2 -10 2 -6 12 7 18 28 22
22 4z m745 0 c13 1 8 -6 -15 -22 -18 -13 -32 -28 -30 -34 1 -7 -2 -12 -8 -12
-19 0 -10 -16 10 -17 22 -2 60 -33 40 -33 -6 0 -8 -6 -4 -12 4 -7 -5 -2 -19
11 -25 23 -57 24 -57 2 0 -14 -32 -1 -47 18 -7 9 -12 23 -12 31 0 13 1 13 12
-1 16 -21 37 -13 37 15 0 12 6 28 13 35 10 11 9 13 -5 8 -10 -3 -20 -2 -22 2
-10 16 10 23 49 16 22 -4 48 -7 58 -7z m-826 -55 c-20 -20 -40 -34 -44 -29 -4
4 10 23 31 42 51 44 59 36 13 -13z m983 38 c0 -8 -79 -3 -89 5 -2 2 17 4 42 4
26 0 47 -4 47 -9z m-660 -11 c0 -5 -2 -10 -4 -10 -3 0 -8 5 -11 10 -3 6 -1 10
4 10 6 0 11 -4 11 -10z m246 -17 c-10 -10 -19 5 -10 18 6 11 8 11 12 0 2 -7 1
-15 -2 -18z m533 7 c10 -6 10 -8 -3 -13 -10 -4 -15 -3 -11 3 8 13 -8 13 -22
-1 -7 -7 -17 -8 -30 -1 -10 6 -32 8 -48 5 l-30 -4 25 15 c25 14 89 13 119 -4z
m-684 0 c-3 -5 -10 -10 -16 -10 -5 0 -9 5 -9 10 0 6 7 10 16 10 8 0 12 -4 9
-10z m486 0 c11 6 26 10 34 8 8 -2 -8 -10 -34 -19 -47 -16 -50 -16 -54 2 -4
16 -2 17 14 8 13 -7 25 -6 40 1z m-266 -10 c3 -5 2 -10 -4 -10 -5 0 -13 5 -16
10 -3 6 -2 10 4 10 5 0 13 -4 16 -10z m-321 -15 c3 -8 1 -15 -3 -15 -5 0 -11
7 -15 15 -3 8 -1 15 3 15 5 0 11 -7 15 -15z m222 3 c4 -7 3 -8 -5 -4 -6 4 -19
2 -27 -5 -12 -9 -17 -10 -27 0 -9 10 -8 11 4 6 10 -4 20 -2 24 4 8 14 22 14
31 -1z m-96 -12 c-7 -7 -13 -7 -20 0 -6 6 -3 10 10 10 13 0 16 -4 10 -10z
m538 -10 c-7 -8 -15 -12 -17 -11 -5 6 10 25 20 25 5 0 4 -6 -3 -14z m-114 -22
c4 -10 1 -14 -6 -12 -15 5 -23 28 -10 28 5 0 13 -7 16 -16z m183 -16 c-3 -7
-5 -2 -5 12 0 14 2 19 5 13 2 -7 2 -19 0 -25z m183 -3 c-7 -9 -15 -13 -18 -10
-3 2 1 11 8 20 7 9 15 13 18 10 3 -2 -1 -11 -8 -20z m-553 9 c-3 -3 -12 -4
-19 -1 -8 3 -5 6 6 6 11 1 17 -2 13 -5z m-308 -34 c11 0 21 -3 21 -7 0 -5 -15
-8 -32 -7 -27 1 -34 5 -36 25 -2 22 -1 23 11 7 8 -10 24 -18 36 -18z m416 20
c3 -5 -3 -10 -15 -10 -12 0 -18 5 -15 10 3 6 10 10 15 10 5 0 12 -4 15 -10z
m252 -19 c9 -12 12 -12 13 -3 0 7 4 10 10 7 5 -3 18 -1 28 4 29 15 24 -17 -5
-36 -22 -15 -24 -14 -44 11 -11 14 -27 26 -35 26 -8 0 -14 4 -14 10 0 13 32 0
47 -19z m320 15 c8 -7 -4 -36 -16 -36 -5 0 -7 8 -4 19 4 14 0 18 -19 16 -37
-4 -38 -4 -32 -20 4 -9 0 -15 -10 -15 -19 0 -21 21 -4 38 12 12 73 11 85 -2z
m-477 -16 c-20 -13 -33 -13 -25 0 3 6 14 10 23 10 15 0 15 -2 2 -10z m150 -33
c12 -19 11 -21 -2 -10 -8 7 -18 10 -22 6 -7 -7 -26 14 -26 29 0 14 37 -5 50
-25z m376 7 c-4 -9 -9 -15 -11 -12 -3 3 -3 13 1 22 4 9 9 15 11 12 3 -3 3 -13
-1 -22z m54 22 c0 -2 -8 -10 -17 -17 -16 -13 -17 -12 -4 4 13 16 21 21 21 13z
m-325 -16 c-3 -5 -12 -10 -18 -10 -7 0 -6 4 3 10 19 12 23 12 15 0z m-955 -23
c22 -4 21 -5 -4 -4 -17 1 -31 9 -33 17 -3 10 -2 11 4 4 4 -7 19 -14 33 -17z
m240 2 c0 -5 -4 -9 -10 -9 -5 0 -10 7 -10 16 0 8 5 12 10 9 6 -3 10 -10 10
-16z m476 -3 c0 -14 -5 -21 -9 -17 -4 4 -5 15 -1 24 9 24 12 21 10 -7z m27 -7
c-4 -15 -8 -17 -13 -8 -10 15 -1 41 10 34 5 -3 6 -14 3 -26z m564 15 c-3 -3
-12 -4 -19 -1 -8 3 -5 6 6 6 11 1 17 -2 13 -5z m63 -24 c-6 -11 -16 -20 -22
-20 -6 0 -3 9 7 20 10 11 20 20 22 20 2 0 -1 -9 -7 -20z m654 14 c9 -3 16 -12
16 -19 0 -7 20 -23 43 -34 24 -12 49 -32 55 -46 16 -36 0 -31 -53 15 -25 22
-57 43 -71 46 -15 4 -23 12 -20 20 3 7 0 15 -7 18 -18 7 19 7 37 0z m-1194
-27 c0 13 58 14 66 1 3 -4 -3 -8 -13 -9 -10 0 -30 -2 -45 -4 -20 -3 -27 2 -32
18 -5 21 -5 21 9 3 8 -11 15 -15 15 -9z m213 8 c-3 -9 -8 -14 -10 -11 -3 3 -2
9 2 15 9 16 15 13 8 -4z m392 5 c-3 -5 -11 -10 -16 -10 -6 0 -7 5 -4 10 3 6
11 10 16 10 6 0 7 -4 4 -10z m196 -13 c-10 -9 -11 -8 -5 6 3 10 9 15 12 12 3
-3 0 -11 -7 -18z m-845 -24 c-11 -11 -19 6 -11 24 8 17 8 17 12 0 3 -10 2 -21
-1 -24z m-26 9 c0 -5 -13 -7 -30 -4 -16 2 -30 6 -30 8 0 2 14 4 30 4 17 0 30
-4 30 -8z m-437 -9 c-7 -2 -21 -2 -30 0 -10 3 -4 5 12 5 17 0 24 -2 18 -5z
m643 -8 c23 -12 25 -15 11 -21 -9 -3 -24 -4 -32 0 -8 3 -15 1 -15 -3 0 -5 -8
-8 -17 -6 -10 2 -24 4 -30 4 -21 1 -15 21 10 31 31 12 41 12 73 -5z m513 -14
c-6 -2 -18 4 -27 13 -15 15 -15 15 10 4 15 -7 23 -15 17 -17z m222 -4 c-10 -9
-11 -8 -5 6 3 10 9 15 12 12 3 -3 0 -11 -7 -18z m-906 -5 c-3 -3 -11 0 -18 7
-9 10 -8 11 6 5 10 -3 15 -9 12 -12z m525 4 c0 -10 -7 -12 -22 -8 -21 5 -21 6
-2 13 10 4 20 8 22 8 1 1 2 -5 2 -13z m430 -6 c13 -8 13 -10 -2 -10 -9 0 -20
5 -23 10 -8 13 5 13 25 0z m-435 -25 c28 5 28 4 8 -7 -13 -6 -23 -18 -23 -26
0 -11 -8 -13 -37 -8 -21 3 -46 6 -55 6 -12 0 -18 8 -18 25 0 17 4 23 14 19 8
-3 17 -1 20 5 4 6 16 4 34 -5 15 -8 40 -12 57 -9z m605 14 c0 -5 6 -7 13 -3 6
4 8 3 4 -1 -13 -15 -34 -14 -34 1 0 8 4 14 9 14 4 0 8 -5 8 -11z m-1087 -6
c-7 -2 -21 -2 -30 0 -10 3 -4 5 12 5 17 0 24 -2 18 -5z m787 -24 c0 -12 7 -19
20 -19 11 0 20 -6 20 -14 0 -19 -70 -28 -109 -15 -35 12 -36 16 -17 42 13 17
14 16 19 -3 6 -25 27 -27 27 -2 0 21 20 43 32 36 4 -3 8 -14 8 -25z m75 21 c3
-5 1 -10 -4 -10 -6 0 -11 5 -11 10 0 6 2 10 4 10 3 0 8 -4 11 -10z m75 -33
c12 -4 12 -6 -2 -6 -9 -1 -20 4 -23 9 -4 6 -11 8 -16 5 -5 -3 -6 2 -2 11 5 15
8 15 17 2 6 -8 18 -17 26 -21z m110 21 c0 -13 -18 -18 -23 -6 -4 9 -8 10 -14
2 -4 -6 -19 -14 -33 -18 -14 -3 -19 -3 -12 0 6 3 9 11 6 16 -4 6 -2 8 4 4 6
-3 13 -2 17 4 7 11 55 10 55 -2z m-362 -17 c-7 -11 -16 -17 -21 -14 -4 3 0 11
10 19 24 18 25 17 11 -5z m189 -7 c-3 -3 -12 -4 -19 -1 -8 3 -5 6 6 6 11 1 17
-2 13 -5z"/>
<path d="M5687 5809 c7 -7 15 -10 18 -7 3 3 -2 9 -12 12 -14 6 -15 5 -6 -5z"/>
<path d="M5044 715 c-10 -8 -14 -14 -9 -14 6 0 19 6 29 14 11 8 15 15 10 15
-6 0 -19 -7 -30 -15z"/>
<path d="M5179 653 c-13 -16 -12 -17 4 -4 9 7 17 15 17 17 0 8 -8 3 -21 -13z"/>
<path d="M5171 614 c0 -11 3 -14 6 -6 3 7 2 16 -1 19 -3 4 -6 -2 -5 -13z"/>
<path d="M5825 380 c-2 -3 5 -7 16 -7 10 -1 19 2 19 6 0 9 -29 10 -35 1z"/>
<path d="M5901 5831 c-8 -5 -11 -16 -7 -26 5 -14 9 -15 21 -5 16 13 21 40 8
40 -5 0 -14 -4 -22 -9z"/>
<path d="M6223 5784 c0 -9 11 -14 29 -14 15 0 28 2 28 4 0 2 -13 8 -28 14 -23
8 -29 7 -29 -4z"/>
<path d="M5845 5770 c-3 -5 -1 -10 4 -10 6 0 11 5 11 10 0 6 -2 10 -4 10 -3 0
-8 -4 -11 -10z"/>
<path d="M5964 5745 c-3 -7 -18 -15 -35 -19 -21 -4 -29 -11 -29 -26 0 -12 5
-18 10 -15 6 3 10 -3 10 -15 0 -12 -4 -19 -8 -16 -4 2 -8 -6 -8 -20 0 -33 18
-25 22 11 2 15 11 35 21 44 11 10 13 10 5 2 -6 -8 -12 -22 -12 -30 0 -9 6 -7
20 9 18 21 20 21 20 4 0 -10 4 -26 9 -33 6 -10 8 -1 4 26 -3 22 0 49 6 60 9
17 7 22 -10 26 -12 3 -22 0 -25 -8z"/>
<path d="M5602 5724 c-7 -8 -8 -14 -3 -14 10 0 25 19 20 25 -2 1 -10 -3 -17
-11z"/>
<path d="M6013 5713 c1 -17 4 -19 14 -11 7 6 13 16 13 22 0 6 -4 5 -9 -3 -7
-11 -9 -11 -14 0 -3 8 -4 4 -4 -8z"/>
<path d="M6056 5709 c-20 -17 -20 -19 -4 -35 16 -17 19 -17 36 -1 13 12 29 16
53 12 31 -5 28 -1 -11 12 -13 4 -13 6 2 17 14 10 11 12 -19 12 -20 0 -45 -8
-57 -17z m28 -1 c-5 -8 -2 -9 12 -4 16 6 16 4 -4 -14 -28 -26 -51 -16 -26 11
19 21 29 25 18 7z"/>
<path d="M5476 5698 c4 -13 11 -26 17 -29 5 -4 6 -12 2 -18 -4 -7 -1 -19 7
-28 7 -9 12 -18 11 -20 -2 -1 -3 -13 -3 -25 1 -22 2 -21 16 5 8 15 17 27 20
27 2 0 0 -9 -6 -21 -6 -11 -10 -25 -7 -32 2 -7 9 -2 16 11 15 28 8 54 -12 46
-10 -4 -13 3 -12 23 3 42 4 45 15 38 16 -10 12 11 -5 25 -8 6 -19 9 -24 6 -5
-4 -12 -2 -16 4 -12 19 -26 10 -19 -12z m22 -13 c-3 -3 -9 2 -12 12 -6 14 -5
15 5 6 7 -7 10 -15 7 -18z m25 -5 c-3 -12 -8 -19 -11 -16 -5 6 5 36 12 36 2 0
2 -9 -1 -20z"/>
<path d="M5711 5703 c-9 -7 -25 -13 -36 -13 -15 0 -21 -7 -21 -30 -1 -16 0
-30 2 -30 1 0 18 16 37 37 23 23 40 34 51 30 10 -4 13 -12 9 -23 -5 -15 -7
-15 -15 1 -9 15 -11 15 -29 -1 -10 -9 -19 -24 -19 -33 0 -12 6 -9 20 9 l19 25
-4 -25 -4 -25 24 28 c18 20 25 24 26 13 1 -9 2 -21 3 -27 0 -7 10 -15 21 -20
11 -4 16 -8 10 -9 -5 0 -1 -7 9 -15 11 -8 14 -15 8 -15 -7 0 -12 -5 -12 -11 0
-5 5 -7 12 -3 7 4 8 3 4 -4 -4 -6 -13 -9 -20 -6 -7 3 -16 -2 -19 -10 -4 -9
-13 -16 -21 -16 -8 0 -17 -4 -21 -9 -3 -6 6 -7 22 -2 16 4 34 6 42 3 8 -3 11
0 7 6 -3 6 2 13 13 17 27 8 68 -4 75 -22 3 -8 11 -11 17 -7 8 5 6 10 -5 16 -9
5 -14 13 -11 18 3 4 -5 6 -17 2 -14 -3 -19 -1 -14 6 3 6 -2 13 -11 16 -10 3
-6 4 10 2 15 -2 27 1 27 5 0 5 -14 9 -31 9 -17 0 -28 4 -24 10 3 5 -5 15 -19
22 -14 6 -26 15 -26 20 0 18 2 23 11 20 6 -1 18 2 29 8 14 8 18 6 16 -6 -1 -9
-9 -20 -17 -25 -10 -8 -7 -8 11 -3 33 9 34 9 19 36 -7 12 -12 26 -11 31 4 13
-15 7 -42 -14 -29 -23 -47 -18 -41 10 3 15 -2 18 -22 17 -14 0 -33 -6 -42 -13z"/>
<path d="M5313 5695 c-3 -9 -3 -18 -1 -21 3 -3 8 4 11 16 6 23 -1 27 -10 5z"/>
<path d="M5360 5695 c0 -9 -4 -13 -10 -10 -5 3 -10 1 -10 -4 0 -6 6 -11 14
-11 17 0 29 27 16 35 -6 4 -10 -1 -10 -10z"/>
<path d="M5440 5665 c-6 -8 -10 -20 -7 -27 4 -8 8 -4 13 10 5 18 9 20 15 10 7
-10 9 -9 9 5 0 21 -13 22 -30 2z"/>
<path d="M6478 5673 c7 -3 16 -2 19 1 4 3 -2 6 -13 5 -11 0 -14 -3 -6 -6z"/>
<path d="M5571 5653 c0 -12 2 -13 6 -5 4 10 8 10 19 1 18 -15 18 -29 -1 -29
-23 0 -18 -16 10 -28 20 -9 23 -9 18 4 -4 10 0 12 11 8 9 -3 2 10 -16 30 -35
40 -48 45 -47 19z"/>
<path d="M6013 5650 c-2 -19 8 -26 20 -14 7 7 -2 34 -12 34 -4 0 -7 -9 -8 -20z"/>
<path d="M6127 5664 c-8 -8 1 -24 14 -24 5 0 9 7 9 15 0 15 -12 20 -23 9z"/>
<path d="M5383 5645 c0 -8 4 -12 9 -9 5 3 6 10 3 15 -9 13 -12 11 -12 -6z"/>
<path d="M6358 5653 c7 -3 16 -2 19 1 4 3 -2 6 -13 5 -11 0 -14 -3 -6 -6z"/>
<path d="M6438 5653 c17 -7 15 -21 -5 -26 -11 -3 -7 -5 10 -6 25 -1 27 1 17
19 -6 11 -16 20 -23 19 -9 0 -9 -2 1 -6z"/>
<path d="M6497 5634 c-23 -31 -12 -52 14 -28 13 12 29 15 54 11 21 -3 33 -2
30 4 -4 5 -21 9 -40 9 -21 0 -35 5 -37 14 -2 10 -8 7 -21 -10z"/>
<path d="M5345 5630 c-4 -6 -4 -14 -1 -17 3 -4 6 0 6 8 0 12 2 12 10 -1 5 -8
12 -12 15 -9 3 4 -1 12 -9 18 -10 9 -16 9 -21 1z"/>
<path d="M6046 5632 c-2 -4 4 -8 14 -8 10 0 16 4 14 8 -3 4 -9 8 -14 8 -5 0
-11 -4 -14 -8z"/>
<path d="M6156 5618 c3 -5 10 -6 15 -3 13 9 11 12 -6 12 -8 0 -12 -4 -9 -9z"/>
<path d="M6093 5600 c4 -27 13 -34 20 -15 4 8 1 15 -6 15 -8 0 -6 4 3 10 13 8
12 10 -2 10 -12 0 -17 -6 -15 -20z"/>
<path d="M6429 5602 c11 -8 9 -11 -10 -14 -17 -3 -12 -5 17 -9 31 -3 40 -1 37
8 -3 7 -9 13 -13 13 -5 0 -17 3 -27 6 -14 5 -15 4 -4 -4z"/>
<path d="M6548 5603 c7 -3 16 -2 19 1 4 3 -2 6 -13 5 -11 0 -14 -3 -6 -6z"/>
<path d="M5915 5590 c-3 -5 -1 -10 5 -10 6 0 8 -4 5 -10 -3 -6 1 -7 9 -4 9 3
14 10 11 14 -3 5 3 11 12 13 12 3 8 5 -9 6 -15 0 -30 -3 -33 -9z"/>
<path d="M6030 5592 c0 -15 11 -21 27 -15 12 5 12 7 1 14 -17 11 -28 11 -28 1z"/>
<path d="M6145 5589 c-4 -6 -4 -13 -1 -16 3 -4 6 -1 6 6 0 7 5 9 12 5 7 -4 8
-3 4 4 -9 15 -13 15 -21 1z"/>
<path d="M6369 5595 c-3 -2 -37 -5 -77 -7 -39 -1 -67 -5 -61 -9 8 -4 7 -8 -2
-12 -8 -3 -6 -5 6 -5 11 1 31 0 45 -1 l25 -2 -25 -14 -25 -14 29 2 c16 1 31
-4 33 -10 3 -7 -2 -13 -11 -13 -9 0 -16 -7 -16 -16 0 -14 7 -16 44 -11 29 4
46 3 48 -5 3 -8 9 -8 22 -1 21 12 17 15 -39 33 -34 11 -37 14 -20 21 16 6 17
8 3 8 -9 1 -20 5 -23 11 -3 5 0 7 9 4 8 -3 23 -1 33 6 16 10 16 10 -4 5 -13
-3 -31 -2 -40 4 -15 8 -11 10 20 11 20 0 37 5 37 10 0 11 -4 13 -11 5z"/>
<path d="M5652 5573 c2 -12 14 -19 33 -21 17 -2 27 0 23 4 -4 4 -3 13 3 21 16
18 1 17 -18 -2 -8 -8 -19 -12 -25 -9 -6 4 -5 10 3 15 11 7 10 9 -4 9 -12 0
-17 -6 -15 -17z"/>
<path d="M6547 5579 c7 -7 15 -10 18 -7 3 3 -2 9 -12 12 -14 6 -15 5 -6 -5z"/>
<path d="M5995 5560 c-16 -7 -17 -9 -3 -9 9 -1 20 4 23 9 7 11 7 11 -20 0z"/>
<path d="M6397 5556 c-6 -16 1 -26 17 -26 6 0 4 5 -4 11 -11 8 -6 9 20 5 19
-3 28 -3 20 0 -8 4 -22 11 -32 15 -11 6 -18 4 -21 -5z"/>
<path d="M6500 5560 c0 -5 10 -10 23 -10 18 0 19 2 7 10 -19 13 -30 13 -30 0z"/>
<path d="M6605 5560 c-3 -5 -18 -11 -33 -11 -17 -1 -21 -3 -9 -6 9 -2 17 -11
17 -19 0 -8 5 -14 11 -14 6 0 9 7 5 15 -3 8 -2 15 3 15 11 0 32 -26 26 -32 -3
-2 9 -17 25 -33 17 -16 30 -33 30 -39 0 -6 -7 0 -16 12 -8 12 -21 22 -28 22
-8 0 -16 7 -20 15 -3 8 -15 15 -27 15 -21 0 -21 0 2 -18 13 -10 32 -22 42 -25
26 -10 15 -33 -13 -29 -15 3 -20 0 -15 -8 4 -6 17 -9 29 -6 16 4 28 -3 49 -29
18 -23 23 -35 14 -38 -6 -3 -1 -6 13 -6 21 -1 22 -3 10 -12 -12 -8 -9 -9 11
-5 15 3 40 -1 58 -10 18 -9 35 -14 37 -11 3 3 -4 8 -15 12 -12 4 -18 12 -14
21 3 7 0 14 -7 14 -6 0 -8 -5 -4 -11 4 -7 1 -10 -6 -7 -24 8 -22 26 2 31 17 3
15 5 -9 6 -25 1 -31 -3 -27 -14 3 -7 -11 1 -31 20 -27 26 -35 40 -30 55 5 17
10 19 21 9 11 -9 14 -8 14 2 0 11 3 11 11 -1 9 -13 10 -13 6 0 -2 8 -10 14
-16 13 -6 -2 -12 2 -12 7 -1 6 -2 16 -3 23 -1 6 -7 11 -13 10 -6 -1 -21 10
-34 24 -13 14 -18 23 -10 18 10 -5 12 -4 7 4 -4 6 -12 9 -17 6 -5 -4 -14 -3
-20 1 -8 4 -7 9 2 15 10 6 10 9 2 9 -6 0 -15 -4 -18 -10z m65 -75 c13 -14 21
-25 18 -25 -2 0 -15 11 -28 25 -13 14 -21 25 -18 25 2 0 15 -11 28 -25z"/>
<path d="M6036 5545 c4 -8 10 -15 15 -15 4 0 6 7 3 15 -4 8 -10 15 -15 15 -4
0 -6 -7 -3 -15z"/>
<path d="M6104 5549 c-9 -15 18 -21 32 -7 12 12 11 14 -7 14 -11 0 -22 -4 -25
-7z"/>
<path d="M6230 5550 c-13 -8 -13 -10 2 -10 9 0 20 5 23 10 8 13 -5 13 -25 0z"/>
<path d="M5362 5528 c-7 -7 -12 -17 -12 -23 0 -17 28 -14 35 3 8 21 -8 35 -23
20z"/>
<path d="M5599 5538 c-6 -20 -8 -46 -4 -56 4 -10 9 -10 24 0 21 13 17 38 -6
38 -8 0 -11 5 -8 10 3 6 4 10 1 10 -3 0 -6 -1 -7 -2z"/>
<path d="M5988 5533 c7 -3 16 -2 19 1 4 3 -2 6 -13 5 -11 0 -14 -3 -6 -6z"/>
<path d="M5250 5521 c0 -5 5 -13 10 -16 6 -3 10 -2 10 4 0 5 -4 13 -10 16 -5
3 -10 2 -10 -4z"/>
<path d="M5327 5515 c-4 -8 -2 -17 3 -20 6 -4 10 3 10 14 0 25 -6 27 -13 6z"/>
<path d="M6448 5523 c7 -3 16 -2 19 1 4 3 -2 6 -13 5 -11 0 -14 -3 -6 -6z"/>
<path d="M6670 5515 c7 -8 17 -12 22 -9 6 4 5 10 -3 15 -22 14 -33 10 -19 -6z"/>
<path d="M6240 5510 c-18 -12 -2 -12 25 0 13 6 15 9 5 9 -8 0 -22 -4 -30 -9z"/>
<path d="M5440 5489 c-6 -11 -10 -25 -8 -30 2 -5 8 4 15 21 13 34 9 40 -7 9z"/>
<path d="M5680 5501 c0 -6 4 -13 10 -16 6 -3 7 1 4 9 -7 18 -14 21 -14 7z"/>
<path d="M5913 5486 c-4 -7 -15 -16 -23 -19 -10 -3 -6 -6 10 -7 23 -1 23 -2 5
-10 -13 -5 -14 -9 -5 -9 8 0 24 4 35 9 19 8 19 9 1 9 -13 1 -17 6 -13 21 6 23
2 26 -10 6z"/>
<path d="M6443 5476 c-9 -11 -8 -15 9 -19 12 -4 17 -10 13 -17 -6 -9 -9 -9
-15 -1 -4 7 -15 9 -25 5 -14 -6 -17 -4 -13 7 5 12 -1 14 -26 10 -31 -4 -31 -5
-6 -13 21 -6 20 -7 -5 -2 -46 8 -103 14 -80 8 42 -12 32 -19 -23 -17 -57 1
-57 1 -12 -6 36 -6 39 -8 15 -10 -22 -1 -26 -4 -16 -10 12 -8 10 -12 -11 -21
-14 -7 -35 -29 -47 -50 -11 -20 -28 -43 -36 -50 -8 -7 -12 -16 -9 -21 3 -5 -3
-9 -12 -9 -17 0 -17 -1 0 -13 17 -13 16 -16 -13 -72 -22 -41 -28 -61 -20 -66
21 -12 1 -39 -28 -39 -19 0 -24 3 -15 9 10 6 10 10 -1 19 -12 10 -14 6 -10
-23 l4 -36 -28 17 -28 16 25 -22 c19 -17 33 -21 58 -16 28 4 35 1 44 -20 6
-13 15 -24 20 -24 4 0 8 -5 8 -12 0 -9 -3 -9 -12 0 -19 19 -38 14 -38 -9 0
-13 -4 -18 -12 -13 -7 4 -8 3 -4 -5 17 -27 70 -42 168 -47 57 -3 108 -7 115
-9 19 -6 26 14 11 32 -11 15 -10 16 10 11 17 -5 32 2 60 28 20 19 42 34 49 34
7 0 11 6 8 13 -2 6 10 23 28 37 18 14 26 17 18 7 -18 -23 1 -49 22 -28 10 10
8 11 -8 5 -18 -7 -18 -6 -7 9 8 9 11 20 8 25 -3 6 1 15 9 22 8 7 15 18 15 24
-1 6 -6 5 -13 -4 -7 -8 -20 -21 -30 -29 -17 -13 -18 -12 -11 15 6 27 47 92 67
105 5 4 4 9 -2 13 -17 11 -14 49 3 43 8 -3 17 1 20 9 8 21 8 24 -5 24 -5 0 -7
-4 -4 -10 9 -15 -8 -12 -34 6 -18 13 -20 18 -10 25 10 6 9 10 -6 15 -25 10
-44 34 -45 57 0 15 -4 18 -25 17 -16 -1 -32 27 -24 42 6 11 4 22 -7 32 -18 19
-16 19 -31 2z m-24 -66 c19 -5 46 -21 61 -35 36 -35 95 -158 86 -181 -6 -16
-8 -16 -16 -4 -8 13 -10 13 -10 -1 0 -36 -32 -118 -54 -142 -14 -15 -22 -27
-18 -27 4 0 -11 -12 -31 -26 -21 -14 -41 -23 -44 -20 -4 3 -1 6 5 6 7 0 12 7
12 15 0 8 -8 15 -19 15 -10 0 -34 3 -52 6 -26 4 -30 3 -19 -5 12 -9 13 -11 1
-11 -21 0 -5 -13 32 -26 l32 -11 -40 -7 c-22 -4 -51 -12 -63 -17 -20 -8 -31
-3 -73 32 -27 22 -49 47 -49 54 0 7 -7 18 -15 25 -11 9 -12 17 -4 31 6 12 6
26 1 37 -11 20 -5 42 11 42 11 0 37 64 37 91 0 30 68 113 115 140 55 32 65 33
114 19z m-322 -356 c-3 -3 -12 -4 -19 -1 -8 3 -5 6 6 6 11 1 17 -2 13 -5z m78
-122 c-2 -2 -13 -1 -26 3 -16 5 -18 9 -9 15 11 7 43 -10 35 -18z m30 8 c10
-11 14 -20 9 -20 -5 0 -17 9 -27 20 -9 11 -13 20 -8 20 4 0 16 -9 26 -20z
m168 -27 c-7 -2 -19 -2 -25 0 -7 3 -2 5 12 5 14 0 19 -2 13 -5z"/>
<path d="M6348 5319 c-43 -22 -73 -62 -62 -80 4 -8 3 -9 -4 -5 -16 10 -26 -37
-18 -92 7 -53 52 -107 96 -117 62 -14 123 40 141 123 16 78 5 135 -32 167 -36
30 -71 31 -121 4z m80 -62 c25 -58 28 -97 11 -130 -12 -22 -12 -22 10 -3 35
32 25 -2 -13 -40 -43 -43 -69 -43 -113 1 -30 30 -33 38 -23 51 10 11 10 18 2
26 -20 20 -14 48 9 48 18 0 20 4 14 30 -6 26 -2 32 27 50 18 11 38 20 43 20 6
0 20 -24 33 -53z"/>
<path d="M5749 5471 c11 -7 11 -9 0 -14 -10 -4 -9 -6 4 -6 9 -1 17 6 17 14 0
8 -8 15 -17 15 -14 0 -15 -2 -4 -9z"/>
<path d="M5940 5476 c0 -2 9 -6 20 -9 11 -3 18 -1 14 4 -5 9 -34 13 -34 5z"/>
<path d="M6218 5463 c7 -3 16 -2 19 1 4 3 -2 6 -13 5 -11 0 -14 -3 -6 -6z"/>
<path d="M6600 5446 c0 -2 9 -6 20 -9 11 -3 20 -1 20 4 0 5 -9 9 -20 9 -11 0
-20 -2 -20 -4z"/>
<path d="M5648 5423 c7 -3 16 -2 19 1 4 3 -2 6 -13 5 -11 0 -14 -3 -6 -6z"/>
<path d="M5135 5400 c-7 -11 22 -26 32 -16 4 3 -2 6 -13 6 -16 0 -17 2 -4 10
9 6 10 10 3 10 -6 0 -15 -5 -18 -10z"/>
<path d="M6178 5403 c7 -3 16 -2 19 1 4 3 -2 6 -13 5 -11 0 -14 -3 -6 -6z"/>
<path d="M6555 5380 c3 -5 14 -10 23 -10 15 0 15 2 2 10 -20 13 -33 13 -25 0z"/>
<path d="M6000 5371 c13 -10 99 -16 89 -7 -2 2 -26 6 -54 10 -36 5 -46 4 -35
-3z"/>
<path d="M6610 5360 c20 -13 33 -13 25 0 -3 6 -14 10 -23 10 -15 0 -15 -2 -2
-10z"/>
<path d="M6030 5340 c21 -7 22 -8 5 -9 -16 -1 -17 -3 -6 -10 11 -7 10 -10 -5
-15 -10 -3 -3 -4 16 -2 25 2 39 -2 50 -17 15 -18 17 -19 23 -3 4 11 1 19 -11
23 -23 9 -42 29 -35 37 4 3 -9 6 -28 5 -32 -1 -32 -2 -9 -9z"/>
<path d="M6627 5334 c-13 -13 -7 -23 23 -39 40 -21 50 -19 21 4 l-25 19 30 -5
c20 -4 26 -2 19 5 -13 14 -59 25 -68 16z"/>
<path d="M5768 5298 c5 -5 16 -8 23 -6 8 3 3 7 -10 11 -17 4 -21 3 -13 -5z"/>
<path d="M6760 5290 c8 -5 20 -10 25 -10 6 0 3 5 -5 10 -8 5 -19 10 -25 10 -5
0 -3 -5 5 -10z"/>
<path d="M5960 5280 c-9 -6 -10 -10 -3 -10 6 0 15 5 18 10 8 12 4 12 -15 0z"/>
<path d="M6732 5273 c-18 -7 16 -32 43 -33 17 0 17 2 5 10 -13 9 -13 10 0 10
13 0 13 1 0 10 -16 11 -28 11 -48 3z"/>
<path d="M5765 5250 c5 -8 19 -23 32 -33 23 -18 33 -44 12 -31 -8 4 -8 0 0
-15 14 -25 26 -28 17 -5 -5 14 -4 15 9 4 25 -21 25 -7 1 20 -33 37 -81 77 -71
60z"/>
<path d="M6060 5256 c0 -2 7 -6 15 -10 8 -3 15 -1 15 4 0 6 -7 10 -15 10 -8 0
-15 -2 -15 -4z"/>
<path d="M6090 5219 c-22 -18 -22 -19 -3 -10 12 6 25 16 28 21 9 15 3 12 -25
-11z"/>
<path d="M6827 5233 c-10 -9 -9 -23 1 -23 5 0 9 7 9 15 0 17 -1 18 -10 8z"/>
<path d="M6015 5212 c-20 -15 -12 -27 18 -29 31 -2 31 -2 9 10 -12 7 -19 16
-16 20 10 9 2 9 -11 -1z"/>
<path d="M6804 5172 c3 -5 0 -13 -6 -15 -9 -4 -10 -6 -1 -6 17 -1 25 16 12 25
-7 4 -9 3 -5 -4z"/>
<path d="M5961 5158 c0 -9 4 -20 10 -23 6 -4 8 -13 5 -21 -10 -25 2 -15 17 15
14 29 13 41 -5 41 -5 0 -7 -4 -3 -9 3 -5 1 -12 -4 -15 -5 -4 -12 2 -14 11 -4
16 -5 16 -6 1z"/>
<path d="M5440 5143 c-49 -33 -51 -39 -26 -62 24 -23 51 -27 61 -10 4 6 17 14
29 19 l21 9 -22 0 c-12 1 -23 7 -26 14 -3 8 -9 7 -19 -6 -14 -18 -54 -14 -42
4 3 5 10 7 15 3 6 -3 16 2 23 12 8 11 20 15 30 11 12 -5 16 -3 14 5 -7 20 -31
20 -58 1z"/>
<path d="M6005 5130 c3 -5 8 -10 11 -10 2 0 4 5 4 10 0 6 -5 10 -11 10 -5 0
-7 -4 -4 -10z"/>
<path d="M6747 5129 c7 -7 15 -10 18 -7 3 3 -2 9 -12 12 -14 6 -15 5 -6 -5z"/>
<path d="M5918 5099 c-6 -4 -15 -6 -19 -3 -4 2 -11 -1 -15 -7 -4 -7 -3 -9 4
-5 6 3 13 2 17 -4 4 -6 11 -8 16 -4 5 3 16 1 24 -6 8 -7 15 -7 19 -1 4 5 2 12
-4 16 -6 4 -8 10 -6 14 7 10 -20 10 -36 0z m33 -16 c13 -16 12 -17 -3 -4 -10
7 -18 15 -18 17 0 8 8 3 21 -13z"/>
<path d="M6875 5080 c17 -4 39 -11 50 -14 13 -5 12 -2 -5 8 -14 8 -36 15 -50
15 -23 -1 -22 -2 5 -9z"/>
<path d="M5340 5065 c0 -9 -6 -18 -14 -21 -23 -9 -68 -174 -47 -174 5 0 12 14
16 30 4 17 11 30 16 30 13 0 11 -14 -3 -28 -6 -6 -9 -14 -6 -17 9 -10 48 37
48 57 0 9 9 32 20 50 28 47 26 70 -4 36 -24 -27 -46 -27 -24 -1 14 17 18 53 6
53 -4 0 -8 -7 -8 -15z m0 -89 c0 -7 -6 -18 -13 -24 -10 -8 -13 -5 -15 14 -1
15 3 24 13 24 8 0 15 -6 15 -14z"/>
<path d="M6782 5060 c14 -22 24 -19 15 5 -4 8 -11 15 -17 15 -6 0 -6 -7 2 -20z"/>
<path d="M6668 5014 c-16 -8 -28 -16 -28 -17 0 -1 12 -3 28 -3 15 -1 21 1 14
3 -10 4 -8 9 5 19 24 18 15 17 -19 -2z"/>
<path d="M6870 5020 c8 -5 24 -10 35 -10 15 0 17 -3 7 -9 -11 -6 -10 -10 4
-15 9 -3 19 -4 22 -1 3 3 0 5 -7 5 -7 0 -9 5 -6 10 3 6 -6 15 -20 20 -34 13
-55 13 -35 0z"/>
<path d="M6966 5014 c10 -8 12 -12 4 -8 -13 7 -13 6 0 -10 9 -12 16 -14 18 -7
3 9 8 8 20 -1 10 -7 6 0 -7 15 -14 15 -31 27 -40 27 -11 0 -10 -4 5 -16z"/>
<path d="M6024 5011 c8 -12 -19 -33 -29 -23 -5 4 -5 1 -1 -6 6 -11 12 -10 27
4 16 14 18 34 3 34 -3 0 -3 -4 0 -9z"/>
<path d="M6084 4990 c0 -13 4 -16 10 -10 7 7 7 13 0 20 -6 6 -10 3 -10 -10z"/>
<path d="M6891 4977 c2 -1 13 -9 24 -17 19 -14 19 -14 6 3 -7 9 -18 17 -24 17
-6 0 -8 -1 -6 -3z"/>
<path d="M6870 4960 c12 -8 12 -10 1 -10 -8 0 -12 -2 -9 -5 3 -3 13 -2 22 1
14 5 15 9 4 15 -7 5 -17 9 -23 9 -5 0 -3 -5 5 -10z"/>
<path d="M6560 4950 c-9 -6 -10 -10 -3 -10 6 0 15 5 18 10 8 12 4 12 -15 0z"/>
<path d="M6697 4954 c-8 -8 1 -24 12 -24 4 0 8 7 8 15 0 16 -9 20 -20 9z"/>
<path d="M6755 4950 c3 -5 13 -10 21 -10 8 0 12 5 9 10 -3 6 -13 10 -21 10 -8
0 -12 -4 -9 -10z"/>
<path d="M6955 4890 c3 -5 8 -10 11 -10 2 0 4 5 4 10 0 6 -5 10 -11 10 -5 0
-7 -4 -4 -10z"/>
<path d="M7040 4896 c0 -2 8 -10 18 -17 15 -13 16 -12 3 4 -13 16 -21 21 -21
13z"/>
<path d="M6697 4881 l-28 -6 35 -11 c19 -6 41 -7 48 -3 9 6 5 9 -12 10 -23 0
-23 1 -5 9 23 10 4 11 -38 1z"/>
<path d="M5740 4866 c0 -9 14 -29 30 -46 17 -17 30 -36 30 -42 0 -7 5 -6 15 2
8 7 15 18 15 24 0 15 -35 49 -67 65 -19 10 -23 9 -23 -3z"/>
<path d="M6996 4855 c4 -8 11 -15 16 -15 6 0 5 6 -2 15 -7 8 -14 15 -16 15 -2
0 -1 -7 2 -15z"/>
<path d="M6040 4851 c0 -5 5 -13 10 -16 6 -3 10 -2 10 4 0 5 -4 13 -10 16 -5
3 -10 2 -10 -4z"/>
<path d="M6955 4850 c-4 -7 -2 -17 5 -23 10 -10 12 -8 6 7 -6 17 -5 17 10 5
15 -12 17 -12 13 0 -7 19 -25 25 -34 11z"/>
<path d="M6705 4840 c11 -5 27 -9 35 -9 9 0 8 4 -5 9 -11 5 -27 9 -35 9 -9 0
-8 -4 5 -9z"/>
<path d="M6830 4830 c19 -4 31 -8 25 -9 -5 -1 -2 -8 8 -16 11 -7 25 -11 32 -9
7 3 23 -9 35 -25 21 -31 18 -39 -10 -21 -8 5 -10 10 -5 10 11 0 -16 20 -27 20
-22 0 -4 -29 23 -39 17 -6 28 -15 24 -21 -3 -6 0 -7 10 -4 9 4 13 9 11 12 -3
3 2 11 11 17 15 11 15 15 4 29 -8 9 -16 14 -19 12 -2 -3 -16 4 -30 15 -15 11
-34 17 -46 14 -12 -3 -15 -2 -8 1 23 10 1 24 -36 23 l-37 -2 35 -7z m134 -66
c3 -8 2 -12 -4 -9 -6 3 -10 10 -10 16 0 14 7 11 14 -7z"/>
<path d="M6017 4813 c-4 -3 -7 -16 -6 -27 0 -19 1 -19 10 3 10 24 8 36 -4 24z"/>
<path d="M6050 4803 c0 -12 5 -25 10 -28 13 -8 13 15 0 35 -8 12 -10 11 -10
-7z"/>
<path d="M6798 4813 c7 -3 16 -2 19 1 4 3 -2 6 -13 5 -11 0 -14 -3 -6 -6z"/>
<path d="M7008 4802 c-4 -12 1 -18 13 -19 16 -2 17 2 9 18 -13 24 -16 24 -22
1z"/>
<path d="M6757 4785 c-3 -5 10 -11 27 -11 18 -1 23 1 11 4 l-20 5 20 8 c17 6
16 7 -7 6 -15 -1 -29 -6 -31 -12z"/>
<path d="M6816 4748 c-17 -24 -13 -38 10 -38 11 0 13 -6 9 -20 -4 -12 -2 -20
5 -20 6 0 8 5 5 10 -3 6 0 10 7 10 8 1 4 9 -10 19 -13 12 -18 21 -10 23 13 5
20 38 8 38 -5 0 -16 -10 -24 -22z"/>
<path d="M7017 4709 c-3 -13 -2 -28 4 -35 7 -8 7 -14 -1 -19 -5 -3 -10 -1 -10
4 0 6 -5 11 -12 11 -8 0 -6 -7 5 -17 15 -16 19 -16 27 -3 7 12 12 11 32 -5 23
-20 23 -20 6 0 -9 11 -23 36 -31 54 -13 31 -14 32 -20 10z"/>
<path d="M5956 4705 c-9 -26 -7 -32 5 -12 6 10 9 21 6 23 -2 3 -7 -2 -11 -11z"/>
<path d="M6031 4704 c0 -11 3 -14 6 -6 3 7 2 16 -1 19 -3 4 -6 -2 -5 -13z"/>
<path d="M6939 4691 c10 -7 6 -14 -18 -32 -23 -17 -28 -26 -20 -36 8 -9 7 -14
-5 -19 -13 -5 -12 -9 7 -25 20 -16 23 -17 34 -2 7 9 9 21 5 27 -10 16 -10 29
1 44 5 6 6 12 2 12 -4 0 -2 6 4 13 11 14 5 27 -13 27 -6 0 -5 -4 3 -9z m-14
-69 c-3 -3 -11 0 -18 7 -9 10 -8 11 6 5 10 -3 15 -9 12 -12z m7 -30 c-7 -2 -9
-9 -5 -15 4 -7 -1 -6 -10 2 -20 16 -13 33 10 24 11 -4 13 -8 5 -11z"/>
<path d="M6780 4675 c17 -23 52 -54 62 -55 3 0 5 8 4 18 -2 9 -9 17 -17 17 -8
1 -13 7 -11 14 2 8 -3 11 -11 8 -8 -3 -21 0 -28 6 -8 8 -8 5 1 -8z"/>
<path d="M6837 4568 c15 -17 15 -19 0 -31 -15 -11 -14 -14 3 -36 11 -13 20
-19 20 -13 0 5 -7 15 -15 22 -9 7 -13 15 -10 18 3 3 16 -5 30 -18 l24 -23 -4
23 c-2 13 -14 33 -26 46 -20 21 -20 22 -2 27 10 3 7 4 -9 4 -26 -1 -26 -2 -11
-19z m34 -45 c13 -16 12 -17 -3 -4 -10 7 -18 15 -18 17 0 8 8 3 21 -13z"/>
<path d="M5810 4540 c-8 -15 -8 -20 2 -20 7 0 1 -10 -14 -23 -29 -24 -53 -65
-44 -75 4 -3 -3 -15 -14 -27 -16 -17 -17 -22 -6 -22 8 0 13 4 10 9 -8 12 10
10 26 -4 12 -11 12 -10 2 2 -8 12 -8 25 1 52 14 39 37 72 45 63 3 -2 13 5 23
17 21 23 26 39 7 20 -18 -18 -31 -14 -25 8 3 11 3 20 1 20 -2 0 -8 -9 -14 -20z"/>
<path d="M6673 4544 c0 -6 7 -11 16 -9 9 1 23 -3 31 -9 10 -7 9 -3 -3 10 -19
23 -44 28 -44 8z"/>
<path d="M6610 4546 c0 -2 8 -10 18 -17 15 -13 16 -12 3 4 -13 16 -21 21 -21
13z"/>
<path d="M6955 4536 c-13 -14 -16 -48 -4 -40 5 3 9 12 9 21 0 13 5 12 27 -8
14 -13 23 -18 19 -11 -4 7 -2 12 5 12 8 0 6 6 -4 18 -19 21 -38 24 -52 8z m43
-21 c-3 -3 -9 2 -12 12 -6 14 -5 15 5 6 7 -7 10 -15 7 -18z"/>
<path d="M6800 4516 c0 -2 8 -10 18 -17 15 -13 16 -12 3 4 -13 16 -21 21 -21
13z"/>
<path d="M6762 4484 c-11 -12 -10 -15 3 -20 8 -4 26 -25 40 -48 14 -22 25 -37
25 -33 0 14 -28 63 -44 76 -8 7 -12 19 -9 27 7 18 2 17 -15 -2z"/>
<path d="M6417 4479 c7 -7 15 -10 18 -7 3 3 -2 9 -12 12 -14 6 -15 5 -6 -5z"/>
<path d="M6490 4470 c8 -5 22 -9 30 -9 10 0 8 3 -5 9 -27 12 -43 12 -25 0z"/>
<path d="M5604 4435 c-17 -23 -35 -35 -53 -36 -22 -2 -23 -2 -4 -6 30 -6 60
12 78 47 21 40 12 38 -21 -5z"/>
<path d="M6880 4441 c0 -7 -5 -9 -12 -5 -7 5 -8 3 -3 -5 5 -9 10 -10 18 -2 6
6 8 14 4 18 -4 3 -7 1 -7 -6z"/>
<path d="M6840 4421 c0 -6 4 -13 10 -16 6 -3 7 1 4 9 -7 18 -14 21 -14 7z"/>
<path d="M6416 4405 c5 -12 2 -14 -12 -8 -17 6 -18 5 -4 -11 9 -12 16 -14 18
-7 3 9 8 8 20 -1 12 -10 12 -7 -2 15 -20 30 -29 35 -20 12z"/>
<path d="M6645 4400 c-3 -6 1 -7 9 -4 18 7 21 14 7 14 -6 0 -13 -4 -16 -10z"/>
<path d="M6870 4403 c0 -6 8 -21 19 -34 10 -13 21 -33 23 -44 3 -11 5 -1 5 22
1 27 -5 47 -15 55 -14 11 -15 10 -9 -7 7 -20 7 -20 -8 -1 -8 11 -15 15 -15 9z"/>
<path d="M6967 4387 c-3 -8 -2 -20 3 -26 5 -9 8 -4 8 13 0 29 -3 32 -11 13z"/>
<path d="M5485 4372 c-11 -11 -4 -22 13 -22 14 0 15 -2 2 -10 -8 -5 -10 -10
-4 -10 13 0 44 32 44 46 0 5 -5 2 -10 -6 -5 -8 -10 -10 -10 -4 0 11 -26 15
-35 6z"/>
<path d="M6635 4360 c3 -5 14 -10 23 -10 15 0 15 2 2 10 -20 13 -33 13 -25 0z"/>
<path d="M5756 4338 c-6 -10 -17 -18 -25 -18 -11 0 -11 -3 -1 -15 11 -13 10
-14 -6 -9 -18 6 -18 6 0 -8 19 -15 19 -16 -12 -23 -18 -3 -32 -10 -32 -15 0
-5 22 0 48 11 27 11 49 27 49 35 0 9 -6 13 -16 9 -9 -3 -1 7 18 22 31 26 32
29 11 29 -12 0 -28 -8 -34 -18z"/>
<path d="M6880 4341 c0 -5 5 -13 10 -16 6 -3 10 -2 10 4 0 5 -4 13 -10 16 -5
3 -10 2 -10 -4z"/>
<path d="M6467 4317 c-3 -7 3 -13 14 -13 22 0 25 12 5 19 -8 3 -16 0 -19 -6z"/>
<path d="M5440 4309 c0 -5 5 -7 10 -4 6 3 10 8 10 11 0 2 -4 4 -10 4 -5 0 -10
-5 -10 -11z"/>
<path d="M6995 4310 c3 -5 8 -10 11 -10 2 0 4 5 4 10 0 6 -5 10 -11 10 -5 0
-7 -4 -4 -10z"/>
<path d="M5425 4280 c-4 -6 -10 -8 -14 -5 -5 2 -20 -12 -35 -33 -20 -29 -25
-46 -20 -69 7 -38 -16 -51 -42 -22 -16 18 -16 19 2 19 16 0 16 2 4 10 -9 6
-17 5 -21 -2 -4 -7 -9 -6 -13 3 -3 8 -3 3 0 -11 7 -30 51 -90 65 -90 6 0 8 -4
5 -9 -4 -5 5 -6 21 -2 24 6 29 14 36 60 7 43 11 50 23 40 8 -6 14 -16 14 -22
0 -17 63 -137 72 -137 4 0 8 2 8 5 0 10 -26 62 -45 90 -11 17 -27 51 -36 76
l-16 46 56 -23 c31 -13 67 -24 81 -24 23 0 0 12 -117 60 -25 10 -30 26 -11 32
9 3 9 6 1 11 -7 4 -14 3 -18 -3z m-28 -82 c-3 -8 -6 -5 -6 6 -1 11 2 17 5 13
3 -3 4 -12 1 -19z m-7 -78 c0 -13 -6 -20 -17 -19 -11 0 -13 3 -5 6 6 2 12 11
12 19 0 8 2 14 5 14 3 0 5 -9 5 -20z"/>
<path d="M5665 4280 c-3 -6 1 -7 9 -4 18 7 21 14 7 14 -6 0 -13 -4 -16 -10z"/>
<path d="M5820 4268 c0 -11 -14 -24 -35 -32 -19 -8 -35 -20 -35 -25 0 -6 -10
-15 -21 -22 -17 -9 -23 -8 -30 2 -4 8 -4 16 1 19 6 3 -7 7 -28 7 -35 1 -36 1
-12 -10 28 -13 40 -40 13 -30 -10 4 -14 2 -10 -4 4 -6 -1 -14 -10 -17 -11 -5
-13 -10 -6 -17 11 -11 46 -1 38 11 -3 4 10 14 27 21 18 7 40 21 50 31 20 20
38 24 38 8 0 -18 29 -11 40 10 6 11 7 20 3 20 -4 0 3 9 17 20 25 20 18 28 -10
10 -9 -6 -17 -5 -22 3 -5 8 -8 6 -8 -5z m2 -50 c-7 -7 -12 -8 -12 -2 0 14 12
26 19 19 2 -3 -1 -11 -7 -17z"/>
<path d="M6580 4246 c0 -2 8 -10 18 -17 15 -13 16 -12 3 4 -13 16 -21 21 -21
13z"/>
<path d="M6560 4212 c0 -11 27 -42 37 -42 3 0 -2 10 -13 23 -10 12 -20 24 -21
26 -2 2 -3 -1 -3 -7z"/>
<path d="M6710 4215 c0 -2 10 -10 23 -16 20 -11 21 -11 8 4 -13 16 -31 23 -31
12z"/>
<path d="M6201 4194 c0 -11 3 -14 6 -6 3 7 2 16 -1 19 -3 4 -6 -2 -5 -13z"/>
<path d="M6542 4180 c19 -26 38 -39 38 -26 0 8 -47 56 -54 56 -4 0 3 -13 16
-30z"/>
<path d="M6635 4190 c3 -5 11 -10 16 -10 6 0 7 5 4 10 -3 6 -11 10 -16 10 -6
0 -7 -4 -4 -10z"/>
<path d="M6904 4161 c0 -10 6 -18 13 -18 7 0 13 4 13 7 0 4 -6 12 -13 18 -10
8 -13 6 -13 -7z"/>
<path d="M5740 4159 c-13 -7 -13 -9 -1 -9 18 0 8 -11 -13 -14 -8 -1 -25 -15
-37 -30 l-22 -28 30 16 c33 16 50 11 32 -11 -9 -9 -8 -13 0 -13 11 0 12 4 15
38 0 11 7 26 14 35 15 18 2 30 -18 16z"/>
<path d="M5210 4145 c0 -5 5 -17 10 -25 5 -8 10 -10 10 -5 0 6 -5 17 -10 25
-5 8 -10 11 -10 5z"/>
<path d="M5931 4134 c0 -11 3 -14 6 -6 3 7 2 16 -1 19 -3 4 -6 -2 -5 -13z"/>
<path d="M6825 4120 c3 -5 8 -10 11 -10 2 0 4 5 4 10 0 6 -5 10 -11 10 -5 0
-7 -4 -4 -10z"/>
<path d="M6396 4112 c-3 -5 3 -17 13 -27 17 -15 19 -15 17 -1 -3 22 -22 40
-30 28z"/>
<path d="M6540 4085 c13 -14 25 -25 27 -25 9 0 -33 49 -41 50 -5 0 1 -11 14
-25z"/>
<path d="M5161 4064 c0 -11 3 -14 6 -6 3 7 2 16 -1 19 -3 4 -6 -2 -5 -13z"/>
<path d="M5182 4055 c0 -16 2 -22 5 -12 2 9 2 23 0 30 -3 6 -5 -1 -5 -18z"/>
<path d="M5736 4065 c-11 -8 -16 -18 -12 -22 3 -4 16 3 29 15 24 25 12 29 -17
7z"/>
<path d="M6380 4076 c0 -2 8 -10 18 -17 15 -13 16 -12 3 4 -13 16 -21 21 -21
13z"/>
<path d="M6466 4055 c5 -11 1 -14 -12 -9 -17 5 -17 5 -2 -6 10 -6 15 -17 11
-28 -4 -13 -2 -13 10 3 11 14 12 25 6 37 -12 22 -21 24 -13 3z"/>
<path d="M6613 4044 c0 -7 5 -10 10 -7 6 4 8 0 5 -8 -4 -10 1 -15 13 -16 16
-2 17 1 6 17 -15 25 -34 32 -34 14z"/>
<path d="M4974 4035 c-10 -8 -14 -15 -7 -15 19 0 43 11 43 21 0 13 -14 11 -36
-6z"/>
<path d="M6765 4029 c1 -13 8 -23 14 -21 6 1 11 -4 11 -10 0 -20 20 14 20 35
0 9 -5 17 -11 17 -6 0 -8 -9 -3 -22 7 -23 6 -23 -13 1 l-20 24 2 -24z"/>
<path d="M5231 4024 c0 -11 3 -14 6 -6 3 7 2 16 -1 19 -3 4 -6 -2 -5 -13z"/>
<path d="M6696 4027 c3 -10 9 -15 12 -12 3 3 0 11 -7 18 -10 9 -11 8 -5 -6z"/>
<path d="M4820 4015 c-14 -7 -37 -19 -52 -26 -16 -7 -27 -14 -25 -15 7 -8 79
21 94 38 19 21 17 21 -17 3z"/>
<path d="M5774 4004 c0 -25 10 -32 21 -14 3 6 1 10 -5 10 -6 0 -9 4 -5 9 3 5
2 12 -3 15 -4 2 -8 -6 -8 -20z"/>
<path d="M5108 3993 c-8 -10 -19 -25 -23 -33 -8 -13 -7 -13 9 -1 16 14 41 51
33 51 -2 0 -11 -8 -19 -17z"/>
<path d="M4945 3970 c-3 -5 3 -10 15 -10 12 0 19 -4 15 -9 -11 -19 13 -20 29
-2 15 17 16 19 1 25 -25 9 -53 7 -60 -4z"/>
<path d="M4677 3944 c-16 -9 -27 -18 -24 -21 3 -2 22 5 44 16 21 11 31 20 23
20 -8 0 -28 -7 -43 -15z"/>
<path d="M5771 3938 c-14 -23 -14 -23 8 -4 22 20 25 26 13 26 -4 0 -13 -10
-21 -22z"/>
<path d="M6870 3935 c0 -5 5 -17 10 -25 5 -8 10 -10 10 -5 0 6 -5 17 -10 25
-5 8 -10 11 -10 5z"/>
<path d="M4688 3913 c7 -3 16 -2 19 1 4 3 -2 6 -13 5 -11 0 -14 -3 -6 -6z"/>
<path d="M4815 3910 c-3 -5 -2 -10 4 -10 5 0 13 5 16 10 3 6 2 10 -4 10 -5 0
-13 -4 -16 -10z"/>
<path d="M6920 3896 c0 -8 4 -17 9 -20 5 -4 7 3 4 14 -6 23 -13 26 -13 6z"/>
<path d="M4720 3892 c0 -7 -46 -34 -102 -61 -108 -52 -116 -61 -34 -36 75 23
161 84 143 102 -4 3 -7 1 -7 -5z"/>
<path d="M4550 3870 c-30 -11 -56 -20 -57 -20 -2 0 -3 -5 -3 -10 0 -13 37 -4
110 26 69 29 31 31 -50 4z"/>
<path d="M6587 3877 c3 -5 -1 -13 -8 -18 -10 -7 -5 -8 14 -5 16 3 27 0 27 -7
0 -7 5 -4 11 6 6 10 8 21 4 25 -10 10 -55 10 -48 -1z"/>
<path d="M4992 3849 c5 -14 48 -32 48 -20 0 4 -12 13 -26 20 -20 9 -25 9 -22
0z"/>
<path d="M6850 3830 c6 -11 12 -20 14 -20 2 0 2 9 -1 20 -3 11 -9 20 -15 20
-5 0 -4 -9 2 -20z"/>
<path d="M4708 3824 c-16 -8 -28 -17 -28 -20 0 -2 9 0 19 6 29 15 39 12 17 -5
-30 -23 -2 -18 39 6 37 22 43 39 7 20 -26 -14 -35 -14 -27 -1 8 13 6 12 -27
-6z"/>
<path d="M6557 3823 c6 -16 5 -17 -12 -3 -17 14 -18 14 -7 -7 15 -27 34 -41
25 -17 -5 12 -3 15 6 9 10 -6 11 -3 2 14 -14 25 -23 28 -14 4z"/>
<path d="M4782 3815 c-20 -9 -31 -19 -26 -26 3 -6 0 -16 -7 -21 -10 -6 -6 -7
11 -2 34 9 37 13 20 24 -8 6 -13 10 -10 10 19 1 81 29 65 29 -11 0 -35 -6 -53
-14z"/>
<path d="M6960 3818 c0 -9 5 -20 10 -23 13 -8 13 5 0 25 -8 13 -10 13 -10 -2z"/>
<path d="M4928 3803 c7 -3 16 -2 19 1 4 3 -2 6 -13 5 -11 0 -14 -3 -6 -6z"/>
<path d="M4952 3794 c-7 -8 -8 -14 -3 -14 10 0 25 19 20 25 -2 1 -10 -3 -17
-11z"/>
<path d="M5040 3795 c0 -9 7 -18 15 -21 8 -4 15 -17 15 -30 0 -13 5 -24 10
-24 20 0 9 47 -15 68 -20 17 -25 19 -25 7z"/>
<path d="M4285 3721 c-129 -69 -225 -142 -225 -171 0 -8 -7 -26 -16 -38 -9
-13 -14 -26 -11 -28 3 -3 24 20 47 50 23 31 46 56 50 56 5 0 27 15 49 34 23
19 65 49 94 65 111 66 121 90 12 32z"/>
<path d="M4864 3726 c-10 -8 -16 -17 -13 -20 3 -3 14 3 24 14 21 23 17 26 -11
6z"/>
<path d="M6346 3727 c3 -10 9 -15 12 -12 3 3 0 11 -7 18 -10 9 -11 8 -5 -6z"/>
<path d="M5121 3714 c0 -11 3 -14 6 -6 3 7 2 16 -1 19 -3 4 -6 -2 -5 -13z"/>
<path d="M6333 3685 c0 -22 2 -30 4 -17 2 12 2 30 0 40 -3 9 -5 -1 -4 -23z"/>
<path d="M4726 3680 c-28 -25 -33 -34 -23 -45 14 -15 18 -13 21 10 1 10 13 25
27 35 13 10 21 21 17 25 -3 3 -22 -8 -42 -25z"/>
<path d="M4540 3659 c-58 -46 -61 -64 -5 -26 33 22 74 67 61 67 -2 0 -27 -18
-56 -41z"/>
<path d="M6296 3685 c4 -8 10 -12 15 -9 14 8 10 24 -6 24 -9 0 -12 -6 -9 -15z"/>
<path d="M4830 3680 c-9 -6 -10 -10 -3 -10 6 0 15 5 18 10 8 12 4 12 -15 0z"/>
<path d="M5080 3681 c0 -6 4 -12 9 -16 6 -3 4 -20 -5 -41 -8 -20 -10 -33 -5
-29 6 3 11 13 11 22 0 11 7 14 28 9 15 -3 21 -3 15 0 -7 3 -13 10 -13 15 0 5
-9 18 -20 29 -11 11 -20 16 -20 11z"/>
<path d="M6857 3659 c4 -13 8 -18 11 -10 2 7 -1 18 -6 23 -8 8 -9 4 -5 -13z"/>
<path d="M4550 3634 c-61 -48 -70 -57 -45 -48 31 12 105 64 105 75 0 15 -13 9
-60 -27z"/>
<path d="M5560 3619 c0 -21 9 -29 26 -22 16 6 19 33 4 33 -5 0 -10 -6 -10 -12
0 -9 -4 -8 -10 2 -8 13 -10 13 -10 -1z"/>
<path d="M5611 3614 c0 -11 3 -14 6 -6 3 7 2 16 -1 19 -3 4 -6 -2 -5 -13z"/>
<path d="M4685 3609 c-4 -6 -5 -12 -2 -15 2 -3 7 2 10 11 7 17 1 20 -8 4z"/>
<path d="M5630 3613 c0 -5 5 -15 10 -23 8 -12 10 -11 10 8 0 12 -4 22 -10 22
-5 0 -10 -3 -10 -7z"/>
<path d="M4160 3560 c-70 -49 -167 -136 -159 -144 8 -9 230 164 224 175 -8 11
-1 15 -65 -31z"/>
<path d="M6056 3587 c3 -10 9 -15 12 -12 3 3 0 11 -7 18 -10 9 -11 8 -5 -6z"/>
<path d="M6870 3593 c0 -5 7 -18 15 -29 13 -18 14 -18 8 4 -5 22 -23 41 -23
25z"/>
<path d="M6095 3579 c-4 -6 -4 -13 -1 -16 3 -4 6 -1 6 6 0 7 5 9 10 6 6 -3 10
-1 10 4 0 14 -17 14 -25 0z"/>
<path d="M4890 3559 c0 -18 2 -19 15 -5 8 8 15 17 15 20 0 3 -7 6 -15 6 -9 0
-15 -9 -15 -21z"/>
<path d="M5461 3564 c0 -11 3 -14 6 -6 3 7 2 16 -1 19 -3 4 -6 -2 -5 -13z"/>
<path d="M4199 3536 c-80 -54 -116 -86 -97 -86 9 0 37 17 62 38 25 20 55 44
68 53 43 31 13 26 -33 -5z"/>
<path d="M4623 3547 c-40 -42 17 -56 67 -16 24 20 24 20 2 9 -13 -6 -36 -14
-50 -16 -26 -5 -26 -5 -7 15 10 12 16 23 13 26 -2 3 -14 -5 -25 -18z"/>
<path d="M3969 3513 c-67 -59 -81 -77 -67 -82 6 -2 40 26 77 63 76 76 69 89
-10 19z"/>
<path d="M4400 3550 c-9 -6 -10 -10 -3 -10 6 0 15 5 18 10 8 12 4 12 -15 0z"/>
<path d="M5144 3523 c-17 -23 -20 -32 -9 -23 17 14 18 13 11 -5 -6 -16 0 -13
25 10 l33 30 -27 -33 c-29 -36 -33 -47 -17 -57 6 -3 10 -1 10 5 0 7 9 25 20
41 17 23 19 33 10 49 -15 28 -24 25 -56 -17z m46 24 c0 -2 -10 -12 -22 -23
l-23 -19 19 23 c18 21 26 27 26 19z"/>
<path d="M4296 3535 c-11 -8 -17 -17 -14 -20 3 -3 16 3 29 14 27 23 14 28 -15
6z"/>
<path d="M5082 3520 c0 -14 2 -19 5 -12 2 6 2 18 0 25 -3 6 -5 1 -5 -13z"/>
<path d="M4310 3510 c-13 -8 -13 -10 2 -10 9 0 20 5 23 10 8 13 -5 13 -25 0z"/>
<path d="M4430 3510 c0 -5 5 -10 11 -10 5 0 7 5 4 10 -3 6 -8 10 -11 10 -2 0
-4 -4 -4 -10z"/>
<path d="M4772 3501 c-10 -6 -8 -10 9 -14 13 -4 25 -4 28 -2 2 3 -2 5 -10 5
-11 0 -11 2 1 10 13 9 13 10 0 10 -8 0 -21 -4 -28 -9z"/>
<path d="M4445 3470 c-16 -16 -24 -30 -18 -30 14 0 63 39 63 51 0 17 -16 9
-45 -21z"/>
<path d="M5202 3485 c-12 -9 -22 -24 -22 -33 0 -9 -9 -28 -20 -42 -11 -14 -18
-18 -15 -10 3 9 -1 24 -8 34 -13 17 -14 16 -9 -13 6 -44 20 -48 48 -15 l24 29
-22 -40 c-15 -27 -17 -36 -7 -28 9 7 19 10 23 6 4 -4 4 0 1 9 -4 9 -2 19 4 22
15 10 23 -12 12 -33 -8 -14 -8 -20 0 -23 8 -3 7 -14 -5 -35 -17 -35 -22 -59
-5 -30 13 22 32 12 20 -11 -13 -27 -21 -91 -10 -97 5 -4 5 -13 -1 -25 -12 -22
-13 -30 -2 -30 9 0 55 100 49 106 -3 3 -11 -8 -18 -25 -7 -16 -17 -27 -22 -24
-4 2 -4 10 1 16 5 7 12 29 15 50 3 20 15 51 27 67 14 20 19 37 15 51 -7 19 -7
20 -21 2 -17 -23 -18 -36 -1 -28 6 4 4 0 -5 -8 -10 -8 -15 -17 -11 -20 3 -4 1
-7 -6 -7 -8 0 -10 7 -6 21 11 35 13 84 2 90 -5 4 -2 19 7 37 18 35 20 46 7 38
-5 -4 -11 -2 -13 4 -2 6 -12 4 -26 -5z m28 -19 c0 -2 -8 -10 -17 -17 -16 -13
-17 -12 -4 4 13 16 21 21 21 13z"/>
<path d="M4550 3470 c0 -5 5 -10 11 -10 5 0 7 5 4 10 -3 6 -8 10 -11 10 -2 0
-4 -4 -4 -10z"/>
<path d="M4830 3469 c0 -6 -5 -7 -11 -3 -7 4 -6 -2 2 -17 10 -20 13 -21 18 -7
4 13 10 15 21 8 23 -15 31 -12 19 8 -12 19 -49 27 -49 11z"/>
<path d="M6228 3458 c9 -9 15 -9 24 0 9 9 7 12 -12 12 -19 0 -21 -3 -12 -12z"/>
<path d="M5010 3450 c0 -5 5 -10 11 -10 5 0 7 -5 3 -12 -4 -7 -3 -8 4 -4 17
10 15 36 -3 36 -8 0 -15 -4 -15 -10z"/>
<path d="M4580 3420 c-8 -5 -10 -10 -5 -10 6 0 17 5 25 10 8 5 11 10 5 10 -5
0 -17 -5 -25 -10z"/>
<path d="M3845 3369 c-22 -12 -42 -25 -45 -29 -3 -4 -17 -10 -32 -14 -31 -7
-39 -27 -9 -21 11 2 39 15 63 29 24 15 51 29 61 32 17 6 24 24 9 24 -4 0 -25
-10 -47 -21z"/>
<path d="M4185 3380 c-3 -5 -2 -10 4 -10 5 0 13 5 16 10 3 6 2 10 -4 10 -5 0
-13 -4 -16 -10z"/>
<path d="M4230 3379 c0 -5 5 -7 10 -4 6 3 10 8 10 11 0 2 -4 4 -10 4 -5 0 -10
-5 -10 -11z"/>
<path d="M4770 3379 c0 -5 5 -7 10 -4 6 3 10 8 10 11 0 2 -4 4 -10 4 -5 0 -10
-5 -10 -11z"/>
<path d="M4869 3373 c-13 -17 -13 -17 6 -3 11 8 22 16 24 17 2 2 0 3 -6 3 -6
0 -17 -8 -24 -17z"/>
<path d="M4976 3350 c-9 -17 -13 -30 -8 -30 10 0 37 48 31 55 -3 2 -13 -9 -23
-25z"/>
<path d="M4575 3360 c-3 -6 1 -7 9 -4 18 7 21 14 7 14 -6 0 -13 -4 -16 -10z"/>
<path d="M4103 3340 c-18 -11 -33 -22 -33 -25 0 -7 49 13 73 30 33 23 -2 19
-40 -5z"/>
<path d="M6920 3350 c0 -8 5 -22 10 -30 9 -13 10 -13 10 0 0 8 -5 22 -10 30
-9 13 -10 13 -10 0z"/>
<path d="M4238 3333 c7 -3 16 -2 19 1 4 3 -2 6 -13 5 -11 0 -14 -3 -6 -6z"/>
<path d="M5010 3320 c-8 -16 -8 -18 4 -14 17 6 30 34 16 34 -5 0 -14 -9 -20
-20z"/>
<path d="M6900 3328 c0 -9 5 -20 10 -23 13 -8 13 5 0 25 -8 13 -10 13 -10 -2z"/>
<path d="M4216 3303 c-6 -14 -5 -15 5 -6 7 7 10 15 7 18 -3 3 -9 -2 -12 -12z"/>
<path d="M5260 3295 c-7 -9 -11 -18 -8 -20 3 -3 11 1 18 10 7 9 11 18 8 20 -3
3 -11 -1 -18 -10z"/>
<path d="M5281 3276 c-6 -16 -10 -31 -7 -33 7 -8 28 37 23 50 -3 7 -10 -1 -16
-17z"/>
<path d="M3718 3273 c7 -3 16 -2 19 1 4 3 -2 6 -13 5 -11 0 -14 -3 -6 -6z"/>
<path d="M4686 3271 c-10 -15 5 -40 20 -34 8 3 14 9 14 14 0 4 -8 5 -17 2 -16
-6 -16 -5 -4 10 8 10 9 17 3 17 -6 0 -13 -4 -16 -9z"/>
<path d="M4099 3253 c-13 -16 -12 -17 4 -4 9 7 17 15 17 17 0 8 -8 3 -21 -13z"/>
<path d="M3920 3230 c-8 -5 -10 -10 -5 -10 6 0 17 5 25 10 8 5 11 10 5 10 -5
0 -17 -5 -25 -10z"/>
<path d="M4266 3214 c-9 -8 -16 -18 -16 -20 0 -7 38 15 45 26 10 16 -12 12
-29 -6z"/>
<path d="M4856 3186 c-23 -33 -24 -37 -7 -21 23 20 45 54 39 60 -2 1 -16 -16
-32 -39z"/>
<path d="M4408 3213 c7 -3 16 -2 19 1 4 3 -2 6 -13 5 -11 0 -14 -3 -6 -6z"/>
<path d="M4996 3190 c-9 -17 -13 -30 -8 -30 9 0 35 50 29 56 -2 2 -11 -10 -21
-26z"/>
<path d="M5306 3193 c-6 -14 -5 -15 5 -6 7 7 10 15 7 18 -3 3 -9 -2 -12 -12z"/>
<path d="M3425 3170 c-27 -30 -12 -34 15 -5 13 14 19 25 13 25 -5 0 -18 -9
-28 -20z"/>
<path d="M4920 3175 c-6 -8 -10 -22 -8 -32 3 -13 7 -9 15 15 13 35 12 39 -7
17z"/>
<path d="M4375 3156 c-16 -13 -28 -26 -25 -29 3 -3 20 8 38 24 39 35 29 39
-13 5z"/>
<path d="M3321 3151 c-14 -4 -26 -11 -28 -17 -5 -16 44 -5 58 12 12 15 8 16
-30 5z"/>
<path d="M4937 3153 c-4 -3 -7 -11 -7 -17 0 -6 5 -5 12 2 6 6 9 14 7 17 -3 3
-9 2 -12 -2z"/>
<path d="M4606 3135 c-9 -26 -7 -32 5 -12 6 10 9 21 6 23 -2 3 -7 -2 -11 -11z"/>
<path d="M5240 3141 c0 -6 4 -11 8 -11 5 0 7 -20 5 -45 -2 -25 0 -45 4 -44 31
5 34 -2 29 -58 -4 -40 -3 -53 4 -43 10 15 12 11 14 -24 1 -28 23 -31 37 -4 11
21 11 22 -5 9 -16 -13 -17 -12 -10 14 6 24 4 27 -10 22 -17 -7 -20 3 -10 40 4
13 10 20 15 17 5 -3 4 6 -2 20 -7 14 -20 28 -30 31 -14 5 -15 10 -6 35 12 33
11 35 -20 44 -14 5 -23 3 -23 -3z"/>
<path d="M5232 3100 c0 -14 2 -19 5 -12 2 6 2 18 0 25 -3 6 -5 1 -5 -13z"/>
<path d="M3240 3075 c-11 -13 -10 -14 4 -9 9 3 16 10 16 15 0 13 -6 11 -20 -6z"/>
<path d="M4814 3018 l-19 -23 23 19 c12 11 22 21 22 23 0 8 -8 2 -26 -19z"/>
<path d="M4345 3010 c-3 -5 -1 -10 4 -10 6 0 11 5 11 10 0 6 -2 10 -4 10 -3 0
-8 -4 -11 -10z"/>
<path d="M4360 2979 c0 -5 5 -7 10 -4 6 3 10 8 10 11 0 2 -4 4 -10 4 -5 0 -10
-5 -10 -11z"/>
<path d="M4584 2956 c-21 -31 -16 -45 6 -17 11 13 20 18 20 12 0 -6 6 -8 14
-5 18 7 10 31 -10 31 -8 0 -22 -10 -30 -21z"/>
<path d="M5429 2943 c-6 -7 -15 -10 -20 -7 -5 3 -6 -2 -2 -11 4 -12 8 -13 13
-5 6 9 9 9 13 -1 4 -8 5 -6 4 6 -1 11 3 20 10 20 17 0 25 12 8 12 -8 0 -20 -6
-26 -14z"/>
<path d="M3090 2930 c-12 -8 -11 -10 8 -10 12 0 22 5 22 10 0 13 -11 13 -30 0z"/>
<path d="M4852 2920 c0 -14 2 -19 5 -12 2 6 2 18 0 25 -3 6 -5 1 -5 -13z"/>
<path d="M5370 2925 c-10 -12 -10 -15 0 -15 8 0 9 -4 3 -12 -5 -7 -9 -22 -9
-33 1 -15 7 -19 26 -17 20 3 22 2 12 -11 -18 -21 10 -43 35 -27 16 10 16 10
-4 5 -26 -7 -38 8 -18 25 15 13 10 35 -6 25 -5 -3 -6 1 -3 9 3 9 13 16 21 16
8 0 11 -5 7 -12 -5 -10 -3 -10 7 0 12 11 12 14 -1 22 -8 5 -17 7 -21 4 -4 -2
-10 0 -14 6 -4 6 -11 7 -17 4 -7 -5 -9 -1 -5 9 8 21 3 22 -13 2z m27 -28 c0
-8 -6 -14 -14 -14 -9 0 -10 4 -2 14 6 7 12 13 14 13 1 0 2 -6 2 -13z"/>
<path d="M5507 2923 c-4 -6 0 -13 8 -17 8 -3 17 0 21 6 4 6 3 8 -4 4 -5 -3
-12 -1 -14 6 -3 8 -6 9 -11 1z"/>
<path d="M5816 2893 c-4 -9 -3 -20 1 -24 4 -4 9 3 9 17 2 28 -1 31 -10 7z"/>
<path d="M4561 2878 c-5 -13 -11 -34 -15 -48 -5 -19 -2 -16 13 10 17 30 26 33
22 8 0 -5 6 -8 14 -8 21 0 19 22 -5 43 -20 16 -21 16 -29 -5z"/>
<path d="M5756 2883 c-6 -14 -5 -15 5 -6 7 7 10 15 7 18 -3 3 -9 -2 -12 -12z"/>
<path d="M6551 2844 c0 -11 3 -14 6 -6 3 7 2 16 -1 19 -3 4 -6 -2 -5 -13z"/>
<path d="M4277 2843 c-3 -5 -7 -26 -8 -47 -3 -32 0 -40 14 -42 23 -3 42 36 33
70 -6 24 -29 35 -39 19z m16 -58 c-3 -9 -8 -14 -10 -11 -3 3 -2 9 2 15 9 16
15 13 8 -4z"/>
<path d="M5449 2836 c7 -8 11 -27 9 -42 -2 -16 2 -29 7 -30 23 -2 45 -17 45
-30 0 -8 -4 -14 -8 -14 -5 0 -9 -7 -9 -15 0 -8 3 -15 6 -15 13 0 27 16 26 30
-1 8 3 21 8 28 11 14 31 17 22 2 -8 -13 8 -13 22 1 8 8 13 7 18 -2 6 -8 4 -10
-5 -4 -9 6 -11 4 -5 -5 5 -8 4 -11 -1 -7 -6 3 -16 2 -24 -4 -11 -6 -12 -9 -2
-9 8 0 10 -5 6 -12 -4 -7 8 0 27 17 54 47 55 49 41 40 -8 -4 -19 0 -28 11 -9
11 -12 12 -8 4 5 -12 4 -13 -6 -3 -10 10 -19 8 -39 -6 -21 -15 -28 -16 -38 -6
-9 10 -8 18 2 38 7 14 11 28 7 31 -9 9 -31 -14 -26 -28 3 -7 -2 -13 -10 -13
-11 0 -14 8 -12 23 3 14 -1 25 -11 28 -23 9 -26 7 -14 -8z"/>
<path d="M5937 2821 c-4 -17 -3 -21 5 -13 5 5 8 16 6 23 -3 8 -7 3 -11 -10z"/>
<path d="M5622 2817 c-8 -10 -6 -13 9 -14 19 -2 26 11 10 21 -5 3 -14 0 -19
-7z"/>
<path d="M5683 2819 c3 -9 0 -22 -6 -29 -8 -9 -5 -8 10 1 12 7 19 16 15 19 -4
3 -11 10 -16 15 -6 6 -7 4 -3 -6z"/>
<path d="M6506 2813 c-6 -14 -5 -15 5 -6 7 7 10 15 7 18 -3 3 -9 -2 -12 -12z"/>
<path d="M5535 2799 c-3 -4 2 -6 10 -5 21 3 28 13 10 13 -9 0 -18 -4 -20 -8z"/>
<path d="M2990 2779 c-19 -11 -29 -19 -22 -19 22 0 92 25 92 32 0 13 -33 7
-70 -13z"/>
<path d="M5960 2780 c-6 -11 -8 -20 -6 -20 3 0 10 9 16 20 6 11 8 20 6 20 -3
0 -10 -9 -16 -20z"/>
<path d="M6321 2784 c0 -11 3 -14 6 -6 3 7 2 16 -1 19 -3 4 -6 -2 -5 -13z"/>
<path d="M4459 2770 c-19 -11 -45 -68 -36 -77 4 -3 11 7 17 23 6 16 19 37 27
46 18 20 16 22 -8 8z"/>
<path d="M5018 2753 c7 -3 16 -2 19 1 4 3 -2 6 -13 5 -11 0 -14 -3 -6 -6z"/>
<path d="M5466 2751 c-4 -5 -2 -12 3 -15 5 -4 12 -2 15 3 4 5 2 12 -3 15 -5 4
-12 2 -15 -3z"/>
<path d="M5122 2741 c-11 -7 -10 -10 3 -15 24 -9 35 -8 35 4 0 5 -7 6 -17 3
-11 -4 -14 -3 -9 5 8 14 6 15 -12 3z"/>
<path d="M4641 2703 c-6 -20 -8 -39 -6 -42 3 -2 5 2 5 10 0 10 2 11 8 2 4 -6
7 6 7 28 0 21 -1 39 -2 39 -1 0 -7 -17 -12 -37z"/>
<path d="M5601 2707 c-13 -21 -12 -21 5 -5 10 10 16 20 13 22 -3 3 -11 -5 -18
-17z"/>
<path d="M4200 2675 c0 -8 2 -15 4 -15 2 0 6 7 10 15 3 8 1 15 -4 15 -6 0 -10
-7 -10 -15z"/>
<path d="M4690 2670 c-6 -12 -9 -24 -7 -27 3 -2 11 5 17 17 6 12 9 24 7 27 -3
2 -11 -5 -17 -17z"/>
<path d="M5510 2675 c-7 -8 -16 -13 -20 -10 -5 3 -12 1 -15 -5 -4 -6 -3 -10 2
-9 4 1 16 1 27 0 13 -1 16 -4 9 -13 -14 -18 -24 -88 -12 -88 5 0 9 5 9 11 0 6
6 9 13 6 6 -2 23 5 37 17 13 11 7 1 -14 -23 -24 -28 -36 -50 -33 -62 3 -10 2
-18 -2 -17 -3 0 -9 -1 -13 -2 -5 -1 -11 -3 -15 -4 -33 -8 -61 -21 -81 -39 -18
-17 -24 -18 -35 -7 -9 10 -9 11 0 6 9 -5 11 -2 7 8 -7 18 -34 22 -34 5 0 -5
-5 -7 -12 -3 -7 5 -9 2 -6 -8 5 -11 1 -14 -17 -10 -16 3 -27 -2 -34 -17 -6
-11 -31 -29 -55 -40 -37 -16 -145 -96 -194 -143 -22 -22 -176 -193 -197 -219
-11 -14 -29 -29 -40 -34 -17 -7 -18 -9 -3 -12 12 -3 18 -17 21 -46 l4 -42 1
46 c2 43 4 46 26 42 28 -6 61 10 176 85 105 69 223 186 271 270 21 35 39 57
42 50 3 -9 19 1 48 28 47 44 67 54 114 60 28 4 28 4 10 -11 -23 -17 -13 -20
18 -4 21 10 21 10 3 -5 -11 -9 -26 -16 -33 -16 -23 0 -183 -113 -183 -130 0
-4 -21 -29 -47 -54 -27 -25 -43 -46 -37 -46 13 0 50 30 106 88 23 23 47 42 54
42 6 0 14 7 17 15 7 17 76 62 109 70 36 9 79 52 71 72 -4 10 -2 14 4 10 6 -4
16 0 22 7 19 22 -8 15 -49 -13 -19 -14 -30 -18 -23 -11 6 7 9 18 7 25 -3 7 12
37 33 66 21 29 32 50 25 46 -7 -5 -12 -3 -12 4 0 7 -11 3 -24 -10 l-24 -23 -7
22 c-4 13 -1 28 8 38 13 14 13 20 3 35 -12 15 -15 15 -26 2z m-221 -295 c-13
-16 -25 -28 -27 -25 -5 5 37 55 45 55 2 0 -6 -13 -18 -30z m-83 -107 c-2 -47
-174 -189 -341 -282 -22 -13 -33 -17 -25 -9 9 7 46 50 84 95 85 104 140 148
177 145 22 -3 31 3 44 27 8 17 20 31 26 31 6 0 9 6 6 14 -4 9 0 12 13 9 12 -3
17 -13 16 -30z"/>
<path d="M5038 2179 c-21 -12 -24 -49 -4 -49 17 0 49 30 42 38 -3 3 -16 -3
-28 -14 -21 -17 -21 -16 1 9 25 28 20 35 -11 16z"/>
<path d="M4918 2663 c-36 -14 -56 -39 -21 -26 11 4 14 3 9 -5 -4 -7 7 -5 28 5
22 10 32 20 25 24 -8 4 -7 8 2 12 8 3 10 6 4 6 -5 0 -27 -7 -47 -16z m22 -13
c-8 -5 -19 -10 -25 -10 -5 0 -3 5 5 10 8 5 20 10 25 10 6 0 3 -5 -5 -10z"/>
<path d="M5429 2641 c11 -7 11 -9 0 -14 -8 -3 -9 -6 -3 -6 6 -1 16 5 22 12 8
10 6 13 -11 14 -15 2 -18 0 -8 -6z"/>
<path d="M5554 2635 c-4 -8 -11 -12 -17 -8 -6 3 -7 1 -3 -5 10 -16 14 -15 26
8 6 11 8 20 5 20 -3 0 -8 -7 -11 -15z"/>
<path d="M4024 2588 l-29 -33 33 29 c17 17 32 31 32 33 0 8 -8 1 -36 -29z"/>
<path d="M4738 2603 c-29 -34 -30 -48 -2 -21 15 15 26 30 23 33 -3 3 -13 -3
-21 -12z"/>
<path d="M4476 2595 c4 -8 8 -15 10 -15 2 0 4 7 4 15 0 8 -4 15 -10 15 -5 0
-7 -7 -4 -15z"/>
<path d="M4497 2570 c-3 -11 -1 -20 4 -20 5 0 9 9 9 20 0 11 -2 20 -4 20 -2 0
-6 -9 -9 -20z"/>
<path d="M4835 2580 c-3 -5 -1 -10 5 -10 6 0 8 -5 4 -12 -5 -9 -3 -9 9 1 9 7
14 17 11 22 -7 12 -21 11 -29 -1z"/>
<path d="M5165 2580 c-3 -5 -1 -10 4 -10 6 0 11 5 11 10 0 6 -2 10 -4 10 -3 0
-8 -4 -11 -10z"/>
<path d="M5400 2574 c0 -8 5 -12 10 -9 6 3 10 10 10 16 0 5 -4 9 -10 9 -5 0
-10 -7 -10 -16z"/>
<path d="M5676 2565 c-10 -15 -12 -26 -6 -30 6 -3 10 -3 10 1 0 4 7 -1 15 -12
13 -16 16 -17 25 -4 8 12 10 13 10 1 0 -8 3 -12 6 -8 3 3 3 11 -1 17 -5 8 -11
8 -21 -1 -13 -10 -14 -7 -9 19 7 40 -8 49 -29 17z m21 -8 c0 -8 -6 -14 -14
-14 -9 0 -10 4 -2 14 6 7 12 13 14 13 1 0 2 -6 2 -13z"/>
<path d="M5188 2563 c-10 -2 -18 -9 -18 -14 0 -6 8 -5 20 1 11 6 20 13 20 15
0 3 -1 4 -2 4 -2 -1 -11 -3 -20 -6z"/>
<path d="M4472 2510 c0 -14 2 -19 5 -12 2 6 2 18 0 25 -3 6 -5 1 -5 -13z"/>
<path d="M4551 2502 c0 -7 -5 -11 -10 -8 -5 4 -7 -3 -4 -15 4 -13 9 -17 15
-11 6 6 8 18 5 28 -3 11 -5 13 -6 6z"/>
<path d="M5359 2502 c9 -7 10 -11 2 -15 -7 -4 -8 -5 0 -3 15 2 13 20 -3 24
-10 3 -10 2 1 -6z"/>
<path d="M5074 2478 l-19 -23 25 20 c14 11 27 21 29 22 2 2 0 3 -6 3 -5 0 -18
-10 -29 -22z"/>
<path d="M5245 2469 c-4 -6 -5 -12 -2 -15 2 -3 7 2 10 11 7 17 1 20 -8 4z"/>
<path d="M5265 2459 c-4 -6 -5 -12 -2 -15 2 -3 7 2 10 11 7 17 1 20 -8 4z"/>
<path d="M5780 2450 c-9 -6 -10 -10 -3 -10 6 0 15 5 18 10 8 12 4 12 -15 0z"/>
<path d="M3238 2413 c6 -2 18 -2 25 0 6 3 1 5 -13 5 -14 0 -19 -2 -12 -5z"/>
<path d="M4244 2386 c-3 -21 -4 -39 -1 -42 3 -4 9 10 13 30 3 21 4 39 1 42 -3
4 -9 -10 -13 -30z"/>
<path d="M2249 2383 c-8 -10 -16 -22 -17 -28 -2 -9 -7 -10 -31 -6 -5 0 -13 10
-16 22 -7 19 -7 20 -21 2 -12 -16 -11 -20 7 -35 31 -27 56 -22 74 13 18 35 38
34 45 -2 5 -25 6 -25 50 -13 32 8 38 12 20 13 -30 2 -44 10 -53 34 -3 9 -15
17 -24 17 -10 0 -25 -8 -34 -17z"/>
<path d="M4215 2389 c-4 -6 -5 -12 -2 -15 2 -3 7 2 10 11 7 17 1 20 -8 4z"/>
<path d="M5580 2385 c-7 -8 -9 -15 -4 -15 5 0 2 -5 -6 -10 -11 -7 -11 -10 -2
-10 7 0 10 -5 6 -11 -5 -8 -2 -9 12 -1 10 5 19 22 20 36 1 29 -8 33 -26 11z"/>
<path d="M4131 2374 c0 -11 3 -14 6 -6 3 7 2 16 -1 19 -3 4 -6 -2 -5 -13z"/>
<path d="M4277 2383 c-4 -3 -7 -13 -7 -22 1 -13 3 -13 11 2 11 19 8 33 -4 20z"/>
<path d="M5007 2371 c-11 -14 -10 -15 7 -1 18 14 19 13 13 -2 -8 -24 0 -23 12
0 13 24 -14 26 -32 3z"/>
<path d="M4610 2370 c0 -6 7 -10 15 -10 8 0 15 2 15 4 0 2 -7 6 -15 10 -8 3
-15 1 -15 -4z"/>
<path d="M5507 2344 c7 -3 9 -13 6 -22 -5 -13 -3 -14 7 -5 14 13 5 33 -13 32
-9 0 -9 -2 0 -5z"/>
<path d="M4113 2275 c0 -33 2 -45 4 -27 2 18 2 45 0 60 -2 15 -4 0 -4 -33z"/>
<path d="M5042 2308 c2 -6 10 -13 16 -14 7 -1 8 0 2 3 -5 2 -8 9 -4 14 3 5 0
9 -6 9 -7 0 -10 -5 -8 -12z"/>
<path d="M5460 2310 c-8 -5 -23 -7 -32 -4 -10 3 -18 0 -18 -6 0 -6 5 -8 13 -4
7 5 6 0 -3 -11 -14 -17 -13 -18 7 -13 12 3 24 2 27 -3 2 -5 3 -4 2 3 -2 7 3
21 12 31 17 19 14 21 -8 7z"/>
<path d="M4182 2260 c0 -14 2 -19 5 -12 2 6 2 18 0 25 -3 6 -5 1 -5 -13z"/>
<path d="M5595 2270 c-4 -6 -3 -10 1 -10 4 0 0 -8 -9 -18 -15 -17 -15 -18 11
-17 21 0 27 5 28 22 1 23 -21 39 -31 23z"/>
<path d="M4152 2230 c0 -19 2 -27 5 -17 2 9 2 25 0 35 -3 9 -5 1 -5 -18z"/>
<path d="M4132 2210 c0 -19 2 -27 5 -17 2 9 2 25 0 35 -3 9 -5 1 -5 -18z"/>
<path d="M4940 2225 c-7 -8 -17 -12 -23 -8 -6 4 -7 1 -3 -6 6 -9 13 -8 27 5
10 9 19 19 19 21 0 7 -8 2 -20 -12z"/>
<path d="M4589 2203 l-24 -28 28 24 c25 23 32 31 24 31 -2 0 -14 -12 -28 -27z"/>
<path d="M5729 2203 c-13 -16 -12 -17 4 -4 16 13 21 21 13 21 -2 0 -10 -8 -17
-17z"/>
<path d="M4432 2190 c0 -14 2 -19 5 -12 2 6 2 18 0 25 -3 6 -5 1 -5 -13z"/>
<path d="M5500 2195 c-9 -11 -9 -15 -1 -15 7 0 9 -5 5 -11 -5 -8 -1 -8 14 0
12 6 24 16 28 22 4 7 -3 6 -17 -2 -22 -11 -23 -11 -10 4 7 10 9 17 3 17 -5 0
-15 -7 -22 -15z"/>
<path d="M4372 2175 c0 -16 2 -22 5 -12 2 9 2 23 0 30 -3 6 -5 -1 -5 -18z"/>
<path d="M4939 2198 c-7 -25 -7 -48 0 -43 6 3 9 14 8 25 -1 17 -5 26 -8 18z"/>
<path d="M3645 2170 c-19 -8 -19 -9 3 -9 12 -1 22 4 22 9 0 6 -1 10 -2 9 -2 0
-12 -4 -23 -9z"/>
<path d="M5193 2164 c-36 -18 -133 -104 -117 -104 6 0 29 14 50 31 22 17 58
42 82 56 23 14 42 27 42 29 0 8 -26 3 -57 -12z"/>
<path d="M4301 2123 c0 -12 -4 -30 -7 -40 -5 -14 -4 -15 5 -7 7 6 11 24 8 40
-3 21 -4 23 -6 7z"/>
<path d="M4322 2105 c-1 -22 -5 -51 -7 -65 l-6 -25 11 25 c6 13 9 42 7 65 l-4
40 -1 -40z"/>
<path d="M5234 2118 l-19 -23 25 20 c14 11 27 21 29 22 2 2 0 3 -6 3 -5 0 -18
-10 -29 -22z"/>
<path d="M3318 2123 c12 -2 32 -2 45 0 12 2 2 4 -23 4 -25 0 -35 -2 -22 -4z"/>
<path d="M2545 2080 c-4 -6 6 -10 22 -10 16 0 34 -5 41 -12 9 -9 12 -9 12 0 0
7 8 12 18 13 14 0 14 2 -3 9 -28 12 -83 12 -90 0z"/>
<path d="M5053 2046 c4 -10 -23 -28 -89 -61 -87 -43 -114 -66 -114 -95 0 -7 8
-3 18 9 9 11 46 36 82 54 36 19 85 47 110 62 39 25 42 29 25 36 -30 12 -38 10
-32 -5z"/>
<path d="M2863 2022 c-7 -4 11 -14 43 -23 57 -17 69 -11 32 15 -24 17 -56 20
-75 8z"/>
<path d="M5726 2009 c-14 -11 -26 -18 -26 -14 0 3 -9 1 -21 -5 -11 -7 -18 -14
-15 -17 3 -3 14 0 23 8 15 11 15 10 -1 -9 -33 -38 -2 -24 39 18 42 44 43 52 1
19z"/>
<path d="M2805 1990 c-10 -11 -16 -22 -13 -25 3 -3 13 4 23 15 10 11 16 22 13
25 -3 3 -13 -4 -23 -15z"/>
<path d="M3335 1999 c-71 -23 -149 -27 -218 -11 -47 11 -76 13 -94 6 -51 -18
-34 -29 50 -32 45 -2 98 -4 117 -4 19 -1 75 4 125 11 56 8 97 9 110 3 11 -5
39 -14 63 -19 63 -15 49 6 -24 33 -65 25 -84 27 -129 13z"/>
<path d="M5699 1939 c-23 -19 -23 -20 -2 -10 12 6 25 16 28 21 10 16 -1 12
-26 -11z"/>
<path d="M2702 1925 c-11 -14 -49 -44 -83 -68 -42 -27 -58 -43 -47 -45 35 -7
128 58 128 90 0 6 7 20 17 30 9 10 13 18 10 18 -3 0 -14 -11 -25 -25z"/>
<path d="M3554 1926 c10 -8 44 -18 75 -22 48 -6 104 -26 121 -44 3 -4 24 -12
47 -18 24 -7 51 -21 60 -31 20 -21 77 -36 94 -26 6 5 -5 15 -28 27 -21 10 -54
27 -74 38 -20 10 -47 20 -60 22 -13 2 -44 13 -69 25 -25 11 -67 24 -95 28 -27
3 -59 8 -70 11 -19 5 -19 5 -1 -10z"/>
<path d="M5700 1910 c0 -6 -6 -10 -12 -9 -27 3 -38 -2 -49 -22 -9 -17 -8 -20
2 -14 9 6 10 3 5 -11 -4 -11 9 -3 33 21 44 42 46 45 31 45 -5 0 -10 -5 -10
-10z m-20 -14 c0 -2 -8 -10 -17 -17 -16 -13 -17 -12 -4 4 13 16 21 21 21 13z"/>
<path d="M2812 1897 c-6 -7 -16 -24 -22 -37 -30 -67 -38 -75 -75 -72 -43 4
-47 -14 -5 -23 37 -8 45 -3 73 47 12 22 28 52 35 65 15 27 11 41 -6 20z"/>
<path d="M4334 1864 c-3 -25 -2 -55 3 -67 8 -17 11 -7 11 46 0 37 -1 67 -3 67
-2 0 -7 -21 -11 -46z"/>
<path d="M4783 1860 c0 -25 2 -35 4 -22 2 12 2 32 0 45 -2 12 -4 2 -4 -23z"/>
<path d="M5679 1858 c-12 -23 -12 -23 10 -4 23 21 26 26 11 26 -5 0 -15 -10
-21 -22z"/>
<path d="M5719 1863 c-13 -16 -12 -17 4 -4 16 13 21 21 13 21 -2 0 -10 -8 -17
-17z"/>
<path d="M4847 1853 c-4 -3 -7 -11 -7 -17 0 -6 5 -5 12 2 6 6 9 14 7 17 -3 3
-9 2 -12 -2z"/>
<path d="M2535 1830 c-3 -5 -1 -10 4 -10 6 0 11 5 11 10 0 6 -2 10 -4 10 -3 0
-8 -4 -11 -10z"/>
<path d="M4378 1809 c-10 -5 -18 -19 -18 -29 0 -18 2 -17 25 4 36 33 32 48 -7
25z"/>
<path d="M2065 1780 c-3 -5 1 -10 9 -10 8 0 18 5 21 10 3 6 -1 10 -9 10 -8 0
-18 -4 -21 -10z"/>
<path d="M4166 1775 c-3 -8 -4 -15 -3 -15 1 0 22 7 47 14 l45 15 -41 0 c-28 1
-44 -4 -48 -14z"/>
<path d="M4090 1770 c0 -13 11 -13 30 0 12 8 11 10 -7 10 -13 0 -23 -4 -23
-10z"/>
<path d="M2404 1754 c-18 -14 -18 -15 4 -4 12 6 22 13 22 15 0 8 -5 6 -26 -11z"/>
<path d="M3975 1760 c3 -5 12 -10 20 -10 8 0 17 5 20 10 4 6 -5 10 -20 10 -15
0 -24 -4 -20 -10z"/>
<path d="M1995 1740 c-11 -4 -39 -14 -63 -21 -61 -18 -66 -34 -8 -26 49 7 149
57 111 56 -11 0 -29 -4 -40 -9z"/>
<path d="M2746 1728 c-11 -42 -7 -55 9 -34 16 22 20 56 6 56 -5 0 -11 -10 -15
-22z"/>
<path d="M2430 1731 c0 -5 9 -7 20 -4 11 3 20 7 20 9 0 2 -9 4 -20 4 -11 0
-20 -4 -20 -9z"/>
<path d="M2438 1707 c-21 -5 -38 -14 -38 -19 0 -15 108 -5 123 11 9 10 8 12
-8 10 -11 -2 -24 -1 -30 2 -5 3 -27 2 -47 -4z"/>
<path d="M1830 1690 c-9 -16 -8 -18 5 -14 8 4 15 12 15 20 0 20 -7 17 -20 -6z"/>
<path d="M2280 1696 c-58 -22 -176 -85 -160 -85 14 -1 195 81 207 93 10 9 -9
6 -47 -8z"/>
<path d="M2260 1649 c-41 -17 -82 -36 -90 -43 -8 -6 -31 -19 -50 -28 -110 -50
-130 -60 -130 -64 0 -10 44 9 178 72 74 35 137 64 142 64 4 0 13 7 20 15 16
19 18 20 -70 -16z"/>
<path d="M3255 1670 c-3 -5 1 -10 9 -10 9 0 16 5 16 10 0 6 -4 10 -9 10 -6 0
-13 -4 -16 -10z"/>
<path d="M1810 1630 c-18 -12 -2 -12 25 0 13 6 15 9 5 9 -8 0 -22 -4 -30 -9z"/>
<path d="M2189 1584 c-62 -31 -141 -67 -174 -81 -33 -13 -118 -53 -190 -88
-71 -34 -184 -89 -250 -121 -66 -32 -124 -63 -130 -70 -5 -7 -55 -29 -110 -49
-137 -49 -150 -56 -100 -51 70 6 158 36 218 72 32 20 61 33 64 30 3 -3 18 3
32 13 14 9 44 26 66 36 22 9 47 23 55 30 8 7 27 15 41 19 15 3 49 22 77 41 29
19 55 35 59 35 4 0 42 16 83 36 41 20 84 39 95 44 11 4 77 36 147 69 83 41
148 65 190 72 34 6 64 12 67 15 2 2 -25 4 -61 4 -59 0 -76 -5 -179 -56z"/>
<path d="M3255 1620 c-3 -5 1 -10 9 -10 9 0 16 5 16 10 0 6 -4 10 -9 10 -6 0
-13 -4 -16 -10z"/>
<path d="M1975 1585 c-16 -7 -23 -14 -15 -14 8 0 26 6 40 14 32 18 14 18 -25
0z"/>
<path d="M2040 1570 c-18 -12 -2 -12 25 0 13 6 15 9 5 9 -8 0 -22 -4 -30 -9z"/>
<path d="M1808 1526 c-65 -23 -123 -49 -131 -60 -7 -10 -49 -33 -93 -52 -92
-38 -88 -45 6 -10 87 32 120 48 120 58 0 4 8 8 18 8 9 0 48 16 85 35 38 19 74
35 81 35 7 0 21 7 32 15 27 21 13 17 -118 -29z"/>
<path d="M1557 1542 c-9 -2 -15 -7 -12 -11 5 -9 53 -2 59 8 5 7 -18 9 -47 3z"/>
<path d="M1950 1500 c-8 -5 -10 -10 -5 -10 6 0 17 5 25 10 8 5 11 10 5 10 -5
0 -17 -5 -25 -10z"/>
<path d="M5346 1420 c-14 -17 -26 -39 -26 -48 1 -14 3 -13 12 3 6 11 20 30 31
42 11 13 18 25 15 28 -3 3 -17 -8 -32 -25z"/>
<path d="M1310 1350 c-20 -6 -21 -8 -5 -8 11 0 29 3 40 8 25 11 -1 11 -35 0z"/>
<path d="M4900 1142 c0 -5 7 -17 16 -28 14 -17 15 -17 10 -1 -3 10 -6 23 -6
28 0 5 -4 9 -10 9 -5 0 -10 -4 -10 -8z"/>
<path d="M570 1086 c-22 -8 -29 -15 -20 -18 8 -2 -2 -8 -22 -12 -21 -4 -40
-11 -43 -17 -7 -10 12 -8 93 13 46 12 59 32 15 23 -26 -5 -26 -5 -5 4 12 6 22
13 22 16 0 3 -1 5 -2 4 -2 0 -19 -6 -38 -13z"/>
<path d="M1445 980 c-37 -7 -35 -7 23 -9 35 0 62 3 62 9 0 11 -24 11 -85 0z"/>
<path d="M5219 967 c-9 -15 -6 -25 17 -48 15 -16 33 -29 40 -29 20 0 4 36 -22
50 -13 8 -24 17 -24 22 0 5 21 -3 47 -17 62 -33 73 -32 39 4 -35 37 -83 46
-97 18z"/>
<path d="M1838 923 c7 -3 16 -2 19 1 4 3 -2 6 -13 5 -11 0 -14 -3 -6 -6z"/>
<path d="M5605 789 c-4 -6 -5 -12 -2 -15 7 -7 37 7 37 17 0 13 -27 11 -35 -2z"/>
<path d="M5905 771 c-4 -7 4 -11 20 -11 15 0 35 -5 47 -11 17 -9 19 -8 16 8
-4 20 -71 32 -83 14z"/>
<path d="M5875 740 c-15 -7 -16 -9 -4 -9 9 -1 22 -8 29 -16 14 -17 67 -20 90
-5 19 12 8 22 -32 26 -18 2 -40 6 -48 8 -8 3 -24 1 -35 -4z"/>
<path d="M4600 639 c0 -5 9 -9 20 -9 11 0 20 2 20 4 0 2 -9 6 -20 9 -11 3 -20
1 -20 -4z"/>
<path d="M4580 619 c0 -5 11 -9 25 -9 14 0 25 2 25 4 0 2 -11 6 -25 8 -14 3
-25 1 -25 -3z"/>
<path d="M4660 610 c-12 -23 -6 -40 15 -40 16 0 29 35 20 50 -10 16 -23 12
-35 -10z"/>
<path d="M4469 542 c9 -7 10 -11 2 -15 -7 -4 -8 -5 0 -3 15 2 13 20 -3 24 -10
3 -10 2 1 -6z"/>
<path d="M5010 496 c0 -9 7 -16 16 -16 17 0 14 22 -4 28 -7 2 -12 -3 -12 -12z"/>
<path d="M5251 497 c2 -1 13 -9 24 -17 19 -14 19 -14 6 3 -7 9 -18 17 -24 17
-6 0 -8 -1 -6 -3z"/>
<path d="M5073 433 c9 -2 23 -2 30 0 6 3 -1 5 -18 5 -16 0 -22 -2 -12 -5z"/>
<path d="M5063 413 c9 -2 25 -2 35 0 9 3 1 5 -18 5 -19 0 -27 -2 -17 -5z"/>
</g>
</svg>
