<?xml version="1.0" standalone="no"?>
<!DOCTYPE svg PUBLIC "-//W3C//DTD SVG 20010904//EN"
 "http://www.w3.org/TR/2001/REC-SVG-20010904/DTD/svg10.dtd">
<svg version="1.0" xmlns="http://www.w3.org/2000/svg"
 width="450.000000pt" height="600.000000pt" viewBox="0 0 450.000000 600.000000"
 preserveAspectRatio="xMidYMid meet">
<metadata>
Created by potrace 1.15, written by Peter Selinger 2001-2017
</metadata>
<g transform="translate(0.000000,600.000000) scale(0.100000,-0.100000)"
fill="#000000" stroke="none">
<path d="M160 5994 c0 -3 7 -12 15 -20 16 -17 18 -14 9 10 -6 15 -24 23 -24
10z"/>
<path d="M2219 5983 c-13 -16 -12 -17 4 -4 9 7 17 15 17 17 0 8 -8 3 -21 -13z"/>
<path d="M2578 5981 c-18 -21 -11 -35 11 -22 7 5 11 16 9 25 -3 15 -5 15 -20
-3z"/>
<path d="M3040 5974 c0 -28 15 -25 23 6 3 13 0 20 -9 20 -8 0 -14 -10 -14 -26z"/>
<path d="M3350 5994 c0 -5 7 -19 15 -30 8 -10 15 -14 15 -8 0 5 -7 19 -15 30
-8 10 -15 14 -15 8z"/>
<path d="M4171 5789 c-12 -19 -21 -47 -22 -64 -5 -182 -30 -339 -88 -550 -11
-38 -20 -101 -20 -140 -1 -38 -8 -103 -16 -145 -12 -64 -23 -131 -40 -237 -2
-14 1 -20 10 -17 15 6 31 61 41 139 4 33 15 89 25 125 12 41 19 97 19 152 0
68 6 102 26 159 34 94 62 255 70 404 4 66 13 135 21 154 19 49 0 63 -26 20z"/>
<path d="M15 5780 c-3 -6 1 -7 9 -4 18 7 21 14 7 14 -6 0 -13 -4 -16 -10z"/>
<path d="M3318 5570 c-4 -8 -9 -87 -12 -175 -2 -91 -9 -174 -16 -192 -6 -18
-10 -60 -8 -93 3 -62 -1 -70 -22 -45 -6 8 -33 26 -58 41 -26 15 -73 46 -104
70 -32 23 -75 48 -95 55 -21 7 -51 25 -67 41 -15 16 -31 26 -34 23 -3 -3 -12
5 -19 17 -12 23 -12 23 -13 -5 0 -16 -4 -26 -10 -22 -5 3 -10 17 -10 30 0 32
-10 56 -21 49 -12 -7 -11 -61 1 -85 14 -25 -1 -24 -33 1 -14 11 -31 20 -39 20
-8 0 -20 6 -27 13 -11 10 -13 9 -8 -4 4 -13 -7 -15 -87 -13 -50 1 -118 -5
-151 -12 -33 -8 -100 -20 -150 -27 -49 -8 -100 -19 -112 -25 -11 -6 -65 -28
-119 -47 -54 -20 -101 -39 -104 -44 -3 -5 -38 -25 -78 -45 -45 -23 -70 -41
-66 -48 4 -6 3 -8 -4 -4 -10 6 -152 -139 -152 -156 0 -4 -6 -8 -14 -8 -8 0
-34 -23 -58 -51 -24 -28 -66 -77 -95 -108 -51 -55 -83 -113 -83 -147 0 -31
-57 -139 -100 -187 -36 -41 -47 -48 -74 -45 -29 3 -31 6 -36 51 -3 26 -9 49
-14 50 -5 1 -14 -19 -20 -44 -14 -52 -5 -81 28 -97 19 -10 18 -11 -14 -11 -26
-1 -31 -4 -20 -11 31 -20 78 -11 116 22 55 49 163 196 173 237 5 20 12 48 15
64 4 15 28 51 54 80 26 28 58 68 71 87 14 19 58 70 98 112 40 43 73 82 73 87
0 5 28 29 63 54 62 44 155 89 277 132 36 13 88 32 115 43 28 11 91 25 140 31
50 5 127 16 172 23 92 14 161 6 329 -38 116 -30 151 -46 296 -136 121 -76 137
-91 194 -185 19 -31 34 -50 34 -42 -1 20 -36 96 -70 149 -42 66 -45 104 -20
205 17 68 19 92 11 109 -6 11 -12 77 -13 146 -2 69 -6 118 -10 110z"/>
<path d="M3687 5394 c-3 -4 -3 -57 0 -118 3 -68 2 -132 -5 -162 -13 -58 -25
-224 -17 -224 11 0 35 69 35 100 0 17 7 60 16 94 14 54 14 82 5 182 -10 110
-19 143 -34 128z"/>
<path d="M1237 5383 c-10 -10 -8 -363 2 -363 12 0 25 350 14 361 -5 5 -12 6
-16 2z"/>
<path d="M4440 5274 c0 -6 8 -18 18 -26 30 -26 42 -30 42 -14 0 8 -10 18 -22
22 -13 4 -26 12 -30 18 -6 8 -8 8 -8 0z"/>
<path d="M2438 5191 c-53 -9 -100 -20 -104 -24 -14 -14 129 -7 184 9 123 35
81 43 -80 15z"/>
<path d="M2680 5195 c0 -11 11 -15 38 -15 20 0 74 -9 120 -20 101 -24 111 -25
91 -5 -18 18 -159 55 -211 55 -27 0 -38 -4 -38 -15z"/>
<path d="M2151 5125 c-75 -28 -98 -45 -59 -45 28 0 106 30 141 55 20 14 21 15
2 14 -11 0 -49 -11 -84 -24z"/>
<path d="M2298 5129 c-37 -5 -65 -16 -79 -30 l-22 -22 29 7 c16 3 45 9 64 12
19 3 55 10 79 16 36 9 41 13 25 19 -22 9 -23 9 -96 -2z"/>
<path d="M2825 4964 c41 -41 49 -76 53 -216 2 -76 8 -138 13 -138 13 0 11 232
-2 285 -12 47 -41 85 -65 85 -14 0 -14 -2 1 -16z"/>
<path d="M1950 4933 c-63 -22 -103 -52 -97 -73 3 -12 -17 -40 -64 -86 -38 -38
-69 -72 -69 -75 0 -19 42 9 99 66 53 52 62 67 52 78 -10 12 -4 19 36 38 26 13
57 25 68 26 11 2 33 8 48 15 21 8 25 13 15 19 -18 12 -36 10 -88 -8z"/>
<path d="M2630 4946 c0 -2 15 -13 34 -24 55 -32 66 -65 61 -173 -3 -52 -8 -94
-12 -94 -5 0 -16 16 -26 35 -14 27 -17 49 -13 95 8 80 -13 116 -80 139 -77 26
-138 21 -208 -17 -34 -19 -79 -37 -101 -41 -96 -17 -245 -60 -242 -70 6 -15
60 -9 132 13 33 11 78 22 100 26 22 3 77 25 122 47 89 44 127 46 199 12 40
-19 52 -49 56 -141 3 -58 8 -77 26 -96 26 -27 121 -76 169 -87 l32 -8 -16 40
c-12 31 -14 59 -9 133 6 85 5 99 -15 142 -15 32 -23 42 -26 31 -2 -9 3 -30 11
-46 12 -24 14 -50 9 -124 -5 -76 -3 -100 11 -125 l16 -32 -38 15 c-20 8 -48
27 -61 42 -22 25 -23 30 -17 118 6 81 5 98 -13 131 -11 22 -31 44 -46 51 -25
12 -55 16 -55 8z"/>
<path d="M2724 4928 c52 -39 68 -112 44 -202 -8 -31 -9 -51 -1 -68 8 -19 12
-11 22 57 7 44 11 107 8 140 -4 53 -7 62 -33 77 -16 10 -38 18 -49 18 -17 -1
-16 -3 9 -22z"/>
<path d="M4466 4934 c-3 -9 -6 -23 -5 -32 0 -12 3 -10 9 6 5 12 14 22 20 22 5
0 10 5 10 10 0 16 -27 11 -34 -6z"/>
<path d="M1772 4871 c-34 -38 -62 -75 -62 -82 0 -14 115 103 131 133 20 37 -9
16 -69 -51z"/>
<path d="M2919 4881 c-3 -8 -1 -44 3 -80 5 -36 6 -102 4 -146 -5 -82 -1 -77
24 27 8 33 8 52 1 67 -6 11 -11 37 -12 58 -1 48 -13 93 -20 74z"/>
<path d="M2960 4887 c0 -3 14 -35 30 -71 28 -59 29 -69 20 -112 -13 -58 -5
-69 15 -20 9 20 22 39 30 42 8 4 12 10 9 15 -3 5 -10 7 -15 4 -5 -4 -9 -2 -9
4 0 16 43 24 97 18 26 -3 87 -10 136 -15 104 -10 105 -12 144 -132 33 -104 48
-124 40 -54 -7 60 -52 181 -79 209 -15 16 -33 20 -96 21 -112 2 -244 15 -264
26 -10 5 -18 15 -18 22 0 7 -9 21 -20 31 -11 10 -20 15 -20 12z"/>
<path d="M2450 4840 c-23 -23 -27 -81 -7 -120 7 -14 29 -33 50 -43 31 -16 42
-17 72 -7 19 6 40 20 45 30 13 25 13 73 -1 103 -24 54 -120 76 -159 37z m125
-26 c30 -33 32 -77 5 -104 -47 -47 -130 -2 -130 72 0 59 81 79 125 32z"/>
<path d="M2500 4795 c-10 -12 -10 -21 -1 -41 13 -29 47 -30 65 -2 8 14 6 22
-11 38 -26 24 -36 25 -53 5z"/>
<path d="M3704 4823 c-17 -3 -25 -20 -43 -101 -13 -54 -25 -149 -28 -212 -3
-68 -11 -121 -18 -130 -7 -8 -18 -44 -25 -80 -7 -36 -32 -114 -55 -175 -47
-119 -75 -231 -99 -391 -9 -55 -23 -122 -31 -150 -21 -69 -20 -83 5 -59 23 24
43 99 71 265 23 137 51 239 79 285 22 37 70 220 70 269 0 20 4 36 9 36 5 0 12
30 16 68 12 119 37 266 51 301 12 29 26 84 21 80 -1 -1 -11 -4 -23 -6z"/>
<path d="M2285 4790 c3 -5 14 -10 25 -10 10 0 21 -7 24 -16 5 -12 2 -15 -11
-9 -10 4 -36 9 -58 12 -38 5 -39 5 -20 -11 19 -14 17 -15 -38 -16 -32 0 -67
-5 -77 -10 -28 -15 -43 -47 -31 -67 8 -16 11 -15 21 9 15 33 49 48 105 48 24
0 47 5 50 10 3 6 21 10 40 10 26 0 46 -11 91 -50 52 -46 93 -67 169 -86 l30
-8 -37 -4 c-39 -3 -141 41 -168 73 -29 35 -63 44 -143 36 -103 -9 -113 -25
-10 -18 l81 6 46 -35 c26 -19 71 -46 102 -60 48 -21 69 -24 181 -24 69 0 124
2 121 5 -2 3 -40 12 -84 21 -43 8 -110 25 -149 36 -64 18 -76 26 -141 94 -54
56 -77 74 -98 74 -16 0 -25 -4 -21 -10z"/>
<path d="M2692 4775 c0 -16 2 -22 5 -12 2 9 2 23 0 30 -3 6 -5 -1 -5 -18z"/>
<path d="M3130 4689 c-34 -21 -168 -149 -155 -149 18 0 87 44 131 83 56 51 84
67 113 67 12 0 21 5 21 10 0 18 -74 10 -110 -11z"/>
<path d="M2173 4663 c10 -10 107 -21 107 -12 0 4 -7 10 -16 13 -22 8 -99 8
-91 -1z"/>
<path d="M2967 4662 c-10 -15 -11 -92 -2 -92 6 0 11 22 13 50 3 47 0 60 -11
42z"/>
<path d="M3320 4641 c0 -5 -14 -11 -32 -15 -17 -3 -46 -17 -64 -31 -17 -13
-89 -52 -158 -86 -149 -73 -181 -103 -173 -162 9 -69 77 -223 148 -336 22 -35
38 -65 36 -67 -2 -2 -28 3 -58 12 -37 10 -64 26 -86 50 -18 20 -34 31 -38 25
-12 -20 17 -53 68 -78 l52 -25 -65 6 c-60 5 -63 4 -36 -8 l30 -14 -32 -7 c-50
-11 -37 -25 22 -25 53 0 75 -11 90 -42 5 -10 7 -10 12 1 4 8 17 25 30 38 l23
23 -27 -5 c-15 -3 -42 -2 -61 1 -43 8 -25 19 47 29 35 5 52 11 52 21 0 17 -51
121 -85 173 -30 47 -60 123 -75 191 -17 81 -5 104 75 141 35 16 71 29 80 29 8
0 14 5 13 12 -2 6 11 16 27 21 17 5 35 11 40 13 6 2 31 19 57 38 64 46 107 38
121 -24 3 -14 17 -58 31 -98 26 -74 34 -164 17 -190 -11 -18 -21 7 -21 51 0
18 -17 79 -38 136 -46 128 -65 141 -112 81 -28 -35 -29 -40 -14 -54 9 -9 13
-23 10 -31 -3 -8 -2 -15 2 -15 10 0 28 -52 37 -104 7 -42 35 -119 41 -113 6 6
-25 191 -40 231 -13 39 -8 93 9 89 14 -2 53 -126 71 -222 28 -154 28 -170 0
-245 -40 -106 -29 -118 20 -20 24 49 24 49 19 13 -8 -58 -81 -217 -125 -275
-23 -30 -60 -66 -83 -81 -23 -15 -53 -37 -67 -49 -26 -24 -140 -78 -140 -67 0
3 11 20 23 37 49 64 50 71 26 142 -14 42 -31 71 -48 83 -26 19 -34 21 -176 41
-91 13 -112 25 -62 34 49 9 81 38 122 107 40 68 44 104 15 151 l-20 33 7 -52
c5 -44 1 -61 -21 -108 -34 -68 -136 -156 -136 -117 0 5 -20 23 -44 42 -66 49
-66 45 -3 180 37 79 75 132 88 125 5 -4 9 -1 9 4 0 24 19 9 31 -24 17 -47 34
-29 20 21 -6 21 -8 48 -5 61 8 30 0 29 -62 -7 -56 -31 -89 -78 -118 -168 -9
-27 -37 -78 -61 -113 -41 -59 -43 -65 -28 -82 27 -29 75 -54 131 -67 28 -6 52
-16 52 -20 0 -13 54 -31 138 -44 92 -15 108 -24 133 -81 34 -73 28 -92 -56
-172 -70 -66 -89 -93 -66 -93 6 0 12 4 16 9 3 5 42 24 88 41 126 49 193 88
262 154 149 145 246 474 205 697 -12 67 -56 177 -83 206 -32 35 -12 39 23 5
24 -24 30 -27 30 -13 0 10 -10 27 -23 39 -23 22 -57 30 -57 13z m-696 -680
c17 -18 24 -31 16 -31 -20 0 -80 49 -80 66 0 20 25 6 64 -35z"/>
<path d="M2120 4615 c0 -8 -10 -24 -22 -35 l-23 -21 28 10 c46 18 165 13 235
-9 35 -11 85 -20 110 -19 l47 1 -70 23 c-38 12 -90 32 -115 43 -47 22 -106 30
-95 12 4 -6 -10 -10 -34 -10 -23 0 -41 5 -41 10 0 6 -4 10 -10 10 -5 0 -10 -7
-10 -15z"/>
<path d="M1638 4568 c-16 -13 -98 -140 -98 -151 0 -27 67 47 123 136 19 30 5
38 -25 15z"/>
<path d="M2755 4540 c3 -5 44 -10 91 -10 49 0 84 4 84 10 0 6 -37 10 -91 10
-57 0 -88 -4 -84 -10z"/>
<path d="M2470 4521 c-19 -5 -33 -10 -30 -11 3 -2 60 -8 128 -14 83 -7 132 -8
151 -1 53 18 45 25 -25 23 -38 -1 -96 1 -129 4 -33 4 -76 3 -95 -1z"/>
<path d="M2090 4492 c-25 -16 -54 -39 -65 -52 -11 -12 -38 -31 -60 -40 -45
-20 -138 -110 -114 -110 8 0 30 16 49 35 19 19 40 35 47 35 8 0 25 8 40 17 26
17 26 17 14 -5 -7 -12 -33 -46 -58 -74 l-46 -52 7 -65 c3 -36 6 -83 6 -103 0
-29 3 -36 15 -32 10 4 15 20 15 48 0 52 -10 87 -21 80 -24 -14 18 70 54 108
14 15 28 37 32 48 11 34 24 22 14 -12 -11 -40 -12 -85 -1 -90 4 -1 20 -29 36
-61 18 -35 40 -64 56 -72 16 -8 43 -32 61 -53 39 -45 74 -69 109 -75 29 -6
130 -44 210 -80 30 -13 78 -30 107 -37 56 -14 68 -30 79 -100 6 -36 4 -40 -19
-45 -14 -4 -34 -2 -45 4 -12 6 -30 11 -41 11 -22 0 -71 -20 -71 -29 0 -3 40
-6 90 -6 49 1 90 -2 90 -6 0 -20 -65 -31 -143 -25 -58 5 -96 2 -132 -8 -27 -8
-83 -17 -122 -21 -84 -7 -133 9 -197 65 -30 27 -39 31 -46 20 -7 -11 -23 1
-70 52 -35 38 -67 65 -75 62 -13 -5 -56 50 -89 114 -26 51 -38 28 -16 -31 12
-32 33 -63 56 -82 19 -16 63 -57 97 -91 34 -34 73 -65 87 -69 14 -4 36 -18 50
-31 58 -54 189 -64 350 -27 54 12 74 13 117 2 48 -11 55 -10 100 13 69 36 80
64 58 144 -9 34 -22 70 -28 78 -7 8 -48 28 -92 44 -44 16 -116 45 -160 64 -44
20 -101 43 -126 52 -73 26 -172 115 -205 183 -41 82 -40 160 1 225 37 60 72
76 129 60 237 -68 398 -80 513 -36 37 14 97 35 133 47 108 36 27 34 -94 -2
-82 -25 -122 -31 -194 -31 -99 0 -214 20 -265 47 -18 9 -64 18 -107 20 -70 4
-78 2 -120 -25z m-52 -112 c-7 -11 -16 -20 -20 -20 -5 0 -3 9 4 20 7 11 16 20
20 20 5 0 3 -9 -4 -20z"/>
<path d="M3033 4435 c-28 -13 -55 -30 -59 -37 -16 -25 -2 -71 40 -137 46 -72
71 -131 55 -131 -12 0 -2 -41 24 -100 25 -54 38 -130 23 -127 -15 3 -58 -110
-54 -146 3 -28 6 -22 26 40 25 79 35 91 57 73 8 -7 15 -9 15 -4 -1 35 -33 149
-55 198 -15 32 -23 61 -18 65 10 8 15 63 5 71 -4 3 -18 22 -32 42 -13 20 -32
39 -40 41 -11 3 -17 18 -18 49 -3 53 14 72 73 86 53 12 89 -2 108 -41 17 -34
22 -28 29 29 4 27 0 33 -27 43 -47 16 -94 12 -152 -14z"/>
<path d="M3083 4392 c-21 -3 -23 -9 -23 -60 1 -48 15 -92 31 -92 3 0 3 33 1
73 -6 104 17 75 27 -35 4 -47 11 -90 14 -95 4 -6 0 -27 -8 -46 -8 -20 -11 -38
-6 -42 5 -3 11 1 14 7 10 28 38 -20 50 -87 9 -47 15 -64 20 -51 13 34 4 120
-21 196 -2 8 -4 32 -3 53 3 51 -9 118 -20 112 -4 -3 -15 10 -23 28 -16 40 -23
44 -53 39z m66 -154 c0 -42 -2 -48 -9 -30 -8 20 -3 82 6 82 2 0 4 -24 3 -52z"/>
<path d="M2820 4349 c0 -13 23 -71 50 -129 63 -133 68 -95 6 44 -50 110 -56
119 -56 85z"/>
<path d="M1401 4253 c-67 -83 -83 -113 -62 -113 5 0 24 19 42 43 18 23 50 61
71 84 36 40 49 73 29 73 -5 0 -41 -39 -80 -87z"/>
<path d="M3191 4328 c1 -7 5 -24 9 -38 8 -24 8 -24 9 7 1 17 -3 35 -9 38 -5 3
-10 0 -9 -7z"/>
<path d="M3237 4284 c-16 -16 -6 -64 19 -91 20 -21 24 -23 18 -8 -4 11 -12 39
-18 63 -7 23 -15 39 -19 36z"/>
<path d="M1865 4250 c-21 -23 -32 -104 -16 -114 7 -5 11 2 11 16 0 13 9 43 20
67 11 24 20 45 20 47 0 10 -19 2 -35 -16z"/>
<path d="M1804 4215 c-20 -31 -31 -105 -15 -105 7 0 11 -25 11 -70 0 -40 4
-70 10 -70 6 0 10 1 10 3 0 2 5 29 11 60 8 47 7 63 -5 88 -11 23 -13 42 -7 75
5 24 7 44 5 44 -2 0 -11 -11 -20 -25z"/>
<path d="M1976 4195 c-3 -9 -6 -37 -6 -62 0 -62 24 -52 28 12 3 49 -10 80 -22
50z"/>
<path d="M3220 4167 c0 -17 20 -37 37 -37 11 0 11 4 1 20 -15 24 -38 34 -38
17z"/>
<path d="M2528 4094 c-30 -43 -52 -80 -47 -82 19 -8 115 126 107 149 -2 7 -29
-23 -60 -67z"/>
<path d="M2940 4096 c0 -48 4 -60 31 -91 37 -42 58 -36 30 8 -11 18 -25 53
-31 80 -17 67 -30 68 -30 3z"/>
<path d="M970 4100 c0 -5 12 -17 26 -27 14 -10 43 -33 64 -50 20 -18 42 -33
48 -33 16 0 22 -27 22 -100 0 -93 16 -98 23 -7 4 55 1 78 -11 100 -9 15 -21
27 -27 27 -6 0 -33 23 -60 50 -45 45 -85 65 -85 40z"/>
<path d="M3253 4068 c-1 -65 -39 -152 -89 -205 -25 -27 -53 -72 -64 -101 -11
-30 -27 -67 -35 -83 -9 -16 -12 -29 -7 -29 14 0 187 184 190 203 2 11 -26 -12
-64 -52 -37 -39 -69 -70 -71 -68 -9 9 17 55 53 93 79 84 88 96 101 147 14 56
17 96 7 121 -11 28 -20 17 -21 -26z"/>
<path d="M2796 4081 c-4 -6 -25 -15 -46 -21 -38 -10 -50 -23 -32 -33 12 -8 80
24 86 40 8 19 1 29 -8 14z"/>
<path d="M812 4057 c-6 -51 -24 -123 -41 -163 -31 -74 -78 -292 -68 -318 10
-25 49 2 41 27 -7 23 25 213 42 247 6 14 18 54 24 88 7 35 18 69 24 75 6 7 12
19 14 26 3 12 0 12 -13 1 -13 -11 -15 -10 -10 3 4 8 2 17 -3 21 -5 3 -9 0 -10
-7z"/>
<path d="M1287 4052 c17 -9 45 -29 62 -44 39 -35 42 -35 30 0 -11 33 -56 62
-96 62 l-28 -1 32 -17z"/>
<path d="M1850 4010 c0 -59 40 -147 61 -135 4 3 -3 35 -17 70 -13 36 -24 74
-24 85 0 11 -4 20 -10 20 -5 0 -10 -18 -10 -40z"/>
<path d="M910 4021 c0 -10 7 -24 15 -31 10 -9 15 -9 15 -1 0 20 32 11 52 -15
18 -22 89 -74 103 -74 28 0 -46 85 -107 123 -38 23 -78 22 -78 -2z"/>
<path d="M610 4013 c0 -4 15 -22 33 -41 33 -35 32 -36 -16 -13 -38 20 -46 5
-13 -25 35 -33 31 -60 -9 -56 -28 3 -29 3 -12 -16 25 -27 21 -97 -8 -152 l-24
-45 -1 47 c0 26 5 50 10 53 18 11 11 51 -14 74 -22 21 -194 101 -217 101 -31
0 9 -30 104 -77 59 -29 107 -55 107 -58 0 -4 -5 -3 -12 1 -8 5 -10 -15 -5 -77
3 -46 10 -85 16 -87 17 -6 13 -147 -8 -274 -24 -145 -26 -656 -2 -697 7 -13
20 -83 27 -155 14 -133 46 -266 65 -266 6 0 8 -4 5 -9 -8 -12 25 -100 75 -201
23 -47 49 -107 59 -135 10 -27 43 -120 73 -205 67 -191 59 -169 128 -326 62
-139 87 -218 94 -298 5 -62 52 -192 81 -223 12 -13 32 -51 44 -84 13 -33 33
-75 45 -93 l22 -32 -36 7 c-105 22 -192 26 -408 19 -127 -4 -235 -10 -240 -13
-5 -3 -98 -8 -207 -11 -130 -3 -202 -9 -212 -16 -7 -7 -43 -15 -79 -18 -46 -3
-65 -9 -65 -18 0 -17 40 -18 125 -4 33 5 137 12 230 15 94 3 215 9 270 15 178
16 551 22 595 9 22 -7 40 -16 40 -20 0 -4 22 -10 49 -14 37 -5 59 -2 86 11 69
32 131 -17 129 -104 -2 -137 -16 -441 -21 -464 -5 -24 -2 -28 17 -28 19 0 22
4 18 30 -3 16 -2 30 1 30 7 0 8 32 13 315 2 143 0 196 -10 213 -7 12 -17 20
-21 17 -5 -2 -21 11 -35 30 -15 19 -31 35 -36 35 -5 0 -26 -11 -46 -25 -41
-28 -89 -32 -120 -10 -12 8 -32 43 -44 77 -13 35 -39 95 -58 133 -49 99 -79
181 -92 256 -15 89 -54 204 -113 334 -27 61 -69 164 -92 230 -57 160 -76 207
-145 360 -79 179 -108 269 -131 415 -11 69 -32 181 -47 250 -25 115 -27 141
-25 325 1 132 7 235 18 305 10 58 21 152 25 210 5 74 14 119 30 154 30 65 61
171 65 222 3 34 -2 47 -25 73 -27 29 -50 40 -50 24z"/>
<path d="M3917 4013 c-33 -56 -67 -320 -42 -333 5 -3 14 36 21 90 7 52 19 126
28 163 9 38 16 72 16 78 0 11 -17 12 -23 2z"/>
<path d="M1945 3929 c-16 -25 17 -91 79 -156 46 -50 61 -40 20 14 -20 26 -47
71 -60 100 -24 55 -28 60 -39 42z"/>
<path d="M181 3913 c-5 -10 -14 -38 -21 -63 -7 -27 -26 -60 -48 -82 -32 -33
-34 -38 -15 -38 11 0 32 9 46 20 33 26 37 25 37 -10 0 -16 7 -55 15 -87 16
-61 14 -86 -16 -198 -22 -80 -38 -97 -115 -122 -63 -20 -73 -43 -16 -43 78 1
162 62 162 119 0 14 7 48 15 75 19 62 19 120 0 182 -9 30 -15 90 -15 157 0
103 -8 128 -29 90z"/>
<path d="M900 3848 c0 -30 9 -78 19 -108 31 -89 31 -140 0 -140 -14 0 -19 -5
-17 -17 2 -12 11 -17 24 -15 14 2 24 -5 31 -20 10 -22 10 -22 15 8 2 17 -2 58
-9 90 -7 33 -14 73 -16 89 -1 17 -6 33 -12 37 -5 4 -10 29 -10 55 0 26 -6 54
-12 61 -11 11 -13 3 -13 -40z"/>
<path d="M1083 3819 c19 -41 38 -85 45 -99 l11 -25 0 30 c0 40 -42 136 -68
153 -18 13 -17 6 12 -59z"/>
<path d="M2050 3851 c0 -18 11 -40 29 -60 24 -26 36 -31 75 -31 40 0 52 -5 90
-40 43 -39 106 -64 106 -41 0 6 -6 11 -14 11 -20 0 -76 49 -76 65 0 9 -22 19
-61 27 -52 11 -65 18 -83 45 -24 37 -42 45 -26 11 11 -22 10 -22 -4 -4 -9 11
-16 26 -16 33 0 7 -4 13 -10 13 -5 0 -10 -13 -10 -29z"/>
<path d="M2736 3783 c18 -61 18 -98 -2 -129 -23 -34 -13 -39 19 -10 29 27 36
81 17 130 -6 16 -6 26 0 26 15 0 40 -43 41 -70 l0 -25 11 25 c10 24 10 24 18
5 12 -28 12 -99 0 -129 -7 -20 -6 -24 6 -19 8 3 21 18 29 33 13 25 13 34 0 76
-15 50 -87 134 -115 134 -13 0 -13 -1 0 -10 9 -6 10 -10 3 -10 -6 0 -15 5 -18
10 -16 26 -22 5 -9 -37z"/>
<path d="M960 3790 c0 -12 4 -19 10 -15 18 11 60 -8 81 -36 19 -26 25 -58 44
-201 3 -27 11 -48 17 -48 7 0 9 27 4 85 -13 157 -47 223 -121 232 -30 3 -35 1
-35 -17z"/>
<path d="M2265 3800 c3 -5 12 -10 18 -10 7 0 32 -14 57 -30 60 -40 68 -38 30
10 -27 35 -37 40 -71 40 -24 0 -38 -4 -34 -10z"/>
<path d="M2130 3720 c21 -40 90 -77 90 -49 0 5 -4 8 -9 4 -5 -3 -19 8 -30 24
-24 33 -67 51 -51 21z"/>
<path d="M661 3644 c-23 -27 -20 -277 3 -253 2 2 6 64 8 137 1 72 3 132 3 132
0 -1 -6 -8 -14 -16z"/>
<path d="M2696 3582 c-4 -7 -34 -30 -67 -52 l-59 -41 0 -110 c0 -70 5 -118 12
-132 7 -12 18 -42 24 -67 l12 -45 1 45 c0 25 -6 70 -14 100 -28 106 -14 220
29 220 18 0 79 66 74 81 -3 10 -6 10 -12 1z"/>
<path d="M3852 3536 c-1 -26 -14 -75 -28 -109 -28 -67 -32 -81 -33 -112 -1
-15 -3 -17 -10 -6 -7 10 -12 8 -24 -10 -19 -27 -6 -52 26 -47 15 2 28 28 58
118 41 124 47 166 26 194 -12 17 -14 13 -15 -28z"/>
<path d="M1058 3470 c-7 -103 1 -242 13 -234 11 6 10 258 0 294 -5 17 -9 -2
-13 -60z"/>
<path d="M3057 3494 c-3 -3 3 -22 13 -42 11 -21 26 -68 34 -107 8 -38 24 -97
36 -130 42 -121 64 -278 64 -455 -1 -142 -5 -190 -33 -345 -18 -99 -50 -282
-71 -406 -21 -126 -47 -247 -58 -272 -29 -65 -45 -152 -38 -202 4 -23 2 -64
-4 -91 -7 -27 -16 -98 -21 -159 -5 -60 -12 -132 -15 -158 -4 -26 -3 -62 0 -80
7 -36 96 -191 111 -193 6 -1 21 12 35 30 20 26 21 28 3 13 -22 -19 -22 -19
-63 62 l-41 82 11 162 c5 89 10 167 10 174 0 6 8 10 18 8 9 -2 23 -4 30 -4 7
-1 10 -6 6 -13 -4 -7 -3 -8 4 -4 8 5 6 18 -8 44 -11 20 -20 42 -20 49 0 7 -4
13 -9 13 -10 0 -9 31 3 66 3 11 19 27 34 35 31 16 43 30 36 41 -11 18 -44 6
-69 -24 l-27 -33 7 30 c3 17 19 62 34 100 18 44 40 140 60 260 17 105 38 219
46 255 57 261 83 498 66 623 -6 45 -13 118 -16 162 -9 117 -53 293 -82 323 -7
7 -13 31 -13 53 0 22 -6 54 -14 72 -14 35 -49 71 -59 61z"/>
<path d="M717 3373 c6 -101 31 -188 53 -188 18 0 18 19 1 60 -7 17 -20 72 -28
123 -9 50 -19 92 -23 92 -4 0 -5 -39 -3 -87z"/>
<path d="M2610 3418 c0 -34 40 -175 56 -195 12 -17 13 -16 14 9 0 15 -11 57
-25 94 -14 36 -25 77 -25 90 0 13 -4 24 -10 24 -5 0 -10 -10 -10 -22z"/>
<path d="M4440 3394 c0 -14 34 -54 46 -54 24 0 15 24 -16 42 -17 9 -30 15 -30
12z"/>
<path d="M2706 3342 c-4 -7 0 -42 9 -78 9 -36 20 -103 25 -148 5 -44 16 -104
24 -132 34 -110 44 -206 38 -365 -4 -135 -2 -164 16 -237 l22 -84 -22 -61
c-24 -72 -36 -218 -20 -250 11 -21 14 -74 28 -492 7 -189 -4 -293 -41 -420
-23 -77 -23 -81 -7 -109 10 -17 47 -51 84 -76 78 -53 221 -187 209 -195 -5 -3
-16 -2 -25 1 -23 9 -20 -13 3 -26 26 -14 200 -13 398 2 145 11 171 10 265 -6
185 -33 513 -53 683 -41 142 9 119 26 -35 25 -175 0 -390 9 -440 20 -25 5 -85
14 -135 20 -49 6 -126 16 -171 22 -44 6 -96 8 -115 4 -82 -17 -192 -24 -297
-18 -99 4 -112 7 -107 22 5 17 -74 98 -147 150 -20 14 -50 51 -68 86 -33 61
-33 61 -22 135 17 111 24 240 13 253 -9 11 -20 224 -26 496 -3 121 -6 146 -20
156 -14 10 -16 24 -12 71 2 32 10 76 16 98 6 22 13 53 16 69 4 20 9 26 16 19
7 -7 7 -54 -1 -146 -7 -75 -10 -142 -7 -149 12 -32 30 57 35 167 4 109 1 132
-26 245 -31 125 -32 137 -33 390 0 41 -7 109 -14 150 -31 168 -37 199 -57 285
-29 122 -43 162 -52 147z m113 -2371 c1 -16 -3 -21 -8 -15 -10 9 -15 38 -11
64 2 22 18 -19 19 -49z"/>
<path d="M1008 3328 c-4 -10 -10 -51 -14 -92 -6 -67 -4 -77 15 -102 12 -15 24
-44 27 -65 4 -21 12 -43 19 -49 16 -13 2 78 -16 112 -8 13 -16 66 -19 118 -3
52 -8 87 -12 78z"/>
<path d="M2850 3313 c-20 -26 -21 -35 -16 -138 7 -113 23 -230 36 -254 15 -27
16 24 4 129 -16 134 -17 209 -3 249 15 43 6 48 -21 14z"/>
<path d="M886 3205 c10 -49 10 -86 -1 -187 -6 -55 -5 -78 3 -78 16 0 26 63 27
172 0 82 -3 100 -19 115 -18 17 -18 17 -10 -22z"/>
<path d="M2557 3156 c-7 -83 13 -201 58 -334 14 -41 30 -103 35 -139 13 -77
34 -134 42 -113 5 16 -43 267 -61 312 -13 33 -51 261 -51 305 0 64 -17 41 -23
-31z"/>
<path d="M2930 3030 c0 -85 4 -129 10 -125 6 4 10 57 10 125 0 68 -4 121 -10
125 -6 4 -10 -40 -10 -125z"/>
<path d="M937 3122 c-5 -6 -5 -50 -1 -98 8 -96 24 -96 23 1 -1 71 -11 116 -22
97z"/>
<path d="M1097 2843 c6 -371 5 -396 -2 -518 -6 -96 -4 -126 18 -235 14 -69 29
-154 32 -190 4 -36 18 -99 32 -140 13 -41 28 -113 33 -160 21 -206 59 -417
106 -580 27 -96 29 -141 10 -258 -7 -46 -9 -85 -5 -88 5 -3 11 1 14 8 2 7 12
33 21 58 20 53 36 304 23 359 -11 46 -11 51 0 51 5 0 17 -19 26 -42 14 -35 17
-79 18 -226 2 -158 4 -181 17 -176 63 28 105 11 121 -49 21 -80 28 -85 27 -22
0 33 -3 71 -7 85 -4 15 0 46 11 79 23 69 23 89 -3 137 l-20 39 5 -34 c4 -20
-2 -61 -14 -101 -17 -57 -25 -70 -50 -80 -46 -19 -63 -8 -53 37 9 43 8 81 -4
203 -7 75 -15 99 -65 200 -67 137 -118 280 -148 416 -11 54 -30 127 -40 162
-11 35 -27 109 -36 165 -8 56 -22 127 -29 157 -9 33 -14 106 -14 185 2 455 -5
793 -17 805 -8 8 -10 -56 -7 -247z m233 -1607 c8 -41 15 -83 25 -161 9 -70
-11 -9 -44 135 -17 74 -31 140 -31 145 1 18 41 -78 50 -119z"/>
<path d="M2655 3062 c-8 -49 2 -159 16 -168 11 -6 11 163 0 191 -7 16 -10 12
-16 -23z"/>
<path d="M816 3044 c-9 -68 -7 -144 3 -144 27 0 39 -104 46 -390 1 -83 9 -156
18 -190 9 -30 12 -59 8 -63 -10 -10 16 -151 36 -197 24 -55 26 -21 4 86 -10
53 -17 103 -15 109 3 7 -1 50 -9 96 -10 53 -13 116 -10 169 4 62 1 100 -11
139 -9 32 -16 91 -16 142 0 79 -2 88 -20 94 -18 6 -20 15 -19 96 1 101 -5 123
-15 53z"/>
<path d="M987 3001 c-10 -46 -9 -243 2 -260 16 -26 19 5 12 149 -4 100 -8 135
-14 111z"/>
<path d="M3058 2959 c-3 -8 -1 -25 4 -39 17 -44 10 -301 -12 -453 -36 -243
-75 -395 -155 -602 -26 -68 -27 -75 -23 -226 6 -226 22 -223 28 6 5 184 20
275 43 275 9 0 8 -26 -9 -142 -4 -29 -3 -48 3 -48 11 0 29 73 42 175 6 39 19
122 31 185 12 63 30 171 40 240 11 69 22 134 25 145 3 11 10 112 15 224 9 188
8 206 -9 239 -12 23 -20 30 -23 21z"/>
<path d="M921 2763 c0 -65 4 -136 8 -158 6 -28 9 4 10 112 1 92 -3 154 -9 158
-6 4 -10 -36 -9 -112z"/>
<path d="M2707 2780 c-9 -44 2 -146 17 -160 10 -7 11 6 5 58 -5 37 -9 83 -11
102 l-3 35 -8 -35z"/>
<path d="M715 2710 c-4 -6 2 -41 13 -78 11 -37 28 -109 37 -161 21 -121 53
-223 66 -215 6 3 8 17 4 33 -10 37 -34 142 -55 241 -37 172 -49 206 -65 180z"/>
<path d="M1029 2700 c-4 -14 -6 -278 -2 -297 9 -39 23 -25 23 21 0 25 5 57 10
72 12 29 -2 163 -20 192 -5 10 -10 15 -11 12z"/>
<path d="M2988 2555 c-4 -33 -10 -100 -12 -150 -5 -86 -5 -89 10 -57 11 25 14
63 12 150 -3 104 -4 110 -10 57z"/>
<path d="M993 2365 c0 -44 2 -61 4 -37 2 23 2 59 0 80 -2 20 -4 1 -4 -43z"/>
<path d="M660 2362 c0 -41 82 -247 170 -427 48 -99 100 -216 114 -260 37 -112
46 -123 39 -46 -5 56 -19 91 -107 265 -55 111 -123 262 -150 336 -52 141 -66
169 -66 132z"/>
<path d="M1018 2304 c-12 -12 -9 -100 4 -131 l12 -28 3 30 c5 41 -10 139 -19
129z"/>
<path d="M968 2263 c-2 -10 0 -51 4 -93 4 -41 12 -124 18 -185 22 -240 29
-306 36 -316 4 -6 1 -15 -6 -19 -10 -6 -8 -22 11 -74 25 -72 49 -105 49 -68 0
12 -9 44 -20 72 -13 34 -17 57 -11 67 5 9 5 30 0 47 -13 49 -39 269 -39 328 0
29 -6 87 -14 128 -8 41 -12 87 -9 103 3 15 1 27 -5 27 -6 0 -12 -8 -14 -17z"/>
<path d="M763 2215 c8 -49 31 -102 102 -245 72 -145 73 -146 80 -139 2 3 -25
68 -61 145 -36 76 -75 164 -86 194 -24 66 -42 88 -35 45z"/>
<path d="M10 1885 c0 -7 8 -15 18 -18 9 -2 26 -8 37 -13 19 -7 19 -7 2 13 -22
25 -57 36 -57 18z"/>
<path d="M1066 1825 c3 -27 16 -80 29 -117 13 -36 28 -99 34 -140 20 -128 51
-272 61 -282 15 -15 13 19 -16 202 -24 159 -69 322 -100 367 -13 17 -14 14 -8
-30z"/>
<path d="M2343 1617 c3 -20 1 -37 -4 -39 -11 -4 7 -142 21 -168 17 -31 21 36
6 101 -8 35 -12 66 -10 68 10 11 25 -19 41 -83 14 -58 15 -75 4 -110 -20 -67
-24 -93 -13 -100 15 -9 52 96 52 145 0 41 -36 139 -50 139 -5 0 -14 16 -20 35
-16 49 -35 58 -27 12z"/>
<path d="M1566 1521 c-15 -24 5 -61 74 -135 76 -82 112 -146 186 -331 53 -134
127 -248 163 -253 22 -4 22 -3 6 22 -10 14 -14 26 -11 26 13 0 89 -65 153
-131 47 -49 79 -72 119 -88 60 -23 104 -27 104 -10 0 5 -4 7 -10 4 -18 -11
-68 24 -104 74 -49 66 -88 98 -161 131 -101 46 -211 179 -264 322 -38 101
-112 218 -168 264 -25 20 -53 55 -62 77 -12 27 -20 37 -25 28z"/>
<path d="M2934 1494 c-20 -49 -32 -238 -15 -248 12 -8 15 11 12 79 -1 22 5 76
13 120 8 44 12 82 10 84 -2 2 -11 -13 -20 -35z"/>
<path d="M3055 1512 c-11 -11 -4 -22 14 -22 11 0 23 -4 26 -10 9 -15 25 -12
25 5 0 8 -7 15 -15 15 -8 0 -15 4 -15 8 0 9 -27 12 -35 4z"/>
<path d="M10 1416 c0 -13 12 -16 68 -16 37 0 82 -4 99 -9 21 -6 35 -6 39 1 13
21 -20 32 -111 36 -83 4 -95 2 -95 -12z"/>
<path d="M1097 1423 c-7 -11 22 -125 64 -258 10 -33 23 -83 29 -112 12 -64 83
-180 88 -144 2 12 -8 42 -23 67 -23 39 -114 324 -116 364 -1 28 -35 94 -42 83z"/>
<path d="M2329 1293 c-13 -26 -40 -65 -59 -87 -19 -21 -49 -60 -65 -85 -24
-37 -37 -47 -63 -49 -31 -3 -36 -22 -6 -22 21 0 42 -23 50 -54 3 -14 18 -35
31 -46 19 -15 21 -20 9 -20 -9 0 -16 -7 -16 -15 0 -10 10 -15 28 -15 15 0 51
-6 79 -13 29 -8 50 -10 47 -5 -3 4 1 8 10 8 8 0 22 3 30 6 12 4 35 -14 79 -60
38 -41 74 -70 95 -75 21 -7 32 -6 32 1 0 5 6 8 13 5 7 -3 21 2 32 9 17 13 14
13 -28 8 -56 -8 -69 1 -103 68 -36 71 -58 82 -153 73 -88 -8 -123 -2 -114 21
3 7 0 14 -6 14 -6 0 -19 16 -28 35 -23 49 -8 92 66 184 58 73 88 138 72 154
-4 4 -18 -14 -32 -40z"/>
<path d="M319 1246 c-2 -2 -2 -62 1 -132 4 -91 9 -129 18 -132 10 -3 12 25 10
129 -3 119 -10 153 -29 135z"/>
<path d="M2561 1138 c-5 -18 -15 -53 -21 -77 -9 -33 -14 -41 -21 -30 -7 11 -9
11 -9 1 0 -7 -4 -10 -10 -7 -6 3 -7 -1 -4 -9 3 -9 15 -16 25 -16 22 0 23 -9 8
-42 -6 -14 -7 -32 -1 -47 7 -20 11 -13 26 46 34 132 44 213 27 213 -5 0 -14
-15 -20 -32z"/>
<path d="M2419 1093 c-1 -5 -1 -12 0 -16 1 -5 -3 -6 -8 -3 -5 4 -35 -12 -67
-34 -32 -22 -61 -40 -65 -40 -4 0 -10 10 -12 23 -4 19 -4 19 -6 -5 -1 -29 25
-52 43 -37 6 5 37 28 69 51 31 23 57 47 57 55 0 14 -9 18 -11 6z"/>
<path d="M2000 1036 c12 -12 151 -48 159 -41 15 15 -33 37 -97 44 -47 5 -69 4
-62 -3z"/>
<path d="M2650 1040 c-18 -11 -13 -16 28 -23 27 -6 32 -4 32 13 0 22 -33 27
-60 10z"/>
<path d="M2930 1003 c0 -52 62 -163 91 -163 6 0 -75 167 -87 179 -2 2 -4 -5
-4 -16z"/>
<path d="M2612 999 c-43 -16 -60 -126 -27 -176 11 -17 20 -23 23 -15 2 7 -2
20 -10 30 -11 15 -11 16 3 4 9 -7 43 -14 75 -16 33 -2 72 -9 87 -15 35 -14 37
-14 37 -1 0 6 -23 22 -52 35 -38 18 -56 21 -70 14 -12 -6 -25 -6 -37 1 -39 20
-71 90 -36 76 8 -3 23 -9 33 -12 16 -5 16 -5 0 9 -10 8 -18 22 -18 31 0 29 80
1 130 -46 14 -13 34 -30 44 -38 18 -14 18 -14 8 5 -41 72 -141 132 -190 114z"/>
<path d="M1692 972 c-32 -10 -27 -28 6 -22 36 6 81 4 117 -5 29 -8 30 -7 13
12 -19 20 -90 28 -136 15z"/>
<path d="M3790 921 c5 -11 10 -46 10 -79 0 -41 5 -63 15 -72 13 -11 15 -3 15
63 0 89 -5 107 -31 107 -16 0 -18 -3 -9 -19z"/>
<path d="M3995 912 c-33 -4 -75 -37 -75 -60 0 -12 6 -10 23 6 36 34 96 30 137
-8 24 -23 31 -36 28 -55 -4 -20 -3 -23 8 -14 21 18 17 54 -11 87 -29 34 -66
49 -110 44z"/>
<path d="M1703 890 c-42 -25 -62 -57 -69 -111 -4 -32 -2 -48 8 -57 12 -9 15
-4 17 35 4 78 30 103 109 103 32 0 44 -8 94 -60 55 -58 80 -71 93 -50 3 6 2
10 -4 10 -6 0 -29 25 -51 56 -68 91 -130 115 -197 74z"/>
<path d="M40 852 c-16 -5 -30 -21 -30 -34 0 -14 16 -9 39 11 23 20 18 32 -9
23z"/>
<path d="M3742 801 c6 -58 19 -76 62 -87 l28 -7 -36 53 c-20 29 -36 58 -36 66
0 7 -5 16 -11 20 -9 5 -10 -8 -7 -45z"/>
<path d="M2850 818 c0 -8 23 -42 51 -77 28 -35 66 -86 85 -114 78 -120 107
-156 189 -238 88 -90 121 -131 156 -202 12 -23 32 -57 46 -75 13 -18 27 -48
30 -67 3 -22 11 -35 20 -35 23 0 8 61 -26 113 -15 23 -39 64 -52 91 -14 29
-74 103 -148 180 -118 125 -151 169 -138 182 5 6 368 -11 477 -22 80 -8 43 11
-60 31 -47 9 -155 18 -240 21 -85 2 -168 7 -184 9 -37 6 -59 24 -48 39 5 7
-23 42 -75 95 -46 46 -83 77 -83 69z"/>
<path d="M2693 776 c0 -8 4 -13 9 -10 16 10 117 -57 157 -105 22 -26 47 -48
55 -48 17 0 19 -4 -52 89 -39 50 -58 65 -97 74 -65 15 -72 15 -72 0z"/>
<path d="M2574 667 c-29 -26 -48 -56 -64 -99 -13 -35 -36 -91 -52 -125 -42
-87 -33 -116 12 -38 18 33 47 86 62 118 15 32 42 78 59 102 17 23 29 51 27 61
-3 16 -9 13 -44 -19z"/>
<path d="M2760 685 c0 -3 11 -22 23 -43 110 -173 141 -244 152 -342 4 -36 12
-76 16 -89 15 -39 55 -63 107 -65 49 -1 127 -40 116 -57 -3 -5 0 -9 5 -9 6 0
28 -16 50 -35 24 -22 48 -35 66 -35 27 0 28 1 10 20 -21 24 -188 138 -218 150
-21 8 -21 8 -3 16 22 8 24 7 167 -90 55 -38 103 -75 106 -82 6 -16 33 -19 33
-4 0 38 -97 140 -134 140 -22 0 -75 27 -103 52 -19 18 -26 19 -54 9 -18 -6
-49 -11 -69 -11 -36 0 -38 3 -59 52 -13 31 -18 55 -12 61 18 18 -92 259 -152
333 -25 30 -47 44 -47 29z m273 -512 c-7 -2 -19 -2 -25 0 -7 3 -2 5 12 5 14 0
19 -2 13 -5z m251 -49 c9 -8 16 -18 16 -20 0 -7 -38 15 -45 26 -10 16 12 12
29 -6z"/>
<path d="M1985 665 c-5 -2 -29 -9 -53 -15 -54 -14 -82 -41 -82 -80 0 -33 -19
-76 -55 -125 -22 -30 -48 -95 -41 -102 2 -2 10 3 19 11 8 8 17 13 20 10 2 -3
7 10 11 29 6 34 38 77 57 77 5 0 12 -7 15 -15 8 -20 24 -19 24 1 0 8 -4 13 -9
9 -21 -12 -20 15 1 29 18 13 19 16 5 16 -25 0 -21 27 6 33 55 14 174 19 181 8
8 -13 226 -16 226 -2 0 8 -94 21 -161 21 -21 0 -41 5 -45 11 -5 8 -38 10 -115
5 -143 -9 -152 5 -28 43 25 8 57 8 109 1 71 -10 103 -7 64 6 -10 3 -33 12 -51
20 -29 13 -75 17 -98 9z"/>
<path d="M2638 633 c-2 -23 3 -31 27 -43 17 -8 30 -23 30 -32 0 -9 17 -32 36
-50 45 -41 59 -67 64 -121 3 -23 9 -87 14 -142 11 -125 38 -235 57 -235 19 0
18 16 -7 95 -16 52 -20 88 -17 157 2 49 6 92 11 95 23 14 -30 157 -84 223 -12
14 -18 19 -14 13 3 -7 12 -35 19 -63 11 -42 11 -48 0 -39 -8 6 -14 18 -14 26
0 8 -6 21 -12 29 -7 8 -31 36 -53 63 -22 27 -43 50 -47 50 -4 1 -8 -11 -10
-26z m187 -202 c16 -31 10 -100 -7 -83 -8 8 -18 112 -11 112 1 0 9 -13 18 -29z"/>
<path d="M2358 609 c-37 -38 -36 -59 2 -39 22 12 54 66 42 73 -4 3 -24 -12
-44 -34z"/>
<path d="M2419 608 c-15 -29 -23 -67 -26 -118 -5 -91 8 -78 30 30 9 41 20 87
26 103 17 43 -6 32 -30 -15z"/>
<path d="M3473 614 c14 -14 230 -45 374 -53 139 -8 155 -11 185 -34 29 -22 47
-26 150 -32 129 -8 318 2 318 17 0 5 -39 8 -92 6 -114 -3 -356 11 -363 22 -8
13 70 18 197 13 152 -7 258 3 258 23 0 16 3 16 -120 4 -115 -12 -531 4 -673
25 -99 15 -246 20 -234 9z"/>
<path d="M737 574 c-5 -6 -194 -20 -442 -35 -88 -5 -188 -12 -222 -15 -62 -6
-63 -6 -63 -35 0 -29 1 -29 43 -23 23 4 67 15 97 26 47 16 72 18 175 12 67 -3
139 -13 162 -21 38 -14 49 -14 110 0 39 8 90 13 120 10 34 -4 70 0 102 11 33
11 81 16 143 15 61 -1 83 -4 63 -9 -16 -4 32 -5 108 -4 76 2 147 6 158 9 14 5
25 1 34 -13 10 -13 31 -21 71 -26 31 -3 65 -11 76 -17 16 -9 19 -8 16 3 -7 21
-49 38 -94 38 -44 0 -68 24 -42 43 8 5 -8 6 -42 2 -79 -11 -100 -10 -145 7
-28 11 -97 17 -232 21 -105 3 -193 3 -196 1z m103 -33 c0 -11 -29 -15 -219
-31 -85 -7 -138 -7 -144 -1 -13 13 96 34 147 28 22 -3 61 -2 86 2 64 12 130
13 130 2z"/>
<path d="M2336 476 c-14 -46 -26 -97 -26 -112 0 -34 31 -88 59 -103 22 -12 22
-5 2 43 -8 20 -10 64 -5 142 4 63 4 114 1 114 -3 0 -17 -38 -31 -84z"/>
<path d="M2915 540 c13 -44 72 -154 91 -171 28 -24 134 -80 134 -70 0 5 -10
20 -21 35 -29 37 -19 43 14 9 47 -50 55 -54 55 -28 0 16 -12 30 -40 46 -22 13
-55 34 -74 46 -39 26 -44 18 -12 -22 14 -18 17 -26 8 -23 -8 2 -40 41 -70 86
-30 45 -63 89 -74 99 -17 17 -18 17 -11 -7z"/>
<path d="M1658 509 c-34 -25 -37 -45 -6 -28 33 18 69 19 90 5 18 -13 18 -14
-4 -21 -13 -4 -27 -8 -33 -9 -5 -1 -34 -7 -63 -15 -40 -10 -52 -17 -49 -30 2
-9 10 -14 18 -12 27 7 54 2 65 -14 6 -8 19 -15 29 -15 16 0 16 2 -3 19 -29 25
-28 37 6 44 15 3 40 15 55 27 l28 22 -32 24 c-40 29 -65 30 -101 3z"/>
<path d="M3015 500 c8 -16 25 -34 36 -40 19 -11 20 -10 8 12 -11 21 -47 58
-56 58 -2 0 3 -13 12 -30z"/>
<path d="M888 503 c18 -2 45 -2 60 0 15 2 0 4 -33 4 -33 0 -45 -2 -27 -4z"/>
<path d="M3210 504 c0 -2 12 -10 28 -18 39 -20 132 -25 132 -6 0 6 -19 10 -42
10 -24 0 -60 4 -80 9 -21 5 -38 7 -38 5z"/>
<path d="M3846 490 c-81 -32 -95 -63 -15 -35 24 9 76 18 116 22 40 3 73 9 73
13 0 26 -108 26 -174 0z"/>
<path d="M165 466 c-19 -16 -16 -16 54 -10 53 4 72 3 67 -5 -8 -13 67 -14 98
-2 34 13 2 21 -101 27 -82 5 -101 3 -118 -10z"/>
<path d="M2610 460 c-11 -7 -1 -10 35 -10 28 0 61 -3 75 -7 22 -6 24 -5 11 10
-15 19 -96 23 -121 7z"/>
<path d="M535 417 c-6 -23 -37 -41 -102 -59 -33 -9 -133 -72 -133 -84 0 -2 12
1 26 6 26 10 48 5 40 -9 -8 -12 41 -16 149 -13 28 0 64 1 80 1 231 0 395 6
392 15 -5 15 -163 27 -272 20 -187 -11 -336 -11 -342 -1 -3 6 -1 7 5 3 7 -4
12 -3 12 2 0 22 135 57 158 41 15 -9 14 -10 -5 -6 -13 3 -23 1 -23 -4 0 -10 0
-10 55 -11 69 -2 95 2 95 12 0 6 -16 10 -35 10 -51 0 -84 40 -76 93 3 18 -19
4 -24 -16z m-25 -57 c-8 -5 -22 -10 -30 -10 -13 0 -13 1 0 10 8 5 22 10 30 10
13 0 13 -1 0 -10z"/>
<path d="M3301 431 c-10 -6 -4 -12 23 -21 39 -13 128 -17 246 -11 41 2 81 2
89 0 7 -2 15 1 18 8 7 19 -51 25 -190 22 -73 -2 -141 -1 -152 3 -11 4 -26 4
-34 -1z"/>
<path d="M4403 429 c30 -18 73 -27 87 -19 19 11 -4 21 -58 26 -37 3 -43 2 -29
-7z"/>
<path d="M2629 425 c-1 -5 -1 -13 0 -17 1 -7 -53 -39 -64 -38 -3 0 -13 -4 -23
-9 -12 -8 3 -10 59 -11 59 0 86 -5 122 -24 26 -13 47 -20 47 -16 0 21 -44 58
-75 64 -24 5 -40 15 -50 34 -8 15 -15 23 -16 17z"/>
<path d="M3885 419 c-16 -5 -56 -10 -89 -11 l-58 -1 32 -13 c43 -18 73 -17
144 5 41 12 53 20 41 24 -21 9 -32 8 -70 -4z"/>
<path d="M155 400 c-27 -10 -71 -21 -97 -25 -31 -4 -48 -12 -48 -21 0 -31 123
-5 171 36 19 16 32 29 29 28 -3 0 -27 -8 -55 -18z"/>
<path d="M1326 405 c4 -8 21 -30 40 -49 35 -35 41 -57 24 -100 -9 -25 2 -37
15 -16 4 6 10 8 15 5 5 -3 -10 -23 -33 -45 -49 -46 -36 -55 14 -10 19 16 38
30 43 30 5 0 3 6 -3 14 -12 15 -6 61 12 84 6 8 6 12 -3 12 -7 0 -30 16 -51 35
-22 19 -44 35 -50 35 -5 0 -7 5 -4 10 3 6 -1 10 -9 10 -10 0 -13 -6 -10 -15z"/>
<path d="M2878 375 c-9 -33 -8 -144 2 -171 5 -13 18 -34 29 -45 10 -11 31 -49
46 -85 15 -35 33 -64 41 -64 19 0 18 3 -13 93 -15 45 -32 77 -40 77 -19 0 -31
34 -46 130 -8 49 -16 76 -19 65z"/>
<path d="M1634 367 c-9 -24 2 -101 15 -105 6 -2 18 -28 26 -57 16 -54 66 -133
88 -139 67 -19 99 -31 108 -43 17 -19 32 -16 26 6 -3 14 0 17 14 14 10 -3 24
-11 30 -19 14 -17 56 -18 62 -1 4 10 6 10 6 0 1 -7 13 -13 29 -13 23 1 18 5
-32 31 -39 20 -66 29 -82 25 -13 -4 -40 0 -60 9 -20 8 -44 15 -53 15 -25 0
-43 37 -48 101 -5 48 -2 62 16 87 21 30 28 62 13 62 -4 0 -20 -24 -35 -52 -23
-45 -27 -49 -27 -26 0 51 -19 39 -22 -14 l-3 -53 -12 40 c-6 22 -14 56 -17 76
-4 19 -13 44 -20 55 -14 18 -15 18 -22 1z"/>
<path d="M2396 359 c-4 -8 -1 -33 6 -55 13 -38 14 -39 65 -42 47 -3 102 12 90
24 -10 10 -50 13 -72 4 -30 -11 -55 7 -71 51 -9 25 -13 30 -18 18z"/>
<path d="M177 318 c-26 -36 -40 -75 -28 -83 5 -2 14 8 21 23 26 57 40 92 36
92 -3 0 -16 -15 -29 -32z"/>
<path d="M4042 320 c0 -14 2 -19 5 -12 2 6 2 18 0 25 -3 6 -5 1 -5 -13z"/>
<path d="M1940 310 c-54 -7 -82 -21 -109 -56 -24 -31 -20 -45 7 -21 51 46 171
63 209 30 10 -10 25 -33 32 -50 18 -44 32 -42 20 2 -6 19 -7 40 -3 47 4 6 3 8
-2 5 -6 -3 -15 3 -22 13 -10 16 -9 18 5 13 10 -4 14 -2 9 5 -3 6 -24 10 -45
10 -22 0 -43 2 -48 4 -4 2 -28 1 -53 -2z"/>
<path d="M2170 308 c0 -4 4 -8 9 -8 5 0 23 -21 40 -46 17 -26 54 -62 82 -81
28 -19 63 -55 77 -79 30 -49 45 -56 38 -19 -6 30 -92 132 -118 141 -11 3 -34
27 -53 53 -21 30 -41 47 -54 47 -12 0 -21 -4 -21 -8z"/>
<path d="M2990 306 c0 -8 10 -27 23 -41 18 -21 29 -26 57 -23 l35 4 -29 12
c-20 9 -31 9 -36 2 -3 -5 -12 6 -19 25 -12 35 -31 47 -31 21z"/>
<path d="M3196 305 c4 -9 -2 -18 -15 -23 -21 -7 -21 -7 3 -36 l23 -30 -4 35
c-4 33 -4 33 12 14 9 -11 21 -19 27 -17 7 2 6 -3 -1 -12 -14 -16 -9 -46 7 -46
18 0 6 66 -18 98 -25 33 -44 43 -34 17z"/>
<path d="M3335 311 c-2 -5 1 -13 8 -19 22 -17 74 -41 80 -36 9 10 199 -26 213
-41 12 -12 19 -12 47 0 17 7 58 13 91 14 68 0 80 6 41 21 -20 8 -49 8 -101 0
-61 -9 -78 -9 -102 4 -16 8 -69 20 -117 26 -48 6 -103 17 -121 25 -19 8 -36
10 -39 6z"/>
<path d="M4465 307 c-26 -29 -24 -36 4 -19 17 9 31 20 31 25 0 11 -24 8 -35
-6z"/>
<path d="M1180 240 c-30 -11 -67 -19 -82 -19 -20 -1 -26 -5 -22 -16 9 -21 70
-19 123 5 24 11 46 18 49 15 3 -2 -6 -27 -20 -55 -29 -59 -20 -75 15 -28 30
40 40 72 32 98 -8 24 -22 24 -95 0z"/>
<path d="M1604 236 c-6 -27 -2 -79 14 -169 9 -47 17 -65 27 -55 6 6 -22 239
-30 246 -2 2 -7 -8 -11 -22z"/>
<path d="M4411 218 c-50 -25 -135 -33 -220 -19 -41 6 -76 9 -78 7 -3 -3 10
-12 29 -22 91 -48 348 -13 310 42 -4 6 -21 2 -41 -8z"/>
<path d="M887 208 c-21 -4 -48 -13 -60 -20 -22 -12 -21 -12 8 -18 17 -3 42 0
58 8 27 13 42 13 96 -4 18 -5 23 -4 19 7 -7 21 -77 37 -121 27z"/>
<path d="M3475 192 c-8 -21 -7 -22 23 -6 38 20 52 18 52 -9 0 -13 -6 -29 -12
-37 -11 -12 -10 -12 4 -1 13 10 22 10 39 1 12 -7 38 -12 58 -12 55 0 90 -26
103 -75 6 -25 16 -43 24 -43 19 0 17 30 -5 81 -11 24 -18 46 -16 49 1 3 -23 5
-56 6 -50 0 -64 5 -98 32 -31 25 -48 31 -75 30 -20 -2 -38 -9 -41 -16z"/>
<path d="M317 172 c2 -11 -1 -19 -9 -20 -7 0 -32 -4 -55 -8 -51 -8 -105 3 -82
17 10 6 7 9 -14 9 -24 0 -26 -2 -15 -19 12 -20 48 -31 101 -31 29 0 30 -1 11
-15 -19 -14 -19 -14 3 -15 12 0 33 10 46 23 30 27 45 77 23 77 -9 0 -12 -7 -9
-18z"/>
<path d="M2656 171 c-3 -4 -20 -11 -38 -15 -60 -12 -168 -49 -168 -57 0 -29
160 14 196 52 15 16 25 29 21 29 -3 0 -8 -4 -11 -9z"/>
<path d="M2682 168 c-15 -15 -15 -38 -1 -75 8 -22 12 -24 19 -13 12 19 13 87
2 94 -5 3 -14 0 -20 -6z"/>
<path d="M3880 169 c0 -14 88 -28 142 -22 32 3 77 0 104 -6 56 -14 65 -9 28
16 -23 15 -49 18 -151 18 -68 0 -123 -3 -123 -6z"/>
<path d="M1840 162 c0 -18 26 -31 78 -38 30 -4 59 -12 65 -18 24 -24 159 -96
179 -96 20 0 20 1 -3 21 -13 12 -52 34 -85 50 -34 15 -64 34 -67 42 -3 8 -32
18 -69 24 -34 6 -71 14 -80 18 -10 4 -18 3 -18 -3z"/>
<path d="M10 150 c0 -5 15 -10 33 -10 24 0 28 3 17 10 -20 13 -50 13 -50 0z"/>
<path d="M540 128 c56 -32 112 -40 133 -19 8 8 2 11 -21 11 -17 0 -55 9 -84
20 -78 30 -91 24 -28 -12z"/>
<path d="M775 129 c-77 -32 -106 -57 -80 -72 9 -5 29 -6 45 -2 36 8 120 71
120 90 0 19 -2 19 -85 -16z"/>
<path d="M2870 153 c0 -28 46 -143 58 -143 17 0 11 31 -20 103 -18 40 -38 62
-38 40z"/>
<path d="M956 132 c-13 -12 -4 -20 27 -26 17 -3 44 -12 58 -20 15 -8 65 -17
110 -20 94 -8 139 -22 139 -42 0 -8 4 -14 9 -14 5 0 4 14 -2 30 -14 36 -49 48
-161 55 -41 2 -97 13 -125 24 -27 10 -52 16 -55 13z"/>
<path d="M883 111 c-9 -14 -9 -22 -2 -26 6 -4 -6 -21 -28 -41 -24 -21 -32 -33
-22 -34 8 0 28 13 44 30 30 31 45 38 45 19 0 -5 -4 -8 -9 -5 -5 3 -12 -1 -15
-10 -11 -29 -6 -35 17 -20 12 8 48 18 80 21 61 8 66 26 10 32 -45 4 -102 27
-105 41 -2 8 -7 6 -15 -7z"/>
<path d="M1368 119 c-25 -14 -26 -109 -2 -109 14 0 15 7 10 40 -7 46 -2 51 16
15 10 -18 17 -22 28 -15 8 5 10 10 4 10 -7 0 -15 16 -18 35 -7 37 -11 40 -38
24z"/>
<path d="M2242 108 c-13 -13 -16 -29 -4 -26 4 1 22 -1 40 -5 26 -5 34 -13 38
-37 4 -16 12 -30 20 -30 10 0 11 7 2 33 -24 68 -65 96 -96 65z"/>
<path d="M3440 107 c0 -14 49 -65 56 -58 9 7 100 -11 121 -25 33 -21 46 -18
33 7 -14 25 -68 49 -112 49 -18 0 -48 9 -65 20 -24 14 -33 16 -33 7z"/>
<path d="M3910 110 c-45 -4 -60 -8 -47 -14 20 -10 104 1 112 15 4 5 5 8 3 7
-2 -1 -32 -4 -68 -8z"/>
<path d="M4170 110 c0 -6 14 -24 30 -40 17 -16 30 -37 31 -47 0 -14 2 -13 10
5 6 15 5 30 -1 43 -12 22 -70 55 -70 39z"/>
<path d="M400 93 c0 -23 47 -63 74 -63 26 0 18 20 -11 31 -16 5 -36 20 -45 32
l-18 22 0 -22z"/>
<path d="M1462 80 c-12 -16 -22 -38 -22 -50 0 -17 3 -18 19 -9 15 10 41 61 41
82 0 16 -18 5 -38 -23z"/>
<path d="M4440 91 c-14 -4 -24 -13 -22 -19 1 -7 -10 -12 -26 -12 -27 0 -72
-34 -60 -45 8 -8 39 6 33 15 -3 5 9 11 27 15 71 14 108 29 108 42 0 14 -20 15
-60 4z"/>
<path d="M480 86 c0 -8 72 -76 81 -76 11 0 11 0 -2 39 -7 20 -16 30 -25 27 -7
-3 -16 -1 -19 4 -6 10 -35 14 -35 6z"/>
<path d="M1703 45 c7 -23 16 -35 29 -35 23 0 23 22 1 42 -37 31 -42 30 -30 -7z"/>
<path d="M2450 41 c0 -21 5 -31 16 -31 11 0 14 8 12 27 -4 39 -28 42 -28 4z"/>
<path d="M332 38 c-14 -14 -16 -28 -3 -28 9 0 24 30 18 36 -2 2 -9 -2 -15 -8z"/>
<path d="M2800 25 c0 -8 5 -15 10 -15 6 0 10 7 10 15 0 8 -4 15 -10 15 -5 0
-10 -7 -10 -15z"/>
<path d="M3831 24 c0 -11 3 -14 6 -6 3 7 2 16 -1 19 -3 4 -6 -2 -5 -13z"/>
<path d="M3977 33 c-13 -12 -7 -23 12 -23 10 0 21 7 25 15 5 15 -24 22 -37 8z"/>
<path d="M2625 20 l-30 -8 27 -1 c15 0 30 4 33 9 3 6 5 9 3 9 -2 -1 -16 -5
-33 -9z"/>
<path d="M4040 20 c-11 -7 -7 -10 18 -10 20 0 31 4 27 10 -8 13 -26 13 -45 0z"/>
</g>
</svg>
